<?xml version="1.0" standalone="no"?>
<!DOCTYPE svg PUBLIC "-//W3C//DTD SVG 20010904//EN"
 "http://www.w3.org/TR/2001/REC-SVG-20010904/DTD/svg10.dtd">
<svg version="1.0" xmlns="http://www.w3.org/2000/svg"
 width="640.000000pt" height="1280.000000pt" viewBox="0 0 640.000000 1280.000000"
 preserveAspectRatio="xMidYMid meet">
<metadata>
Created by potrace 1.15, written by Peter Selinger 2001-2017
</metadata>
<g transform="translate(0.000000,1280.000000) scale(0.100000,-0.100000)"
fill="#ffffff" stroke="none">
<path d="M5575 12776 c-26 -39 -103 -265 -132 -386 -36 -153 -172 -593 -188
-609 -23 -24 -33 -3 -40 91 -9 123 -46 287 -86 383 -17 43 -58 112 -90 154
-59 79 -150 171 -169 171 -16 0 -12 -41 15 -172 57 -274 55 -570 -3 -640 -24
-28 -26 -40 -27 -112 l0 -80 215 -31 215 -30 -3 -40 c-2 -22 -15 -105 -28
-185 -14 -80 -34 -203 -45 -275 -10 -71 -35 -227 -54 -345 -19 -118 -44 -280
-55 -359 -10 -80 -24 -149 -29 -154 -7 -7 -17 -2 -29 13 -18 23 -22 23 -61 12
-60 -18 -75 -48 -67 -125 21 -183 25 -245 25 -377 1 -122 4 -156 22 -205 l21
-60 -18 -212 c-9 -117 -22 -213 -26 -213 -28 0 -176 73 -299 146 -222 133
-320 178 -462 213 -169 41 -282 37 -420 -18 -85 -33 -141 -43 -182 -33 -48 13
-64 46 -74 155 -5 54 -15 104 -21 112 -6 7 -18 53 -25 100 -8 48 -22 99 -32
114 -10 16 -37 56 -60 90 -55 82 -138 245 -153 300 -22 82 -292 331 -443 408
-68 34 -149 39 -302 19 -142 -19 -218 -37 -289 -71 -29 -14 -66 -25 -83 -25
-64 0 -173 -97 -194 -172 -6 -24 -17 -50 -25 -59 -31 -34 -45 -321 -24 -498
14 -128 35 -186 83 -238 l42 -45 -23 -18 c-33 -27 -27 -59 29 -141 60 -88 115
-147 148 -160 22 -9 23 -13 19 -73 -7 -78 -1 -90 35 -77 31 12 33 9 11 -24
-26 -40 -12 -58 42 -52 41 4 44 3 32 -12 -8 -9 -20 -29 -28 -45 -8 -16 -51
-66 -95 -111 -59 -60 -91 -84 -122 -93 -68 -20 -168 -137 -241 -280 -85 -167
-99 -219 -122 -471 -11 -119 -27 -274 -36 -346 -19 -161 -100 -675 -114 -724
-22 -80 -2 -188 65 -355 22 -53 35 -101 33 -119 -3 -27 -9 -33 -50 -48 -26 -9
-89 -46 -140 -81 -51 -36 -133 -88 -182 -118 -80 -48 -91 -58 -113 -106 -32
-70 -43 -179 -43 -434 0 -269 16 -695 30 -793 6 -42 33 -159 61 -260 150 -554
180 -691 181 -824 1 -84 -2 -96 -29 -145 -26 -45 -49 -66 -161 -143 -73 -49
-162 -114 -199 -143 -74 -57 -94 -64 -228 -87 -111 -19 -233 -59 -280 -91 -45
-30 -56 -30 -85 1 -27 29 -55 32 -65 8 -13 -34 108 -113 253 -165 83 -30 285
-36 424 -13 107 17 149 17 148 0 -1 -22 -65 -28 -300 -28 -194 -1 -260 3 -319
16 -117 26 -175 72 -230 182 -46 93 -48 114 -17 190 33 84 33 95 -4 60 -62
-60 -64 -152 -5 -272 73 -148 185 -204 440 -220 185 -11 1347 36 1398 57 33
13 -366 12 -584 -1 -252 -16 -321 -16 -326 -2 -14 39 248 60 979 78 l227 5 51
-61 c61 -74 96 -140 86 -165 -6 -15 -20 -4 -89 64 -45 44 -95 86 -110 91 -34
13 -147 14 -166 2 -27 -17 0 -29 77 -36 101 -8 125 -19 170 -74 50 -60 102
-137 102 -150 0 -24 -24 -7 -119 84 l-99 96 -456 -11 c-251 -6 -622 -11 -824
-11 -520 -1 -604 14 -723 133 -135 135 -147 319 -27 422 74 64 112 48 68 -28
-64 -112 -73 -136 -62 -161 7 -14 18 -25 26 -25 17 0 36 30 36 57 0 11 16 46
36 79 49 81 53 106 21 138 -23 23 -35 26 -93 26 -89 0 -125 -19 -173 -91 -47
-71 -56 -115 -48 -248 6 -123 25 -173 130 -363 80 -144 127 -253 127 -296 0
-11 -10 -32 -23 -48 -19 -24 -22 -41 -22 -112 l0 -83 52 -48 c58 -53 69 -87
60 -176 -10 -96 -58 -160 -177 -234 -72 -45 -100 -71 -100 -91 0 -9 18 -33 40
-53 l41 -36 -17 -38 c-9 -21 -18 -44 -21 -51 -3 -7 2 -32 11 -56 15 -39 15
-46 1 -80 -14 -34 -15 -40 -1 -61 19 -30 72 -70 109 -84 21 -8 70 -7 185 4
186 19 333 17 340 -4 4 -11 -4 -13 -37 -8 -39 5 -43 3 -53 -21 -7 -18 -8 -123
-5 -308 l5 -282 -161 -143 c-161 -144 -211 -203 -223 -267 -7 -32 -6 -33 22
-30 26 3 29 6 26 37 l-2 34 82 -7 c210 -18 422 -26 778 -31 212 -3 381 -3 375
-1 -20 9 -568 42 -1018 62 -99 4 -157 10 -157 17 0 6 46 57 103 113 135 134
153 140 263 92 179 -79 309 -102 704 -128 803 -52 2800 -74 3605 -40 137 6
325 23 495 44 151 19 336 42 410 51 207 25 250 34 260 59 4 12 17 30 29 40 17
16 19 22 8 34 -22 27 -94 52 -170 58 l-75 7 -4 241 c-3 215 -6 245 -23 281
-38 76 -108 111 -287 145 -49 10 -59 15 -64 36 -11 42 17 96 61 119 43 22 150
117 166 148 8 14 7 29 -4 56 -9 20 -22 56 -29 81 l-13 45 -155 6 c-149 5 -158
7 -220 37 -36 18 -74 32 -85 32 -36 1 -105 38 -117 65 -10 23 -8 28 25 59 77
70 117 216 117 425 0 163 -13 207 -130 446 -195 399 -466 794 -520 760 -8 -5
-4 -15 10 -31 16 -16 21 -30 16 -47 -5 -21 -2 -25 24 -30 32 -7 66 -57 56 -83
-15 -38 -126 66 -126 118 0 15 -6 31 -14 35 -12 7 -13 21 -5 83 5 41 25 300
44 575 19 275 53 727 75 1005 54 680 65 825 100 1315 17 231 44 582 60 780 16
198 39 473 50 610 10 138 24 265 31 283 15 43 42 49 154 31 49 -8 128 -14 175
-14 71 1 96 6 155 31 57 24 73 36 87 65 38 76 98 356 105 489 5 83 1 112 -25
225 -17 72 -40 188 -51 258 -24 149 -64 259 -176 484 -83 168 -140 260 -195
318 l-38 40 34 240 c18 132 45 312 59 400 50 310 115 698 118 700 1 1 85 -6
187 -17 102 -11 208 -21 235 -21 l50 -2 3 38 c3 40 -4 45 -34 22 -29 -22 -34
-18 -34 25 0 51 23 108 47 116 10 3 24 8 32 10 11 4 12 7 3 16 -45 45 56 361
194 609 77 136 72 184 -13 147 -143 -62 -351 -296 -426 -481 -15 -34 -39 -93
-54 -131 -15 -38 -33 -71 -40 -73 -34 -12 -38 33 -43 544 -5 525 -8 556 -45
499z m-14 -237 c-10 -43 -29 -300 -56 -740 l-7 -106 54 -6 c29 -4 72 -7 95 -7
50 0 60 11 103 123 40 103 84 188 143 277 59 88 237 271 244 252 3 -7 -28 -68
-68 -135 -168 -281 -246 -490 -205 -552 21 -31 21 -94 0 -124 -21 -29 -15 -29
-499 40 -358 51 -431 65 -452 82 -20 15 -15 51 13 92 14 21 30 63 36 94 15 85
5 439 -16 534 -27 119 -10 115 59 -15 58 -109 69 -158 85 -383 15 -194 19
-215 44 -224 12 -5 47 -12 79 -15 l58 -8 28 64 c34 76 124 365 186 601 51 193
78 266 83 229 2 -13 -1 -45 -7 -73z m12 -549 c-7 -28 -13 -25 -13 6 0 14 4 23
9 20 5 -3 7 -15 4 -26z m417 -67 c-11 -43 -34 -116 -50 -162 -17 -46 -30 -85
-30 -87 0 -2 -4 -4 -9 -4 -11 0 9 90 42 185 58 167 85 205 47 68z m-821 -56
c1 -50 -3 -76 -9 -72 -6 4 -9 50 -9 108 2 119 16 89 18 -36z m401 -69 c-7 -28
-8 -24 -8 27 0 46 2 54 8 33 4 -14 4 -41 0 -60z m-170 -347 c16 -30 13 -57
-30 -316 -22 -132 -45 -298 -53 -369 -12 -128 -13 -130 -40 -139 -49 -16 -61
5 -53 98 14 176 75 579 102 672 18 67 53 92 74 54z m-2641 -920 c42 -22 78
-57 45 -44 -25 9 -94 52 -94 58 0 8 10 6 49 -14z m2499 7 c23 -23 5 -355 -20
-386 -14 -16 -76 -8 -97 14 -17 15 -8 89 30 254 27 117 53 152 87 118z m-2700
-17 c10 -6 8 -10 -10 -14 -48 -13 -148 -3 -148 14 0 11 141 11 158 0z m-242
-38 c14 -9 39 -39 55 -67 23 -41 29 -63 29 -113 0 -34 4 -64 9 -68 6 -3 9 -27
9 -53 -1 -37 5 -57 25 -87 35 -51 34 -60 -4 -38 -62 36 -73 65 -71 183 1 77
-1 100 -9 87 -15 -26 -29 -11 -29 33 0 35 -3 39 -31 45 -29 7 -30 7 -13 26 17
19 17 21 -11 44 -29 23 -29 24 -7 25 12 0 34 -7 48 -17z m227 -23 c66 -18 60
-33 -12 -28 -65 5 -108 27 -74 39 10 3 23 5 28 4 6 -2 31 -9 58 -15z m215 -57
c19 -22 28 -39 22 -41 -20 -7 -125 52 -128 72 -4 17 1 18 34 13 28 -4 48 -17
72 -44z m141 6 c41 -41 50 -59 30 -59 -33 0 -99 55 -99 82 0 29 25 21 69 -23z
m-787 19 c15 -12 15 -19 2 -73 -7 -33 -18 -85 -24 -116 -20 -104 -60 -120 -60
-24 0 40 8 67 30 110 33 63 37 80 16 72 -18 -7 -28 17 -13 32 14 14 29 14 49
-1z m-97 -30 c-11 -36 -35 -69 -46 -63 -5 4 0 22 13 46 24 42 43 53 33 17z
m173 -85 c-2 -66 -9 -109 -21 -132 -21 -41 -21 -41 -3 -41 8 0 33 21 55 46 35
40 41 44 41 24 0 -12 -16 -38 -35 -57 -30 -30 -40 -34 -66 -29 -25 5 -35 1
-51 -19 -11 -14 -26 -25 -35 -25 -14 0 -14 2 1 23 39 54 57 103 67 180 13 93
23 127 40 127 8 0 10 -29 7 -97z m340 80 c-10 -2 -28 -2 -40 0 -13 2 -5 4 17
4 22 1 32 -1 23 -4z m-263 -37 c17 -12 17 -16 5 -31 -13 -16 -15 -16 -27 1
-15 20 -17 44 -5 44 5 0 17 -6 27 -14z m380 5 c-3 -5 -21 -15 -40 -21 -60 -20
-39 -40 43 -40 36 0 43 -3 34 -12 -17 -17 -15 -53 7 -96 24 -47 56 -77 105
-97 55 -23 95 -55 113 -89 15 -28 14 -33 -31 -118 -34 -66 -46 -99 -46 -133 0
-51 -16 -67 -30 -30 -6 17 -6 43 1 78 14 65 31 99 66 131 23 22 26 29 17 53
-12 35 -63 69 -117 78 -72 13 -102 45 -109 119 -3 25 -14 34 -97 77 -51 27
-96 50 -98 53 -6 6 145 55 170 56 10 0 16 -4 12 -9z m192 -52 c96 -38 107 -46
142 -93 35 -48 56 -65 151 -125 l35 -23 -65 6 c-45 4 -68 11 -75 22 -5 9 -34
45 -63 79 -53 64 -89 85 -143 85 -41 0 -79 20 -95 51 -26 51 -21 51 113 -2z
m191 -13 c15 -8 39 -27 53 -43 35 -38 92 -123 86 -129 -8 -8 -107 107 -107
124 -1 16 -2 15 -14 0 -18 -25 -23 -23 -46 15 -31 50 -23 60 28 33z m-1053
-138 c4 -22 2 -52 -5 -74 -12 -35 -14 -36 -26 -19 -14 19 -20 146 -7 158 10
10 31 -25 38 -65z m600 42 c35 -37 23 -39 -28 -5 -42 29 -45 35 -19 35 10 0
31 -13 47 -30z m309 0 c7 -7 -7 -10 -44 -10 -65 0 -100 8 -100 23 0 13 129 2
144 -13z m-381 -21 c12 -6 48 -37 80 -68 32 -31 55 -47 51 -37 -6 16 2 13 39
-14 26 -18 47 -35 47 -37 0 -2 -25 -3 -56 -3 -51 0 -59 3 -88 35 -32 34 -32
34 -45 13 -13 -21 -14 -21 -27 -3 -19 26 -18 33 9 37 21 4 20 5 -15 40 -20 19
-34 38 -31 42 8 8 11 8 36 -5z m392 -39 c28 -11 121 -94 136 -121 25 -48 -66
-17 -94 31 -10 16 -38 42 -63 56 -33 20 -42 29 -32 35 17 11 21 11 53 -1z
m2125 -7 c0 -12 -43 -53 -57 -53 -16 0 -17 32 -1 48 13 13 58 17 58 5z m-2655
-74 c91 -92 175 -155 218 -163 48 -9 102 -64 115 -118 6 -23 39 -89 72 -146
72 -122 93 -175 85 -218 -5 -29 -45 -79 -45 -57 0 6 7 16 15 23 8 7 15 21 15
31 0 14 -7 19 -30 19 l-31 0 7 76 c7 71 6 76 -12 72 -13 -2 -20 -13 -22 -36
-2 -24 -10 -36 -26 -42 -28 -10 -36 -48 -36 -183 0 -107 7 -128 54 -168 31
-27 31 -27 12 -48 -25 -27 -34 -27 -29 3 7 35 -11 39 -45 11 -16 -14 -33 -25
-36 -25 -10 0 -7 90 5 130 23 76 -17 177 -76 193 -11 3 -39 11 -63 17 -25 6
-62 29 -92 55 -51 45 -80 57 -80 32 0 -8 9 -22 20 -32 11 -10 20 -21 20 -24 0
-8 -120 -74 -125 -69 -3 2 -13 56 -24 120 -11 63 -24 133 -30 155 -14 52 -52
87 -84 79 -33 -8 -37 5 -37 117 1 63 5 98 15 110 13 19 185 156 195 157 3 0
37 -32 75 -71z m2861 37 c37 -14 81 -39 99 -56 50 -49 264 -469 304 -599 11
-36 28 -118 36 -181 9 -63 28 -173 42 -245 31 -152 34 -260 9 -384 -9 -47 -19
-87 -22 -90 -4 -3 -3 80 0 184 6 175 1 233 -19 213 -3 -3 -8 -64 -9 -134 -4
-150 -34 -314 -68 -373 -43 -76 8 -54 59 25 11 17 12 16 7 -11 -11 -56 -48
-120 -78 -134 -39 -18 -183 -25 -340 -16 l-126 7 0 65 c0 80 11 103 51 103 38
0 68 -15 96 -49 15 -18 25 -23 32 -15 8 7 3 23 -18 56 -41 64 -55 147 -48 271
7 113 14 143 62 267 18 47 36 106 40 133 7 45 8 47 41 47 26 0 34 4 34 18 0 9
16 36 35 60 35 45 63 136 51 167 -5 14 -9 15 -21 5 -8 -7 -15 -20 -15 -29 0
-33 -22 -93 -41 -112 -13 -13 -33 -19 -65 -19 -43 0 -50 4 -105 61 -33 33 -57
64 -54 68 2 5 21 12 40 15 47 9 44 22 -7 29 -77 11 -210 58 -234 82 -28 28
-29 35 -11 59 10 14 33 20 94 26 131 11 139 34 16 44 -99 9 -113 13 -113 35 0
49 98 91 212 91 61 0 69 2 66 18 -5 25 -74 27 -182 6 -97 -19 -112 -14 -100
36 12 52 47 70 179 90 103 15 165 31 165 41 0 5 -21 9 -46 9 -29 0 -71 11
-115 30 -73 33 -89 32 -89 -2 0 -49 -61 -76 -94 -42 -20 19 -20 18 -1 55 9 16
37 45 63 64 58 42 95 44 188 11z m-3326 -80 c0 -16 -19 -25 -38 -18 -9 3 -10
8 -1 18 15 18 39 18 39 0z m1327 -8 c25 -24 30 -38 11 -38 -16 0 -48 31 -48
47 0 19 10 16 37 -9z m-617 -36 c21 -14 22 -17 7 -20 -18 -4 -76 28 -98 54
-12 14 -9 14 26 -1 22 -9 51 -24 65 -33z m200 7 c7 -16 10 -32 7 -36 -9 -8
-38 17 -47 42 -17 46 21 40 40 -6z m315 5 c0 -26 -6 -31 -55 -51 -73 -28 -95
-31 -95 -13 0 8 26 24 63 38 41 16 62 29 58 37 -6 16 4 27 18 22 6 -2 11 -17
11 -33z m-1185 -20 c0 -29 -22 -104 -31 -104 -12 0 -11 62 1 94 10 29 30 35
30 10z m81 5 c19 -10 19 -10 -1 -36 -11 -14 -20 -36 -20 -49 0 -32 -10 -54
-25 -54 -30 0 -29 79 1 128 17 25 18 26 45 11z m759 -87 c0 -44 -26 -54 -54
-20 -12 14 -30 30 -41 36 -18 10 -16 11 16 12 20 0 42 7 49 15 17 21 30 3 30
-43z m410 28 c11 -6 26 -23 34 -38 l15 -27 13 33 c7 17 16 32 20 32 13 0 9
-35 -6 -55 -12 -17 -17 -17 -60 -5 -27 7 -65 10 -93 6 -53 -6 -79 4 -70 28 11
28 110 46 147 26z m-186 -91 c30 -24 26 -36 -20 -55 -42 -18 -64 -9 -64 25 0
52 39 66 84 30z m146 -33 c0 -26 26 -60 39 -52 4 3 6 19 3 36 -3 23 0 30 12
30 16 0 30 -36 24 -66 -4 -24 -40 -35 -69 -20 -26 13 -45 55 -36 80 10 24 27
19 27 -8z m-1130 -72 c0 -7 -4 -15 -9 -18 -11 -7 -21 17 -21 47 1 22 1 22 15
3 8 -11 15 -25 15 -32z m1309 -26 c17 -35 33 -85 36 -113 5 -42 4 -46 -6 -25
-6 14 -26 57 -45 95 -19 39 -34 78 -34 88 0 34 19 16 49 -45z m-244 37 c0 -5
-18 -19 -39 -30 -22 -11 -41 -27 -44 -35 -6 -21 -32 -40 -54 -40 -16 0 -17 3
-8 21 7 11 28 39 47 60 30 33 42 39 67 37 17 -2 31 -7 31 -13z m-1136 -57
l-14 -43 -3 39 c-4 49 4 74 20 58 8 -8 8 -22 -3 -54z m949 -25 c-16 -33 -48
-44 -48 -16 0 10 9 24 20 31 11 7 20 20 20 30 0 30 15 36 18 8 2 -14 -3 -38
-10 -53z m-740 17 c29 -18 43 -40 25 -40 -15 0 -73 40 -73 50 0 15 11 12 48
-10z m942 5 c0 -12 -28 -35 -44 -35 -14 0 -5 30 12 39 24 14 32 13 32 -4z
m-1040 -56 c-10 -34 -1 -65 30 -109 11 -16 20 -41 19 -57 l-1 -28 -12 28 c-11
25 -14 26 -25 13 -23 -28 -39 -18 -46 28 -11 70 12 175 35 161 5 -3 5 -18 0
-36z m1100 25 c0 -29 -20 -52 -55 -64 -51 -17 -64 -7 -22 17 20 12 42 31 49
42 15 25 28 27 28 5z m100 -13 c11 -22 13 -61 4 -85 -4 -11 -19 -16 -44 -16
-22 0 -43 -7 -51 -16 -11 -13 -9 -14 14 -9 31 8 32 5 12 -35 -17 -33 -30 -38
-39 -14 -18 48 2 122 47 172 25 27 43 28 57 3z m-1085 -86 c12 -29 15 -54 10
-72 l-8 -28 -12 30 c-19 44 -29 115 -17 115 6 0 18 -20 27 -45z m823 23 c-5
-14 -71 -23 -96 -13 -14 5 -14 7 -2 15 23 15 102 13 98 -2z m80 -88 c17 -11
32 -27 32 -37 0 -14 -4 -13 -25 7 -23 22 -26 22 -43 7 -23 -21 -36 -21 -52 -2
-35 42 30 60 88 25z m252 -34 c0 -19 9 -45 21 -60 27 -34 29 -118 4 -169 -18
-38 -58 -61 -97 -55 -22 3 -21 5 11 22 48 26 81 65 81 96 0 14 -13 66 -30 115
-36 105 -36 109 -10 95 14 -7 20 -21 20 -44z m96 -9 c13 5 15 2 9 -18 -15 -50
-39 -50 -50 1 -8 37 5 63 16 32 6 -15 13 -20 25 -15z m-1394 -43 c6 -13 8 -27
4 -32 -10 -9 -56 44 -56 64 0 22 38 -1 52 -32z m928 -23 c26 -9 70 -62 70 -84
0 -20 -35 0 -38 21 -2 13 -10 26 -18 29 -20 8 -46 -17 -41 -39 7 -26 -8 -22
-32 8 -27 34 -26 52 2 82 17 18 23 20 25 9 2 -9 16 -20 32 -26z m-804 14 c8
-20 -14 -72 -32 -79 -16 -6 -33 22 -26 44 6 20 33 50 44 50 5 0 11 -7 14 -15z
m642 -57 c17 -5 32 -12 32 -17 0 -18 -30 -32 -62 -29 -33 3 -33 3 -36 63 l-3
60 18 -35 c13 -24 28 -37 51 -42z m262 62 c12 -8 9 -10 -13 -10 -16 0 -26 4
-22 10 8 12 16 12 35 0z m148 -14 c3 -15 0 -18 -17 -13 -21 5 -39 -9 -27 -21
4 -3 24 -5 45 -4 43 3 53 -10 40 -45 -11 -31 -41 -29 -78 6 -35 33 -39 56 -14
83 20 23 46 20 51 -6z m1892 3 c49 -28 72 -67 64 -110 -9 -46 -31 -69 -66 -69
-60 0 -68 12 -68 104 0 107 4 112 70 75z m-2657 -9 c3 -11 14 -20 25 -20 29 0
46 -24 28 -39 -17 -14 -52 -7 -78 16 -14 12 -23 13 -49 4 -18 -6 -52 -11 -76
-11 l-45 0 7 -31 c6 -26 4 -30 -12 -27 -14 3 -18 12 -18 48 l0 45 63 0 c50 1
66 5 73 18 15 25 75 23 82 -3z m175 -7 c11 -20 -13 -113 -28 -113 -11 0 -25
104 -15 119 10 17 33 13 43 -6z m830 -51 c2 -18 -1 -32 -6 -32 -12 0 -34 49
-26 61 11 19 29 2 32 -29z m713 3 c186 -47 375 -136 467 -219 l23 -21 -33 -11
c-51 -17 -42 -37 17 -39 28 -1 101 -19 162 -39 159 -53 182 -87 122 -181 l-31
-48 11 -99 c12 -112 14 -195 4 -252 l-6 -38 -46 5 c-52 6 -182 47 -233 73 -18
9 -69 43 -113 74 -98 70 -135 90 -200 104 -39 9 -50 16 -50 31 0 12 10 23 26
29 23 8 47 -1 160 -57 188 -93 381 -144 405 -106 10 17 -12 26 -78 33 -69 8
-207 53 -270 88 -23 13 -48 34 -54 47 -16 31 -35 42 -103 55 -46 9 -57 15 -65
37 -12 34 24 114 83 184 65 78 55 85 -37 26 -33 -22 -68 -53 -76 -69 -8 -16
-22 -70 -31 -120 -19 -109 -17 -104 -65 -212 -21 -47 -43 -98 -50 -115 l-12
-30 -17 21 c-10 12 -30 61 -45 108 -25 77 -46 109 -62 93 -3 -3 9 -49 27 -104
41 -126 43 -196 7 -273 -29 -60 -38 -42 -13 25 18 51 18 65 1 65 -32 0 -64
-113 -75 -262 -6 -74 -12 -102 -26 -118 -24 -27 -171 -100 -200 -100 -12 0
-30 -10 -41 -21 -57 -64 -315 -103 -425 -64 -55 20 -82 44 -135 127 -49 74
-64 107 -73 158 -5 26 -12 36 -28 38 -13 2 -37 19 -55 38 -61 64 -67 29 -9
-57 49 -74 100 -196 108 -259 5 -41 1 -56 -21 -94 -47 -80 -187 -169 -267
-169 -29 0 -36 -3 -31 -15 5 -13 -7 -14 -89 -8 -51 4 -95 9 -98 12 -2 2 4 10
14 18 10 7 15 18 11 24 -3 6 -49 34 -100 62 -55 29 -109 67 -131 92 -40 43
-134 232 -163 324 -20 68 -49 77 -37 12 16 -89 15 -92 -35 -98 -42 -5 -45 -7
-51 -41 -3 -20 -15 -49 -27 -64 -43 -55 10 -45 82 15 26 22 52 40 57 40 12 0
62 -101 90 -185 43 -127 28 -277 -52 -525 -65 -199 -138 -321 -199 -333 -44
-9 -40 -37 5 -37 30 0 35 -3 35 -24 0 -29 -13 -40 -39 -31 -10 3 -57 53 -105
110 -47 58 -91 105 -96 105 -37 0 23 -92 171 -266 57 -66 152 -177 211 -246
60 -70 128 -143 153 -163 25 -21 45 -44 45 -52 0 -8 -3 -13 -7 -11 -5 2 -20
10 -35 17 -33 17 -66 8 -48 -13 6 -8 26 -18 43 -21 18 -4 50 -18 72 -32 58
-38 232 -183 290 -242 41 -43 48 -54 39 -69 -14 -22 -41 -27 -60 -11 -9 7 -33
47 -54 89 -43 86 -70 117 -70 81 0 -12 7 -36 16 -53 12 -23 16 -56 15 -117 -1
-134 36 -195 202 -334 97 -81 69 -97 -61 -34 -81 39 -112 68 -105 96 6 25 0
26 -33 4 -24 -15 -26 -15 -45 4 -11 11 -38 69 -60 129 -22 60 -52 127 -66 149
-15 22 -29 53 -33 69 -8 43 -30 45 -30 3 0 -20 15 -62 36 -102 20 -37 44 -91
54 -119 32 -93 62 -140 134 -210 70 -68 71 -68 36 -61 -90 19 -136 60 -209
191 -60 108 -91 141 -91 96 0 -22 93 -173 156 -254 42 -53 44 -58 23 -58 -48
0 -187 180 -239 310 -27 65 -60 93 -60 51 0 -30 73 -172 131 -257 27 -39 49
-73 49 -77 0 -4 -11 -7 -24 -7 -36 0 -91 70 -127 164 -29 75 -47 150 -81 346
-13 75 -13 75 -45 75 -22 1 -52 17 -107 59 -95 73 -272 247 -312 306 -37 56
-78 154 -100 238 -15 61 -15 66 5 132 12 38 26 103 31 145 16 123 56 269 71
259 15 -9 39 62 38 113 l-1 48 -10 -37 c-6 -21 -15 -38 -20 -38 -14 0 -4 208
12 263 13 43 40 51 40 11 0 -14 -7 -57 -17 -95 -16 -67 -13 -93 8 -72 6 6 19
43 29 82 10 39 25 83 34 97 16 23 16 25 -8 34 -34 12 -46 39 -52 113 -8 84 12
348 31 422 24 95 139 318 181 352 19 15 51 42 71 60 28 26 41 31 64 26 22 -4
29 -2 29 10 0 19 117 139 161 166 l33 20 32 -29 c41 -35 120 -65 254 -96 130
-30 150 -30 186 -2 21 17 43 23 87 25 33 1 61 4 64 7 3 3 9 26 14 52 20 107
143 338 177 332 9 -2 18 -12 20 -23 6 -29 22 -45 44 -45 15 0 18 5 13 19 -8
27 15 37 97 44 53 4 78 11 116 36 54 34 82 39 82 15 0 -24 -119 -138 -237
-227 -109 -82 -139 -115 -123 -131 6 -6 19 -1 37 15 16 14 59 47 97 74 37 26
122 99 187 161 101 98 139 128 139 110 0 -2 -9 -25 -20 -51 -27 -62 -35 -143
-18 -175 15 -28 86 -55 171 -66 69 -9 54 9 -29 36 -85 29 -104 47 -104 104 0
63 12 87 75 156 30 33 55 68 55 79 0 24 65 57 152 76 99 21 200 18 309 -10z
m-833 -13 c4 -26 -16 -65 -29 -57 -10 7 -12 68 -2 79 12 11 28 0 31 -22z
m-1109 -78 c24 -17 28 -44 7 -44 -20 0 -60 86 -51 108 6 13 9 10 15 -16 4 -19
17 -40 29 -48z m3041 34 c41 -67 32 -147 -29 -278 l-31 -65 6 180 c4 99 8 183
11 188 9 15 24 6 43 -25z m-2842 5 c5 -16 -39 -33 -84 -33 -45 0 -41 20 7 37
40 15 71 13 77 -4z m1122 2 c0 -16 -27 -32 -37 -22 -3 4 -3 13 0 22 8 20 37
20 37 0z m-686 -20 c-6 -23 -3 -25 24 -25 39 0 49 -15 21 -30 -24 -13 -66 -5
-91 17 -16 15 -20 14 -39 -3 -17 -15 -22 -16 -29 -4 -12 20 -3 30 28 30 15 0
41 9 57 20 37 25 37 25 29 -5z m-305 -40 c44 -48 50 -65 26 -85 -21 -18 -45
-5 -45 24 0 17 -12 34 -35 52 -41 31 -45 54 -11 54 15 0 38 -16 65 -45z m561
-4 c0 -11 -4 -23 -10 -26 -6 -4 -10 5 -10 19 0 14 5 26 10 26 6 0 10 -9 10
-19z m-639 -67 c27 -44 17 -54 -54 -54 -42 0 -49 3 -58 27 -15 39 -8 59 20 55
21 -3 23 -1 17 23 l-7 27 30 -21 c16 -12 40 -37 52 -57z m713 39 c20 8 21 -1
0 -24 -22 -25 -44 -13 -44 24 0 28 1 29 14 12 8 -11 19 -16 30 -12z m-218 -58
c-8 -13 -29 -26 -45 -30 -16 -3 -37 -15 -47 -26 -25 -28 -34 -23 -22 11 11 34
71 85 87 75 6 -3 16 4 23 15 l13 21 3 -21 c2 -12 -3 -32 -12 -45z m-667 -41
c-14 -17 -65 -19 -75 -3 -3 6 13 31 37 55 l44 45 3 -41 c2 -23 -2 -48 -9 -56z
m531 38 c0 -15 -9 -42 -20 -59 -23 -39 -44 -45 -30 -9 4 13 14 42 20 65 12 45
30 47 30 3z m2286 21 c15 -15 16 -34 11 -154 -6 -151 -17 -188 -59 -203 -63
-22 -102 32 -78 108 7 23 13 59 14 82 1 37 3 40 25 36 30 -6 25 18 -7 33 -30
13 -29 46 1 42 16 -1 22 3 22 18 0 13 -8 21 -22 23 -23 3 -29 13 -16 25 14 14
92 7 109 -10z m-2628 -98 c39 -32 56 -76 47 -117 -4 -18 -9 -59 -12 -90 -3
-41 -9 -58 -19 -58 -8 0 -14 6 -14 13 0 20 -29 43 -72 56 -47 16 -66 6 -42
-20 16 -18 16 -19 1 -14 -48 19 -35 176 20 237 22 25 56 22 91 -7z m115 -7
c27 -36 33 -113 13 -162 -18 -43 -21 -76 -6 -76 5 0 25 16 45 37 19 20 38 34
41 30 18 -18 -45 -107 -77 -107 -30 0 -46 48 -51 150 -3 53 -10 106 -17 118
-25 47 18 56 52 10z m102 12 c17 -18 17 -21 -2 -52 -28 -48 -53 -49 -53 -3 0
37 14 75 29 75 4 0 16 -9 26 -20z m-386 -9 c11 -7 9 -11 -8 -21 -13 -6 -30 -9
-39 -5 -15 6 -15 8 2 21 23 16 26 17 45 5z m598 -48 c-13 -14 -20 -14 -47 -3
-43 18 -50 34 -12 25 17 -3 39 -2 49 4 24 13 31 -6 10 -26z m-107 -18 c18 -22
6 -43 -22 -38 -15 3 -29 -2 -37 -11 -17 -20 -31 -20 -31 -1 0 20 44 65 63 65
8 0 20 -7 27 -15z m68 -62 c4 -29 -44 -83 -75 -83 l-25 0 29 38 c17 20 33 45
36 55 9 24 31 17 35 -10z m2215 -159 c26 -4 44 -11 41 -15 -11 -18 -184 -6
-184 12 0 10 77 12 143 3z m3 -121 c-28 -172 -158 -1683 -196 -2278 -33 -518
-69 -982 -105 -1355 -21 -228 -43 -504 -60 -770 -33 -524 -96 -1610 -115
-1995 -23 -464 -47 -836 -60 -940 -5 -38 -10 -77 -10 -86 0 -8 -13 -30 -28
-47 -26 -29 -30 -30 -48 -18 -24 18 -24 68 -1 381 22 304 33 502 57 1035 36
791 58 1146 130 2090 22 283 51 700 65 925 23 365 45 657 115 1530 11 138 31
360 45 495 13 135 34 373 46 530 24 316 31 353 69 358 14 2 31 9 38 15 11 9
11 13 -4 24 -10 7 -28 13 -40 13 -32 0 -48 24 -40 62 10 52 32 68 93 68 l55 0
-6 -37z m88 -42 c19 -64 19 -71 6 -71 -17 0 -40 58 -40 102 0 53 13 41 34 -31z
m-718 -54 c25 -22 27 -47 4 -47 -12 0 -70 50 -70 61 0 17 39 9 66 -14z m-135
-6 c20 -16 24 -27 22 -68 -1 -27 2 -55 8 -63 8 -13 12 -11 29 9 l20 23 0 -27
c0 -18 -6 -29 -20 -32 -19 -5 -19 -7 -3 -37 41 -79 30 -616 -18 -835 -11 -51
-45 -101 -69 -101 -18 0 -11 19 27 75 20 31 34 58 31 61 -12 12 -158 -123
-158 -146 0 -3 16 -4 35 -2 34 4 35 3 35 -30 0 -45 8 -52 31 -25 12 16 21 19
29 11 7 -7 -6 -30 -50 -79 -73 -82 -88 -125 -72 -196 17 -74 60 -157 88 -172
24 -12 24 -14 7 -29 -35 -32 -286 -98 -369 -98 -84 0 -158 -70 -242 -228 -49
-90 -124 -184 -137 -170 -3 2 8 23 24 45 17 23 44 66 62 97 31 56 31 57 13 78
-26 29 -94 56 -172 69 -60 10 -73 9 -123 -10 -67 -26 -135 -81 -154 -127 -18
-44 -160 -186 -204 -204 -31 -12 -37 -12 -70 7 -45 26 -96 99 -116 166 -23 76
-20 213 5 260 22 40 26 72 9 61 -19 -11 -59 -107 -59 -142 0 -18 -6 -35 -14
-38 -23 -9 -139 50 -169 85 -38 45 -35 82 18 215 25 63 45 126 45 139 0 59 30
75 66 36 10 -12 40 -32 65 -45 26 -12 49 -31 51 -41 3 -10 1 -47 -3 -82 -4
-35 -5 -70 -2 -78 14 -37 43 12 43 73 0 39 15 72 39 91 26 20 134 40 351 67
370 45 396 43 431 -24 24 -44 24 -79 -1 -160 -24 -79 -25 -108 -4 -139 9 -13
17 -33 18 -45 1 -15 8 -21 26 -21 31 0 38 29 14 57 -17 18 -18 36 -16 168 3
120 0 154 -12 179 -9 16 -16 34 -16 39 0 6 26 10 58 9 64 0 102 9 102 25 0 7
-17 9 -45 6 -84 -10 -51 19 93 82 98 42 222 110 222 121 0 3 -19 3 -42 -1 -56
-11 -72 0 -94 60 -18 49 -58 99 -70 87 -4 -3 5 -27 20 -53 29 -53 33 -92 11
-133 -16 -32 -33 -41 -78 -41 -22 0 -56 -16 -105 -50 -80 -54 -110 -64 -92
-30 16 29 -11 26 -40 -5 -35 -38 -112 -59 -215 -60 -80 0 -94 3 -122 24 -19
14 -38 21 -48 17 -16 -6 -16 -8 0 -32 14 -22 15 -28 4 -35 -13 -8 -47 -3 -58
8 -3 2 0 30 7 61 7 32 12 71 12 88 0 16 7 38 15 48 18 23 11 36 -18 36 -13 0
-35 15 -54 37 -39 47 -51 39 -24 -16 12 -22 21 -46 21 -53 0 -7 9 -29 19 -49
19 -35 19 -36 0 -52 -10 -9 -19 -27 -19 -39 -1 -46 -46 -77 -138 -97 -106 -22
-171 -9 -204 41 -9 13 -25 57 -36 97 -12 40 -28 81 -36 90 -8 9 -18 33 -21 54
-4 22 -11 34 -15 27 -14 -23 24 -190 61 -262 15 -29 16 -38 6 -38 -20 0 -60
48 -93 108 -17 32 -45 65 -69 82 -49 34 -92 80 -132 140 -51 78 -49 77 36 -10
101 -103 116 -93 37 26 -31 46 -56 86 -56 89 0 3 10 0 23 -7 12 -7 63 -15 112
-18 84 -5 90 -7 93 -27 4 -27 10 -28 40 -7 15 10 22 24 20 41 -3 21 2 26 25
29 16 1 69 23 119 48 127 64 188 59 188 -15 0 -45 -16 -66 -56 -73 -45 -9 -84
-26 -84 -39 0 -12 94 1 143 20 43 18 57 38 57 83 0 32 -7 41 -84 103 -29 23
-29 23 -18 87 6 34 13 65 16 67 2 2 28 -14 57 -36 28 -21 68 -42 87 -46 l36
-7 -37 -33 c-41 -38 -44 -53 -22 -116 30 -83 58 -93 180 -64 95 23 136 20 180
-15 42 -34 46 -35 63 -18 55 55 -85 99 -244 78 -100 -13 -121 -8 -150 35 -20
30 -7 58 39 81 18 9 40 25 50 35 21 23 43 24 81 4 40 -21 60 -19 94 10 27 23
30 23 52 8 19 -13 25 -14 28 -4 10 30 42 48 103 60 80 16 124 39 170 88 73 78
108 130 134 198 24 66 108 226 141 270 12 17 16 17 29 5 8 -8 22 -44 31 -79
23 -91 12 -119 -85 -224 -70 -75 -81 -92 -91 -140 -6 -30 -10 -82 -8 -114 3
-55 4 -57 16 -30 6 16 15 60 19 99 7 79 25 108 98 158 54 37 81 74 96 133 11
39 10 57 -10 139 -34 135 -33 163 7 199 38 34 61 36 93 10z m336 -161 c68 -22
144 -43 169 -47 25 -3 48 -12 51 -20 3 -8 1 -76 -5 -151 -7 -75 -17 -211 -22
-302 -6 -91 -27 -309 -45 -485 -61 -569 -70 -680 -120 -1525 -19 -322 -44
-695 -55 -830 -35 -437 -39 -489 -70 -934 -31 -442 -42 -586 -45 -586 0 0 -50
29 -111 65 -60 36 -182 102 -271 146 l-163 80 0 38 c0 88 23 314 40 402 11 52
51 184 90 293 93 259 147 446 165 572 23 152 69 276 155 420 66 108 105 194
127 274 23 89 23 290 -1 435 -26 163 -91 407 -132 499 -65 147 -64 131 -17
171 63 53 87 98 79 145 -10 64 -46 149 -77 185 -38 43 -37 63 5 283 60 308 61
317 59 607 -2 148 0 278 3 287 8 28 54 22 191 -22z m-2216 -789 c5 -13 7 -26
4 -30 -7 -6 -9 -3 -56 79 l-31 55 37 -40 c20 -22 41 -51 46 -64z m-39 -129
c17 -26 55 -77 85 -115 71 -89 93 -137 93 -212 0 -64 -29 -183 -59 -244 -10
-20 -21 -63 -25 -95 -11 -100 -61 -188 -126 -221 -43 -21 -104 -26 -127 -10
-55 39 -183 249 -183 300 0 11 16 56 36 100 85 193 126 302 170 456 25 90 48
168 51 173 3 4 16 -13 29 -39 13 -25 38 -68 56 -93z m258 -260 c0 -12 -4 -11
-21 4 -11 10 -25 27 -31 37 -8 16 -5 15 21 -4 17 -12 31 -29 31 -37z m1666 23
c98 -81 125 -235 50 -287 -19 -13 -36 -9 -36 10 0 9 -4 23 -9 31 -8 12 -12 12
-25 2 -23 -20 -41 -8 -54 37 -23 77 -7 242 24 242 4 0 26 -16 50 -35z m18
-477 c36 -63 55 -139 62 -247 6 -84 10 -99 30 -116 32 -27 54 -150 61 -335 8
-217 -31 -396 -103 -467 -71 -72 -92 -30 -73 147 17 154 16 204 -6 356 -9 65
-15 143 -12 172 5 48 4 52 -15 52 -11 0 -27 8 -35 18 -13 15 -14 7 -9 -69 3
-48 14 -129 25 -180 34 -170 34 -183 1 -317 -16 -68 -30 -133 -30 -144 0 -20
1 -20 19 -4 40 37 37 -18 -23 -344 -73 -396 -104 -495 -266 -840 -78 -166
-110 -241 -110 -261 0 -23 20 -4 49 49 25 44 31 50 27 27 -4 -16 -9 -118 -13
-226 -6 -189 -5 -199 21 -300 45 -180 78 -370 83 -489 5 -101 1 -142 -31 -335
-36 -217 -193 -884 -208 -885 -26 0 3 197 67 475 55 237 68 310 60 336 -10 31
-29 17 -37 -27 -5 -21 -33 -164 -64 -317 -73 -366 -76 -395 -52 -532 14 -83
18 -148 16 -265 l-3 -155 -23 74 c-14 42 -33 83 -48 96 -30 28 -31 47 -1 43
14 -2 22 2 22 12 0 11 -8 14 -28 12 -16 -2 -40 4 -54 13 -14 9 -27 15 -29 12
-2 -2 20 -55 50 -118 34 -70 69 -164 90 -242 19 -71 42 -137 51 -147 20 -22
14 -50 -10 -50 -24 0 -72 27 -79 45 -3 8 -3 35 0 59 6 42 6 44 -19 39 -14 -3
-36 2 -51 12 -40 26 -42 12 -6 -50 39 -68 52 -162 26 -184 -9 -7 -16 -12 -17
-10 -1 2 -3 20 -4 40 -7 78 -105 279 -105 216 0 -9 11 -62 25 -119 32 -133 33
-160 3 -156 -19 2 -23 9 -21 32 1 17 -4 34 -13 41 -10 7 -19 38 -25 89 -8 75
-28 126 -49 126 -15 0 -11 -115 5 -190 8 -36 14 -77 15 -92 0 -25 -4 -28 -33
-28 -33 0 -77 23 -77 41 0 5 18 9 40 9 22 0 40 5 40 11 0 22 -21 47 -45 53
-16 4 -25 13 -25 26 0 38 -30 22 -36 -20 -4 -24 -11 -39 -18 -37 -14 5 -12
115 3 130 8 8 11 8 11 -1 0 -19 21 -14 47 10 34 32 29 48 -14 48 -21 0 -51 7
-67 15 l-29 15 7 -41 7 -41 -47 7 c-41 6 -45 5 -42 -12 2 -10 13 -19 26 -21
27 -4 37 -22 46 -82 4 -25 10 -56 13 -69 4 -17 2 -22 -6 -17 -6 4 -42 2 -79
-4 -48 -9 -75 -9 -94 -1 -34 13 -35 25 -4 65 13 17 37 59 54 93 18 34 66 122
108 195 114 197 134 246 144 352 5 50 16 111 25 136 10 27 20 101 25 183 5 77
14 161 21 188 11 41 9 92 -10 326 -12 153 -26 384 -31 513 -9 216 -15 275 -35
323 -5 12 -2 17 10 17 9 0 19 -9 22 -20 3 -12 11 -19 17 -17 21 7 17 62 -9
120 -14 32 -25 66 -25 77 0 10 -18 53 -40 95 -41 78 -39 90 11 54 48 -34 36 0
-28 82 l-58 74 2 183 c1 102 -2 182 -7 182 -10 0 -23 -58 -18 -80 2 -8 -4 -15
-12 -15 -19 0 -18 23 3 144 9 52 17 114 17 138 0 36 -3 43 -20 43 -14 0 -20 7
-20 23 0 57 74 456 116 622 17 66 18 68 26 40 24 -80 41 -115 55 -115 10 0 13
6 9 17 -14 36 -25 165 -32 368 -7 238 0 301 48 404 46 100 88 202 88 215 0 6
-14 -6 -31 -27 -30 -37 -52 -46 -64 -27 -8 13 0 26 120 215 56 88 125 198 153
245 58 97 100 140 157 162 22 9 110 28 195 43 85 15 157 29 159 31 2 2 19 4
37 4 28 0 37 -6 58 -42z m-1696 -133 c75 -38 75 -38 131 -169 12 -28 34 -66
48 -85 23 -30 28 -47 30 -113 3 -63 -1 -86 -17 -118 -24 -47 -25 -77 -4 -101
15 -17 14 -19 -17 -38 -19 -12 -37 -21 -40 -21 -3 0 -21 19 -40 43 -18 23
-118 130 -221 237 -204 213 -234 248 -223 258 3 4 59 9 123 12 116 6 117 6 28
28 l-29 7 58 48 c31 26 67 47 80 47 12 0 54 -16 93 -35z m658 -43 c-40 -80
-54 -125 -101 -331 -19 -85 -44 -174 -56 -197 -26 -55 -74 -97 -155 -137 -73
-36 -82 -52 -23 -43 58 9 148 58 190 103 43 44 51 68 79 223 25 137 44 195 73
215 19 13 20 18 9 35 -11 17 -9 28 6 63 26 58 95 127 128 127 25 0 24 -2 -26
-57 -30 -34 -56 -76 -65 -103 -7 -25 -25 -72 -39 -106 -14 -34 -30 -98 -35
-145 -5 -47 -17 -105 -27 -130 -47 -122 -149 -218 -254 -240 -122 -25 -169
-67 -62 -55 64 7 93 -3 68 -23 -8 -7 -53 -13 -110 -14 -120 -3 -131 5 -131 96
l0 62 40 18 c22 11 61 36 87 58 54 45 68 50 39 13 -45 -58 -7 -61 41 -4 45 52
84 133 103 212 28 115 45 166 62 179 15 12 16 12 9 -6 -4 -11 -18 -79 -31
-151 -13 -72 -30 -145 -39 -162 -9 -18 -45 -55 -81 -83 -87 -70 -96 -97 -22
-65 46 19 110 89 147 158 25 46 35 83 46 161 21 162 73 308 132 370 14 15 27
27 29 27 2 0 -12 -31 -31 -68z m217 -44 c-51 -93 -84 -176 -123 -313 -41 -139
-97 -260 -145 -313 -37 -42 -152 -119 -161 -109 -3 3 17 23 45 46 28 22 63 53
76 69 40 47 81 147 115 277 34 130 82 250 131 326 31 49 87 104 96 95 3 -3
-13 -38 -34 -78z m-1814 -205 c105 -88 223 -208 242 -245 15 -30 25 -38 47
-38 15 0 32 -4 38 -8 21 -14 41 -68 48 -129 4 -34 18 -95 31 -134 38 -109 33
-130 -30 -143 -46 -9 -136 9 -152 30 -9 12 -13 39 -11 74 3 53 4 55 46 78 48
27 54 42 17 42 -40 0 -92 -26 -111 -55 -19 -30 -15 -120 10 -179 19 -46 56
-57 192 -53 108 2 111 1 154 -28 l44 -30 216 3 c175 3 224 0 260 -12 62 -21
72 -20 103 12 41 43 35 79 -19 113 -57 35 -40 62 46 71 62 7 93 -3 100 -32 4
-17 20 -33 50 -48 67 -33 75 -44 53 -71 -13 -16 -39 -25 -96 -35 -86 -15 -121
-37 -114 -73 5 -27 3 -28 -28 -7 -18 12 -37 15 -68 10 -33 -5 -47 -3 -57 9
-16 19 -60 19 -191 -1 -86 -13 -157 -15 -404 -10 -165 3 -357 9 -426 12 l-125
7 -25 -49 c-14 -27 -38 -74 -54 -104 -21 -39 -30 -72 -33 -117 -3 -35 0 -63 5
-63 5 0 19 33 32 73 27 85 58 141 98 180 29 27 30 27 48 7 17 -19 19 -19 31
-2 13 16 15 16 29 -2 8 -11 15 -34 15 -52 0 -38 9 -64 21 -64 5 0 9 25 9 55 0
90 15 73 71 -77 16 -43 36 -89 44 -102 24 -35 48 -260 42 -381 -3 -55 -14
-138 -25 -185 -41 -176 -47 -253 -47 -605 1 -315 2 -348 24 -445 12 -58 34
-133 48 -168 26 -66 26 -101 2 -194 -12 -48 -22 -50 -264 -46 l-190 3 45 27
45 28 -31 0 c-43 0 -315 -71 -459 -119 -112 -39 -187 -50 -210 -33 -6 4 -16
19 -22 35 -16 35 -32 34 -46 -3 -11 -29 -27 -41 -27 -20 0 6 -35 10 -91 9 -81
-1 -93 1 -115 22 -13 12 -24 32 -24 43 0 19 1 19 20 -2 29 -31 66 -28 87 6 9
15 18 29 20 31 2 3 35 8 74 12 42 5 79 15 89 24 10 9 33 20 51 25 32 9 61 31
209 155 36 30 101 73 145 96 122 62 128 70 165 209 18 67 21 99 16 153 -10
107 -50 281 -131 573 -42 148 -82 307 -90 354 -25 141 -39 423 -25 510 22 138
22 155 -2 266 -19 91 -23 138 -23 284 0 205 6 224 88 285 73 55 209 122 276
136 57 11 81 24 81 42 0 6 -20 7 -56 3 -37 -4 -53 -3 -49 4 5 9 170 98 184 99
2 1 29 -20 60 -46z m1831 -26 c0 -8 -9 -22 -21 -33 -17 -16 -22 -16 -29 -4
-11 18 -13 34 -3 43 12 12 53 7 53 -6z m-565 -45 c6 -17 -19 -120 -42 -167
-20 -43 -39 -50 -72 -28 -24 16 -25 18 -6 21 31 6 45 22 45 52 0 15 9 39 20
53 25 32 25 44 1 52 -31 10 -46 32 -31 49 10 13 16 13 45 -1 19 -9 37 -23 40
-31z m72 -4 c-6 -43 -43 -145 -59 -163 -6 -6 -7 -4 -4 5 3 8 12 44 21 80 27
112 53 161 42 78z m413 -219 c0 -12 -7 -19 -20 -19 -19 0 -28 28 -14 43 11 11
34 -5 34 -24z m-50 -114 c0 -20 -5 -25 -25 -25 -18 0 -25 5 -25 18 0 24 8 32
32 32 13 0 18 -7 18 -25z m-686 -27 c20 -28 23 -152 4 -146 -19 6 -38 48 -38
83 0 17 -4 36 -9 44 -14 21 -24 -6 -23 -58 l2 -46 -20 30 c-25 38 -26 90 -2
104 30 18 70 13 86 -11z m614 -75 c-2 -28 -8 -39 -22 -41 -17 -4 -35 12 -36
31 0 11 38 47 51 47 6 0 9 -16 7 -37z m-78 -82 c0 -22 -30 -35 -60 -26 -18 6
-20 2 -20 -39 0 -25 -3 -46 -6 -46 -3 0 -23 14 -45 32 l-39 32 -21 -22 c-23
-26 -29 -27 -54 -8 -18 13 -16 15 26 36 58 30 146 58 187 59 25 1 32 -3 32
-18z m105 -21 c8 -24 -12 -384 -25 -466 -6 -32 -10 -60 -10 -61 0 -2 -4 -3
-10 -3 -5 0 -14 17 -19 38 -18 64 -43 313 -39 386 4 64 6 71 38 97 40 34 56
36 65 9z m-236 -196 c-42 -58 -89 -84 -149 -83 l-45 1 30 13 c17 8 41 14 55
15 17 0 43 18 80 55 29 30 56 53 58 50 3 -2 -11 -25 -29 -51z m91 -53 c0 -12
-56 -25 -70 -16 -22 13 -8 25 30 25 22 0 40 -4 40 -9z m-1247 -100 c20 -22 66
-86 103 -143 62 -95 68 -101 77 -80 15 33 -8 119 -43 164 -18 22 -26 39 -20
43 13 8 112 -4 130 -15 10 -6 7 -16 -14 -41 -45 -54 -11 -46 49 10 30 28 61
51 69 51 21 0 21 -2 -15 -60 -48 -78 -29 -83 41 -10 63 64 63 65 39 21 -34
-61 -87 -121 -108 -121 -9 0 -22 5 -29 12 -10 10 -16 9 -28 -4 -37 -37 9 -68
136 -94 100 -20 150 -15 291 27 60 18 129 32 163 33 53 1 60 -2 80 -27 33 -44
28 -202 -13 -437 -42 -238 -50 -416 -27 -555 26 -151 72 -326 117 -438 21 -54
39 -110 39 -124 0 -14 -15 -43 -35 -66 -41 -47 -46 -91 -15 -130 11 -14 64
-48 117 -75 169 -87 228 -169 243 -334 5 -51 14 -108 20 -126 7 -18 9 -36 5
-40 -3 -4 -138 -8 -298 -9 -282 -2 -350 7 -162 21 50 4 144 14 210 22 218 27
267 53 67 35 -66 -6 -197 -11 -292 -11 -165 0 -171 1 -190 23 -11 12 -37 40
-57 63 -21 23 -62 75 -91 117 -89 130 -180 180 -355 197 -56 5 -121 12 -143
15 l-42 6 -31 107 c-43 147 -60 274 -67 497 -8 230 6 452 42 658 36 206 31
378 -14 542 -89 326 -88 315 -23 315 32 0 44 -6 74 -39z m557 7 c0 -6 -16 -41
-36 -77 -36 -65 -41 -105 -20 -153 6 -14 3 -18 -11 -18 -30 0 -130 32 -115 37
7 3 26 32 43 65 29 58 112 158 130 158 5 0 9 -5 9 -12z m150 -69 c-22 -66 -36
-89 -51 -89 -14 0 -11 57 5 93 16 38 58 85 63 70 2 -6 -6 -39 -17 -74z m390
73 c0 -7 -65 -33 -91 -36 -18 -2 -9 21 12 31 27 14 79 17 79 5z m160 -7 c8
-10 16 -78 23 -188 9 -157 8 -184 -12 -317 -54 -354 -37 -626 70 -1089 47
-204 49 -226 26 -391 -26 -192 -28 -200 -38 -194 -5 3 -26 31 -46 62 -143 223
-261 480 -308 668 -40 160 -48 257 -42 466 4 145 13 241 36 383 33 203 36 250
22 288 -5 13 -16 47 -25 75 -12 42 -12 52 -2 52 26 0 59 -100 64 -192 2 -49 8
-88 12 -88 15 0 30 62 30 120 0 83 -23 150 -72 204 -32 38 -38 50 -27 56 21
13 162 50 191 50 16 0 32 9 42 25 19 28 38 32 56 10z m-610 -10 c0 -27 -42
-125 -65 -154 -22 -26 -23 -29 -7 -44 15 -16 14 -17 -11 -17 -47 0 -53 32 -19
103 42 90 102 156 102 112z m295 1 c37 -27 -8 -66 -78 -66 -17 0 -40 9 -53 21
l-22 20 -6 -34 c-8 -41 -29 -62 -52 -53 -20 8 -13 60 13 88 32 35 161 51 198
24z m-45 -116 c0 -12 -94 -40 -134 -40 -41 1 -18 14 56 34 65 18 78 19 78 6z
m1187 -1545 c23 -20 26 -26 13 -34 -12 -8 -12 -15 -2 -44 17 -48 16 -63 -3
-47 -18 15 -50 80 -60 123 -9 35 13 36 52 2z m49 -202 c-6 -16 50 -83 70 -83
23 0 16 16 -18 45 -28 24 -30 28 -15 37 9 5 17 16 17 24 0 11 9 14 33 12 24
-2 32 -8 32 -23 0 -16 -6 -20 -27 -18 -36 2 -35 -9 3 -42 36 -30 76 -31 71 -1
-3 17 -2 17 20 2 54 -38 113 -4 101 58 -6 28 -5 30 10 18 9 -8 17 -23 19 -35
2 -18 11 -23 48 -27 44 -5 45 -6 44 -40 0 -19 -8 -188 -18 -375 -9 -187 -23
-475 -32 -639 -8 -165 -16 -301 -18 -303 -4 -4 -226 452 -279 572 -50 115 -54
147 -67 455 -5 140 -14 284 -19 319 -6 36 -8 68 -5 73 9 13 36 -13 30 -29z
m241 -16 c7 -45 -12 -50 -21 -6 -3 17 -6 39 -6 47 0 29 20 -3 27 -41z m501
-81 c37 -19 59 -20 65 -3 8 19 44 -30 67 -91 11 -30 18 -58 15 -63 -4 -5 5 -9
18 -9 27 0 61 -32 77 -74 15 -39 5 -44 -28 -14 -170 158 -233 212 -269 229
-53 26 -61 35 -69 89 l-7 45 50 -46 c27 -26 64 -54 81 -63z m-1792 50 c38 -38
41 -48 18 -67 -14 -11 -16 -10 -12 11 2 21 -2 26 -24 28 -32 4 -53 26 -44 47
8 23 25 18 62 -19z m-2861 -18 c-49 -79 -60 -111 -60 -178 0 -53 6 -77 32
-131 65 -132 150 -220 253 -262 l55 -22 905 0 905 0 83 -89 c46 -48 92 -102
103 -120 24 -40 24 -108 0 -163 -26 -56 -55 -63 -261 -63 -91 0 -172 -5 -180
-10 -10 -7 22 -10 100 -11 63 -1 156 -4 205 -8 81 -5 90 -8 90 -26 0 -15 -9
-21 -40 -27 -58 -11 -1345 -9 -1655 2 -258 9 -310 14 -310 30 0 17 58 20 385
21 340 1 452 7 427 22 -7 5 -185 11 -396 14 l-384 6 5 73 c7 93 -7 122 -136
289 -178 229 -200 281 -201 458 0 68 5 128 11 140 11 21 79 97 87 97 2 0 -9
-19 -23 -42z m3195 -37 c0 -11 -4 -23 -10 -26 -6 -4 -10 5 -10 19 0 14 5 26
10 26 6 0 10 -9 10 -19z m1493 -159 c241 -198 361 -353 442 -572 25 -65 28
-90 29 -190 1 -82 -4 -135 -18 -185 -39 -150 -130 -292 -199 -313 -17 -6 -107
-13 -199 -16 -92 -3 -189 -11 -215 -16 -71 -16 -73 -14 -73 95 0 52 2 95 4 95
2 0 23 -7 47 -16 33 -13 76 -16 176 -15 l131 1 31 -55 c29 -51 52 -67 65 -46
4 5 -9 40 -28 78 -42 83 -55 148 -32 156 26 10 18 36 -11 43 -57 12 -99 27
-153 54 -85 43 -165 45 -180 4 -13 -33 -36 -25 -33 12 1 16 9 117 17 224 8
107 23 326 32 487 12 199 21 290 28 286 6 -4 69 -54 139 -111z m-1478 -162 c9
-102 15 -208 13 -235 l-3 -50 -18 55 c-14 42 -20 100 -24 245 -7 246 9 238 32
-15z m-1268 109 c6 -6 61 -19 123 -29 62 -11 129 -28 149 -38 42 -22 95 -91
89 -118 -4 -16 -9 -14 -41 19 -45 47 -117 80 -228 107 -105 26 -129 36 -129
55 0 17 21 20 37 4z m-772 -109 c15 -6 9 -9 -25 -9 -34 0 -40 3 -25 9 11 5 22
9 25 9 3 0 14 -4 25 -9z m160 0 c16 -7 11 -9 -20 -9 -29 -1 -36 2 -25 9 17 11
19 11 45 0z m1081 -195 c14 -37 15 -52 6 -83 -6 -21 -9 -62 -5 -95 5 -46 2
-61 -11 -76 -14 -16 -33 -128 -36 -215 0 -4 -7 -5 -16 -2 -15 6 -16 -1 -10
-56 6 -58 5 -61 -9 -43 -48 61 -39 191 16 235 18 15 19 17 3 58 -15 36 -15 48
-5 84 7 23 14 78 16 123 3 123 21 147 51 70z m1473 -100 l-1 -30 -13 30 c-8
17 -14 44 -14 60 l1 30 13 -30 c8 -16 14 -43 14 -60z m-3684 -167 c29 -56 33
-132 9 -166 -28 -40 -44 -11 -44 79 0 71 -3 85 -40 156 l-40 78 46 -50 c24
-27 56 -71 69 -97z m2904 136 c38 -4 60 -11 58 -18 -8 -23 -142 -29 -404 -18
-258 10 -335 21 -243 33 63 8 514 10 589 3z m133 -48 c-9 -18 -11 -16 -11 19
0 33 1 37 10 21 8 -12 8 -25 1 -40z m623 -49 c1 -74 14 -99 40 -77 14 12 18
11 26 -1 14 -23 4 -34 -32 -34 -48 0 -47 -21 4 -83 25 -30 65 -91 91 -137 26
-46 61 -101 77 -122 36 -45 22 -56 -26 -19 l-34 26 -3 -23 c-2 -16 -10 -23
-33 -25 -50 -4 -61 9 -46 58 10 33 10 45 0 56 -15 18 -65 15 -61 -3 4 -25 -17
-12 -51 30 -61 75 -74 120 -38 132 16 5 19 12 14 40 -8 47 14 98 39 92 22 -6
24 21 3 49 -20 26 -20 74 0 74 13 0 15 8 10 38 -5 33 -5 35 7 17 7 -11 13 -50
13 -88z m69 27 c17 -36 15 -57 -4 -38 -14 14 -31 74 -21 74 4 0 15 -16 25 -36z
m-751 -19 c23 -10 21 -21 -5 -29 -37 -9 -568 -20 -631 -12 -60 8 -84 28 -56
48 16 11 664 5 692 -7z m17 -171 l0 -86 -357 4 c-255 3 -366 7 -387 16 -27 12
-28 15 -22 59 7 56 27 81 70 86 17 2 181 5 364 5 l332 2 0 -86z m794 11 c-5
-19 2 -34 30 -67 20 -23 63 -94 95 -158 33 -63 78 -146 100 -185 23 -38 41
-74 41 -80 -2 -45 -290 417 -290 465 0 14 5 31 12 38 17 17 19 15 12 -13z
m-727 -77 c-2 -18 -4 -4 -4 32 0 36 2 50 4 33 2 -18 2 -48 0 -65z m-3107 -33
c9 -11 10 -19 2 -27 -14 -14 -32 -1 -32 23 0 23 13 25 30 4z m3044 -34 c18 -7
19 -8 2 -14 -34 -13 -746 -28 -768 -16 -29 16 -11 27 52 32 106 7 695 6 714
-2z m-907 -73 c-5 -40 -3 -56 10 -70 15 -17 15 -18 -9 -18 -38 0 -45 37 -21
123 2 9 9 17 15 17 7 0 9 -18 5 -52z m-2122 2 c0 -22 -29 -18 -33 3 -3 14 1
18 15 15 10 -2 18 -10 18 -18z m3045 -10 c9 -16 6 -22 -17 -37 -25 -16 -59
-18 -408 -18 -366 0 -430 4 -409 25 22 22 203 33 766 48 48 2 59 -1 68 -18z
m963 -434 c61 -71 61 -71 34 -74 -28 -3 -102 33 -127 62 -10 13 -10 16 5 16
23 0 -8 41 -190 249 -82 93 -152 178 -157 188 -12 23 354 -347 435 -441z
m-2240 424 c250 -10 318 -21 212 -37 -78 -11 -1815 -11 -1880 0 -90 16 -25 28
193 36 298 11 1196 12 1475 1z m2756 -27 c8 -15 12 -16 22 -5 22 21 29 13 29
-33 0 -49 -1 -51 -28 -34 -14 9 -25 8 -50 -5 -40 -21 -105 -21 -122 0 -7 8
-23 14 -34 13 -37 -2 -39 1 -20 22 37 42 77 59 136 59 44 0 59 -4 67 -17z
m-860 -130 c63 -64 110 -118 103 -121 -6 -2 -28 2 -48 8 -26 9 -40 22 -50 45
-15 38 -35 56 -27 25 4 -14 0 -20 -11 -20 -20 0 -20 -9 0 -38 8 -12 10 -22 5
-22 -6 0 -18 11 -27 25 -13 20 -14 29 -3 58 15 41 9 60 -26 83 -33 21 -43 12
-21 -20 20 -31 20 -37 1 -30 -11 5 -15 -1 -15 -20 0 -54 46 -110 142 -175 55
-37 62 -38 53 -10 -6 19 -4 19 45 -6 40 -20 55 -24 65 -15 21 17 36 2 33 -33
-2 -38 15 -72 43 -88 11 -6 19 -13 16 -15 -3 -3 -28 6 -56 20 -37 19 -56 37
-71 66 -11 22 -25 40 -30 40 -21 0 -25 -4 -22 -22 3 -14 -3 -18 -26 -18 -24 0
-34 8 -50 34 -26 44 -88 76 -145 76 -23 0 -48 5 -55 12 -21 21 -14 65 14 87
24 19 25 22 10 37 -10 10 -14 24 -11 38 15 50 39 116 44 116 3 0 57 -53 120
-117z m-613 53 c9 -37 -1 -122 -24 -201 -11 -38 -27 -108 -36 -154 -11 -64
-32 -118 -86 -231 l-72 -147 -271 -6 c-329 -8 -562 -9 -569 -2 -3 4 5 47 18
98 13 51 35 170 49 266 32 218 30 211 73 304 l35 77 106 1 c58 1 221 5 361 9
140 3 290 7 332 8 75 2 78 1 84 -22z m-1071 2 c4 -4 -2 -35 -14 -70 -12 -36
-30 -123 -41 -195 -21 -145 -62 -281 -116 -384 -54 -103 -69 -113 -170 -118
-97 -4 -114 5 -114 55 0 20 -8 42 -20 54 -18 18 -18 22 -5 54 11 25 15 74 15
171 l0 135 -109 0 c-151 0 -359 18 -395 35 -71 31 -123 26 -161 -15 -24 -27
-104 -37 -464 -60 -172 -11 -317 -20 -322 -20 -5 0 11 30 35 68 94 146 102
177 60 255 l-25 49 919 -4 c506 -1 923 -6 927 -10z m-1858 -52 c36 -69 -16
-206 -97 -258 -25 -16 -46 -24 -48 -18 -2 6 15 43 39 82 37 61 44 80 47 137 5
98 9 116 28 100 8 -7 22 -26 31 -43z m3749 8 c36 -12 48 -13 54 -4 11 17 25 6
60 -45 35 -50 40 -77 10 -50 -20 18 -20 17 -20 -8 0 -17 14 -42 36 -67 42 -46
57 -51 48 -16 -3 14 -3 30 2 37 12 20 31 -17 26 -51 -8 -58 -29 -49 -122 50
-51 54 -92 90 -99 86 -7 -5 -10 1 -8 16 1 18 -4 24 -23 26 -35 5 -55 23 -38
33 18 12 20 11 74 -7z m-1826 -50 c0 -12 -6 -40 -14 -62 -8 -22 -12 -50 -9
-61 4 -17 1 -21 -20 -21 -14 0 -28 4 -31 9 -8 12 13 70 37 104 14 20 18 37 13
60 -5 30 -5 31 9 13 8 -11 15 -30 15 -42z m1470 -164 c13 -11 36 -20 53 -20
23 0 28 -4 23 -16 -5 -14 -1 -16 24 -11 31 7 38 -1 19 -20 -13 -13 -64 -1
-121 28 -41 21 -52 34 -43 49 9 15 19 12 45 -10z m1352 3 c24 -21 23 -33 -2
-33 -25 0 -25 -9 -2 -26 16 -13 15 -15 -8 -34 -76 -61 -75 -60 -56 -78 13 -14
40 -18 132 -20 l114 -4 16 -30 c12 -22 19 -27 27 -19 8 8 8 25 0 63 -6 29 -10
54 -9 55 5 6 230 -37 238 -45 19 -19 -137 -117 -206 -132 -33 -6 -48 -37 -25
-51 7 -4 10 -12 5 -16 -10 -11 -413 -10 -547 1 -76 6 -121 5 -155 -3 -36 -9
-54 -9 -76 0 -15 6 -28 15 -28 19 0 10 55 58 165 144 88 70 97 88 30 66 -48
-16 -177 -101 -197 -131 l-17 -24 0 37 c-1 51 33 87 128 137 99 51 362 141
415 141 23 0 47 -7 58 -17z m-274 1 c-11 -10 -312 -103 -320 -98 -14 9 -8 41
11 58 33 30 102 45 210 45 57 1 102 -1 99 -5z m-3634 -60 c10 -78 7 -513 -4
-535 -11 -20 -64 -27 -75 -9 -10 16 -6 409 6 479 17 112 61 150 73 65z m1052
10 c13 -19 14 -28 6 -33 -7 -4 -14 -39 -16 -82 -5 -96 -30 -175 -67 -211 -16
-16 -29 -38 -29 -49 0 -12 -7 -19 -18 -19 -29 0 -41 -19 -35 -57 6 -33 4 -35
-16 -28 -19 6 -21 4 -15 -19 4 -16 1 -32 -6 -41 -11 -13 -8 -22 14 -53 14 -20
21 -39 16 -40 -27 -9 -70 61 -70 113 0 14 29 83 66 152 70 136 99 213 115 302
18 102 26 111 55 65z m-719 -29 c3 -9 2 -19 -1 -23 -8 -8 -38 10 -44 26 -6 18
38 14 45 -3z m3788 -5 c25 -17 27 -20 10 -20 -11 0 -33 9 -50 20 -25 17 -27
20 -10 20 11 0 34 -9 50 -20z m-3925 -8 c0 -11 -39 -46 -67 -61 -25 -13 -63
-15 -63 -3 0 17 25 32 52 32 21 0 28 5 28 20 0 15 7 20 25 20 14 0 25 -4 25
-8z m282 -32 l53 -30 -80 2 c-68 3 -80 6 -83 21 -5 25 17 49 39 42 9 -3 41
-19 71 -35z m3549 8 c41 -31 43 -33 20 -36 -16 -3 -30 3 -41 18 -10 14 -22 19
-33 14 -17 -6 -25 15 -10 29 11 11 18 8 64 -25z m-5091 -2 c0 -2 -19 -16 -42
-31 l-43 -28 29 32 c25 26 56 41 56 27z m894 -2 c15 -6 15 -8 -1 -20 -17 -12
-17 -13 5 -14 12 0 22 -4 22 -9 0 -16 -41 -21 -300 -36 -140 -8 -321 -19 -403
-25 -193 -13 -192 -13 -178 3 14 17 4 27 -26 27 -12 0 -23 4 -23 9 0 13 38 21
100 20 47 0 52 -2 33 -11 -35 -17 -27 -28 17 -28 33 0 42 4 50 24 4 13 19 26
32 29 84 21 633 46 672 31z m476 -20 c12 -12 11 -14 -15 -14 -43 0 -59 -13
-53 -44 7 -33 -5 -34 -20 -1 -16 35 -15 45 5 67 19 21 57 17 83 -8z m4200 2
c0 -32 -32 -70 -98 -115 -84 -57 -157 -91 -194 -91 -33 0 -32 1 27 38 33 21
100 73 149 115 49 42 95 77 103 77 7 0 13 -11 13 -24z m-1726 -58 c28 -10 58
-26 66 -34 12 -12 11 -14 -13 -14 -14 0 -41 9 -59 20 -18 11 -44 20 -58 19
l-25 0 23 -16 c25 -18 29 -33 8 -33 -8 0 -16 -10 -18 -22 -4 -34 -44 -32 -40
1 1 14 -7 34 -20 48 l-21 23 21 0 c27 0 28 8 5 27 -16 13 -12 13 31 8 28 -4
73 -16 100 -27z m-199 11 c4 -6 -1 -16 -10 -23 -16 -12 -16 -13 -1 -19 29 -11
19 -37 -14 -37 -16 0 -30 -4 -30 -9 0 -11 80 -51 103 -51 9 0 19 -5 22 -10 4
-7 -7 -8 -32 -4 -29 4 -42 2 -52 -10 -21 -25 4 -47 50 -44 70 4 67 -21 -4 -29
-36 -4 -48 -1 -73 20 -27 23 -29 31 -28 89 0 80 19 138 44 138 10 0 22 -5 25
-11z m514 -75 c-13 -15 -76 -19 -98 -5 -21 13 -5 29 24 24 19 -4 31 2 52 26
l28 32 3 -31 c2 -17 -2 -38 -9 -46z m-3217 -23 c-2 -24 -8 -55 -13 -68 -9 -25
-39 -32 -39 -9 0 18 -75 26 -240 24 l-135 -1 115 -11 115 -10 -130 -8 c-159
-8 -349 0 -391 17 -24 10 -44 10 -80 3 l-49 -11 45 -16 45 -16 -59 -3 c-32 -2
-63 1 -69 7 -14 14 10 41 52 58 53 23 32 23 -63 2 -102 -23 -123 -21 -81 7 25
16 52 19 202 22 102 2 171 7 167 13 -3 5 -20 10 -37 10 -18 1 -5 5 28 9 33 3
89 4 125 2 63 -5 64 -6 35 -18 -29 -13 -28 -13 31 -14 50 0 68 5 100 26 33 23
41 25 59 13 11 -7 59 -14 110 -16 90 -3 90 0 5 25 -29 9 -19 10 60 9 l95 -2
-3 -44z m626 26 c18 -14 15 -45 -7 -56 -23 -13 -362 -35 -407 -27 -38 8 -45
25 -14 33 24 6 25 11 3 35 -23 26 -6 22 61 -13 l60 -32 22 28 23 29 57 -14
c63 -15 158 -19 170 -7 4 4 2 13 -4 19 -27 27 2 31 36 5z m4013 -11 c-65 -69
-280 -146 -521 -187 l-175 -29 -137 15 c-75 8 -144 18 -153 21 -41 16 18 20
208 16 308 -6 486 30 682 138 101 55 131 64 96 26z m-1554 -47 c62 -7 117 -15
123 -19 7 -5 7 -48 -1 -148 -10 -118 -15 -142 -28 -142 -9 0 -56 9 -106 20
-193 43 -265 81 -250 132 4 12 21 58 37 101 l30 79 42 -6 c22 -3 91 -11 153
-17z m-2564 -80 c88 -13 117 -30 117 -67 0 -39 -17 -52 -66 -52 -32 0 -56 10
-110 45 -37 25 -76 45 -85 45 -28 0 -49 11 -49 26 0 18 89 19 193 3z m2960
-20 c34 -18 82 -46 105 -63 69 -49 109 -133 84 -174 -13 -19 -70 -32 -143 -32
-77 0 -113 20 -123 71 -6 30 3 229 11 229 2 0 32 -14 66 -31z m-3518 5 c24
-24 15 -66 -15 -74 -14 -4 -120 -10 -235 -14 -265 -8 -451 -25 -490 -42 -27
-13 -20 -13 70 -9 215 11 670 15 649 6 -68 -30 -827 -51 -855 -24 -7 7 -9 22
-5 37 9 36 27 33 19 -4 -7 -37 12 -40 51 -9 29 22 35 49 11 49 -21 0 -19 16 3
25 29 13 102 22 102 13 0 -4 -6 -8 -14 -8 -8 0 -18 -5 -22 -12 -5 -8 40 -10
186 -4 189 6 249 16 201 31 -44 14 -7 25 84 25 100 0 125 -5 125 -25 0 -17 39
-26 75 -16 39 10 41 37 3 33 -31 -3 -37 12 -10 27 25 15 48 13 67 -5z m342
-14 c14 -11 48 -27 76 -35 86 -26 104 -55 32 -55 -32 0 -50 6 -64 21 -25 28
-57 21 -53 -11 5 -43 -56 -55 -102 -19 -30 23 -35 64 -11 95 14 18 15 17 9
-10 l-7 -30 31 23 c17 12 34 26 37 31 9 15 24 12 52 -10z m2298 -10 c16 -32
20 -70 6 -70 -4 0 -11 15 -14 33 -3 17 -8 40 -12 50 -12 28 3 19 20 -13z m176
-21 c27 -14 14 -29 -25 -29 -19 0 -39 -7 -46 -15 -15 -19 -50 -20 -50 -2 0 40
78 69 121 46z m-845 -111 c-80 -91 -102 -162 -72 -230 6 -13 1 -19 -21 -25
-44 -13 -1432 -7 -1648 7 -249 15 -406 41 -533 87 -96 35 -33 49 303 68 404
22 528 33 660 60 114 23 172 30 223 26 17 -1 28 -12 41 -44 24 -56 65 -103 96
-111 14 -4 43 -2 64 4 45 12 121 65 121 84 0 8 -23 31 -51 52 l-50 39 308 7
c169 4 355 12 413 16 58 5 124 10 148 11 l44 1 -46 -52z m1840 42 c15 -6 75
-15 132 -21 165 -15 175 -35 24 -49 -48 -5 -100 -13 -115 -19 -34 -13 -42 -9
-61 27 -35 69 -31 81 20 62z m644 0 c11 -7 7 -10 -17 -10 -24 0 -37 -8 -53
-30 -23 -33 -42 -31 -59 6 -14 33 -16 31 20 32 17 0 34 3 37 6 9 9 56 7 72 -4z
m-273 -36 c3 -8 1 -20 -5 -26 -13 -13 -52 7 -52 27 0 20 49 19 57 -1z m-1264
-39 c39 -13 113 -35 162 -49 136 -36 143 -40 165 -90 16 -37 24 -46 52 -51 40
-7 234 10 272 25 15 5 51 10 81 10 36 0 81 11 141 34 49 19 116 39 149 45 176
31 609 44 710 22 130 -29 200 -69 148 -85 -55 -17 -336 -48 -588 -65 -389 -28
-1855 -59 -1855 -40 0 3 41 11 90 18 185 26 308 134 245 217 -8 10 -15 22 -15
26 -1 26 147 16 243 -17z m-2413 15 c-83 -12 -210 -12 -210 0 0 6 50 9 133 9
106 -2 121 -3 77 -9z m-625 -234 c217 -37 558 -49 1820 -67 833 -12 1436 -8
1855 12 269 13 307 9 316 -29 13 -57 16 -62 38 -62 53 0 58 61 7 68 -29 4 -22
24 11 33 14 4 113 10 219 13 107 4 220 9 251 12 l57 6 -6 -65 c-6 -72 1 -112
17 -87 6 8 10 34 10 57 0 67 14 93 50 93 37 0 44 -14 59 -129 17 -134 34 -128
26 9 -3 67 -2 121 3 129 6 7 32 16 60 19 72 6 68 17 98 -303 7 -69 7 -69 18
-35 10 32 11 26 14 -60 4 -130 -2 -157 -41 -180 -40 -25 -67 -26 -67 -2 0 28
26 57 51 57 36 0 48 45 25 92 -11 23 -22 80 -27 143 -19 218 -48 325 -50 183
0 -69 -6 -68 -27 7 l-10 35 -2 -40 c-7 -178 -18 -266 -36 -279 -15 -12 -19
-31 -22 -119 -6 -141 -1 -138 -185 -148 -78 -5 -196 -16 -262 -24 -493 -63
-3216 -45 -4005 26 -165 15 -287 35 -377 64 -73 23 -163 70 -177 94 -8 13 -28
540 -21 562 5 14 20 11 113 -27 63 -25 144 -49 197 -58z m3623 92 c-3 -7 -21
-14 -41 -16 -28 -2 -37 1 -37 12 0 12 11 16 41 16 28 0 39 -4 37 -12z m1322
-74 c0 -2 -12 -4 -26 -4 -14 0 -23 4 -20 9 6 8 46 4 46 -5z m-2615 -44 c4 -6
-17 -10 -55 -10 -38 0 -59 4 -55 10 3 6 28 10 55 10 27 0 52 -4 55 -10z m2605
-162 c0 -9 -4 -20 -10 -23 -6 -4 -10 9 -10 32 0 28 3 34 10 23 5 -8 10 -23 10
-32z m-100 -238 c0 -16 -4 -30 -10 -30 -5 0 -10 14 -10 30 0 17 5 30 10 30 6
0 10 -13 10 -30z m-55 -148 c-9 -38 -30 -19 -33 31 -2 30 3 57 15 79 l18 33 3
-60 c2 -32 0 -70 -3 -83z m320 36 c10 -15 11 -24 5 -26 -12 -4 -50 26 -50 40
0 17 29 7 45 -14z"/>
<path d="M2535 9808 c-11 -7 -56 -13 -100 -13 -92 -1 -145 -21 -164 -62 -14
-31 1 -55 21 -35 19 19 38 14 60 -14 16 -20 26 -24 49 -19 22 5 28 3 24 -7 -8
-21 33 -68 59 -68 22 0 88 61 99 91 3 10 22 19 47 23 31 5 41 10 38 23 -2 10
-14 20 -28 23 -16 4 -26 14 -28 28 -2 14 -14 27 -28 33 -30 11 -24 11 -49 -3z
m-15 -116 c0 -14 -23 -32 -42 -32 -18 0 -25 20 -11 33 9 10 53 9 53 -1z"/>
<path d="M5253 9900 c-18 -11 -33 -24 -33 -30 0 -15 33 -12 56 5 32 24 50 17
98 -37 52 -59 67 -59 37 0 -40 78 -96 100 -158 62z"/>
<path d="M5173 9735 c-3 -9 -3 -19 1 -22 7 -7 36 16 36 28 0 15 -30 10 -37 -6z"/>
<path d="M5250 9741 c0 -6 5 -13 10 -16 6 -4 19 -24 30 -46 11 -21 25 -39 30
-39 18 0 10 57 -11 84 -20 25 -59 36 -59 17z"/>
<path d="M5230 9570 c0 -18 27 -64 49 -84 43 -39 38 12 -6 64 -25 31 -43 38
-43 20z"/>
<path d="M5605 9271 c-3 -10 -2 -26 1 -36 7 -17 8 -17 21 1 7 10 13 26 13 36
0 24 -27 23 -35 -1z"/>
<path d="M5559 9184 c-15 -18 -17 -65 -4 -109 l8 -30 13 40 c24 76 14 136 -17
99z"/>
<path d="M5390 9013 c1 -94 13 -97 25 -6 7 54 0 93 -16 93 -5 0 -9 -39 -9 -87z"/>
<path d="M5400 8361 c-25 -16 2 -33 53 -33 57 0 89 10 84 25 -5 15 -116 21
-137 8z"/>
<path d="M3217 9603 c-10 -10 -8 -51 2 -58 16 -9 42 37 29 52 -12 14 -21 16
-31 6z"/>
<path d="M3744 9255 c-4 -9 -3 -19 0 -23 9 -8 42 12 39 24 -4 16 -33 16 -39
-1z"/>
<path d="M4473 9034 c-11 -30 36 -45 58 -18 10 13 10 17 -2 25 -22 14 -49 11
-56 -7z"/>
<path d="M3106 8911 c-11 -12 -14 -21 -7 -25 15 -10 51 12 51 29 0 21 -24 19
-44 -4z"/>
<path d="M3820 8845 c-7 -8 -10 -19 -6 -22 9 -9 38 8 38 22 -1 16 -18 16 -32
0z"/>
<path d="M2976 8718 c-49 -49 -65 -73 -74 -110 -14 -55 -3 -117 28 -158 17
-22 20 -23 44 -11 30 17 86 70 86 82 0 15 -14 10 -63 -21 -26 -16 -50 -30 -52
-30 -12 0 -4 124 10 155 8 20 37 59 65 89 27 29 50 56 50 59 0 22 -40 -1 -94
-55z"/>
<path d="M2800 8686 c0 -18 27 -46 45 -46 26 0 29 23 5 42 -27 22 -50 23 -50
4z"/>
<path d="M2580 8634 c0 -5 37 -15 82 -22 45 -8 97 -20 116 -28 43 -18 52 -18
52 1 0 27 -59 47 -156 52 -55 4 -94 2 -94 -3z"/>
<path d="M2208 8623 c-42 -5 -45 -9 -22 -34 13 -15 14 -24 5 -50 -6 -18 -11
-47 -11 -64 0 -18 -13 -76 -30 -130 -16 -54 -30 -104 -30 -111 0 -64 72 103
99 230 24 109 36 118 184 127 61 4 116 8 122 8 6 1 6 4 0 10 -11 10 -259 21
-317 14z"/>
<path d="M2775 8441 c-26 -4 -40 -11 -40 -21 0 -23 109 -20 132 3 16 16 16 17
-4 17 -12 0 -27 2 -35 4 -7 1 -31 0 -53 -3z"/>
<path d="M3028 8320 c-26 -5 -70 -16 -96 -24 -53 -18 -148 -74 -139 -82 3 -3
45 8 94 25 51 17 122 33 169 37 87 7 116 17 99 33 -16 15 -75 20 -127 11z"/>
<path d="M3002 8218 c-14 -14 -16 -58 -4 -58 14 0 34 52 24 62 -4 4 -13 3 -20
-4z"/>
<path d="M3746 8134 c-3 -9 -6 -26 -6 -39 0 -52 -32 -74 -60 -40 -7 8 -18 15
-26 15 -26 0 -25 -21 5 -50 24 -24 38 -30 75 -30 75 0 92 41 56 134 -11 29
-35 34 -44 10z"/>
<path d="M1875 7800 c-27 -28 -28 -32 -13 -47 15 -15 19 -14 47 15 17 17 31
38 31 46 0 26 -34 18 -65 -14z"/>
<path d="M1807 7706 c-5 -14 10 -36 25 -36 13 0 9 27 -6 39 -10 9 -15 8 -19
-3z"/>
<path d="M1882 7577 c-6 -7 -15 -25 -21 -40 -16 -42 7 -34 25 9 16 38 14 53
-4 31z"/>
<path d="M1832 7443 c-39 -97 -74 -305 -54 -317 11 -7 16 6 27 64 4 19 17 85
31 146 13 61 24 116 24 123 0 21 -18 11 -28 -16z"/>
<path d="M1590 6792 c0 -33 116 -150 132 -134 14 14 -13 51 -72 101 -50 42
-60 48 -60 33z"/>
<path d="M2056 6241 c-19 -21 -19 -72 0 -78 12 -4 34 47 34 78 0 24 -12 24
-34 0z"/>
<path d="M2390 6206 c0 -23 16 -36 46 -36 22 0 16 26 -11 44 -32 21 -35 20
-35 -8z"/>
<path d="M2220 5961 c0 -19 23 -71 31 -71 12 0 11 37 -1 61 -11 19 -30 26 -30
10z"/>
<path d="M2390 8987 c0 -26 11 -47 26 -47 20 0 17 24 -6 45 -17 16 -20 16 -20
2z"/>
<path d="M2460 8945 c0 -8 62 -37 67 -31 14 14 -9 36 -37 36 -16 0 -30 -2 -30
-5z"/>
<path d="M2369 8909 c-11 -7 -10 -12 6 -28 24 -24 95 -55 95 -42 0 5 -7 12
-16 15 -9 3 -14 13 -11 20 10 25 -47 52 -74 35z"/>
<path d="M4250 8132 c0 -28 37 -59 52 -44 9 9 8 18 -2 37 -16 29 -50 34 -50 7z"/>
<path d="M4300 8038 c0 -7 5 -31 10 -53 5 -22 17 -100 25 -173 l17 -132 -34
-27 c-59 -49 -148 -136 -148 -145 0 -14 44 14 124 80 l76 62 0 71 c0 98 -19
257 -35 296 -14 32 -35 45 -35 21z"/>
<path d="M4233 7828 c-18 -18 -57 -47 -88 -63 -30 -17 -55 -34 -55 -39 0 -15
91 1 118 21 39 29 64 68 60 92 -3 21 -4 21 -35 -11z"/>
<path d="M3939 7694 c-22 -49 -19 -85 5 -65 7 6 16 24 20 39 3 15 8 37 12 50
12 41 -16 23 -37 -24z"/>
<path d="M3700 7712 c0 -7 63 -42 75 -42 17 0 -1 19 -30 33 -41 19 -45 20 -45
9z"/>
<path d="M3827 7640 c20 -51 56 -90 83 -90 29 0 25 11 -26 74 -57 68 -80 75
-57 16z"/>
<path d="M4086 7658 c-8 -27 -26 -107 -26 -117 0 -6 6 -11 14 -11 18 0 36 51
36 101 0 37 -16 54 -24 27z"/>
<path d="M3650 7441 c0 -12 29 -35 36 -28 11 10 -5 37 -21 37 -8 0 -15 -4 -15
-9z"/>
<path d="M3823 7400 c0 -25 2 -35 4 -22 2 12 2 32 0 45 -2 12 -4 2 -4 -23z"/>
<path d="M2865 7414 c-56 -29 -80 -63 -56 -78 17 -11 103 76 89 89 -2 3 -17
-3 -33 -11z"/>
<path d="M3220 7405 c-7 -8 -10 -19 -6 -22 9 -9 38 8 38 22 -1 16 -18 16 -32
0z"/>
<path d="M3680 7296 c0 -7 6 -19 14 -25 18 -15 30 11 13 28 -15 15 -27 14 -27
-3z"/>
<path d="M3249 7001 c-19 -11 -62 -22 -95 -26 -99 -12 -180 -55 -104 -55 18 0
42 -11 64 -30 29 -26 38 -29 61 -20 35 13 148 127 140 140 -9 15 -26 12 -66
-9z"/>
<path d="M3094 6737 c-11 -29 0 -72 19 -75 16 -3 18 2 15 39 -3 43 -23 64 -34
36z"/>
<path d="M3604 6729 c-8 -14 11 -33 25 -25 16 10 13 36 -3 36 -8 0 -18 -5 -22
-11z"/>
<path d="M4307 7124 c-4 -4 -7 -23 -7 -42 l0 -35 23 21 c13 12 29 22 36 22 7
0 11 8 9 18 -3 17 -48 29 -61 16z"/>
<path d="M4307 6434 c-16 -16 -7 -44 14 -44 15 0 20 5 17 22 -3 22 -19 33 -31
22z"/>
<path d="M4398 5640 c-15 -25 -30 -58 -34 -75 -7 -28 -6 -29 10 -16 26 21 58
89 54 114 -3 19 -7 15 -30 -23z"/>
<path d="M3597 4606 c-7 -17 18 -40 33 -31 5 3 10 15 10 26 0 23 -35 27 -43 5z"/>
<path d="M3695 4490 c-7 -12 11 -40 26 -40 14 0 10 26 -5 39 -10 9 -16 9 -21
1z"/>
<path d="M3680 4343 c-29 -77 -52 -199 -44 -238 7 -38 -11 -140 -37 -215 -21
-59 -24 -90 -10 -90 36 0 87 190 101 369 5 69 14 142 20 161 25 85 1 96 -30
13z"/>
<path d="M3806 4088 c-29 -81 -96 -314 -96 -337 0 -35 23 -19 32 22 4 20 19
63 32 94 37 89 74 263 56 263 -5 0 -15 -19 -24 -42z"/>
<path d="M3870 3754 c0 -39 37 -173 57 -203 21 -32 33 -11 22 40 -12 50 -57
171 -69 183 -7 7 -10 -1 -10 -20z"/>
<path d="M3695 3688 c-4 -10 -4 -26 0 -35 8 -17 8 -17 12 0 3 9 3 25 0 35 -4
16 -4 16 -12 0z"/>
<path d="M3554 3590 c-15 -22 -25 -43 -22 -46 7 -6 68 63 68 76 0 22 -21 8
-46 -30z"/>
<path d="M3946 3348 c-3 -50 -6 -133 -6 -185 0 -52 -5 -137 -11 -190 -8 -69
-8 -98 0 -106 8 -8 15 0 27 29 29 67 33 544 5 544 -5 0 -11 -41 -15 -92z"/>
<path d="M3467 1851 c-20 -35 -22 -51 -4 -51 14 0 37 40 37 65 0 24 -14 17
-33 -14z"/>
<path d="M3693 1844 c-7 -18 7 -46 25 -52 13 -4 27 42 17 57 -10 17 -35 13
-42 -5z"/>
<path d="M3172 1218 c3 -7 20 -23 39 -36 31 -22 34 -22 38 -6 2 10 -7 26 -19
36 -25 21 -64 24 -58 6z"/>
<path d="M1400 6062 c0 -4 19 -32 41 -62 41 -54 41 -56 35 -117 -4 -35 -3 -63
2 -63 20 0 32 28 32 77 0 66 -24 127 -60 153 -29 21 -50 26 -50 12z"/>
<path d="M1674 5787 c-89 -44 -133 -77 -102 -77 19 0 144 63 178 89 46 37 14
31 -76 -12z"/>
<path d="M1269 5773 c-1 -4 -2 -35 -3 -69 -1 -51 -7 -68 -34 -104 -32 -44 -40
-70 -23 -70 13 0 54 55 81 109 18 36 20 51 13 89 -4 25 -14 47 -20 50 -7 2
-13 0 -14 -5z"/>
<path d="M1447 5673 c-4 -3 -7 -16 -7 -28 0 -12 -25 -72 -55 -132 -55 -110
-68 -163 -41 -163 15 0 19 10 31 67 8 39 60 113 79 113 18 0 26 22 26 68 0 64
-14 95 -33 75z"/>
<path d="M1420 5424 c0 -9 7 -14 17 -12 25 5 28 28 4 28 -12 0 -21 -6 -21 -16z"/>
<path d="M1620 5275 c-10 -12 -9 -16 3 -21 20 -7 37 3 37 22 0 18 -24 18 -40
-1z"/>
<path d="M1180 5208 c0 -36 4 -48 15 -48 19 0 19 37 0 70 -14 24 -14 24 -15
-22z"/>
<path d="M1595 5213 c-12 -31 -33 -155 -25 -147 15 17 61 145 55 154 -9 15
-22 12 -30 -7z"/>
<path d="M1546 5008 c-22 -79 -18 -274 6 -250 14 14 24 272 11 272 -6 0 -14
-10 -17 -22z"/>
<path d="M1350 4805 c0 -22 9 -98 20 -170 11 -71 20 -152 20 -180 0 -60 17
-125 32 -125 15 0 5 186 -16 305 -31 176 -56 252 -56 170z"/>
<path d="M1553 4670 c9 -78 29 -91 25 -16 -2 40 -8 61 -17 64 -11 4 -13 -5 -8
-48z"/>
<path d="M1565 4318 c3 -18 15 -69 25 -113 25 -106 37 -178 50 -304 6 -57 29
-165 50 -240 54 -195 55 -200 29 -281 -23 -71 -20 -99 6 -64 25 33 65 122 65
143 0 11 -20 80 -45 153 -44 133 -51 166 -80 393 -15 123 -52 282 -74 323 -18
33 -34 27 -26 -10z"/>
<path d="M1470 3466 c0 -16 38 -66 51 -66 12 0 12 37 -1 61 -12 22 -50 26 -50
5z"/>
<path d="M4900 3316 c0 -16 50 -79 57 -73 2 3 -2 23 -9 46 -9 28 -19 41 -30
41 -10 0 -18 -6 -18 -14z"/>
<path d="M4015 2450 c4 -23 2 -53 -6 -74 -23 -65 23 -147 57 -101 18 25 13 41
-13 37 -11 -1 -26 5 -34 14 -12 15 -12 16 10 9 22 -7 23 -5 17 27 l-7 33 25
-30 c38 -44 86 -140 89 -174 1 -22 5 -27 15 -19 22 19 13 72 -23 132 -43 71
-124 186 -131 186 -3 0 -3 -18 1 -40z"/>
<path d="M4356 1781 c-7 -10 22 -37 30 -28 9 8 -3 37 -15 37 -5 0 -12 -4 -15
-9z"/>
<path d="M4812 2178 c2 -13 10 -23 18 -23 8 0 16 10 18 23 3 17 -2 22 -18 22
-16 0 -21 -5 -18 -22z"/>
<path d="M3870 1945 c0 -17 36 -39 51 -29 7 4 4 13 -7 25 -20 23 -44 25 -44 4z"/>
<path d="M4300 2036 c0 -18 17 -29 30 -21 8 5 7 11 -1 21 -15 18 -29 18 -29 0z"/>
<path d="M783 1717 c-57 -5 -103 -13 -103 -18 0 -11 7 -11 208 1 190 12 253
30 97 28 -55 0 -146 -5 -202 -11z"/>
<path d="M584 1539 c-3 -5 6 -9 20 -9 31 0 34 6 6 13 -11 3 -23 1 -26 -4z"/>
<path d="M1715 1440 c-3 -5 -4 -14 -1 -19 9 -14 74 -23 93 -13 14 8 12 12 -15
26 -35 18 -68 21 -77 6z"/>
<path d="M918 1413 c12 -2 32 -2 45 0 12 2 2 4 -23 4 -25 0 -35 -2 -22 -4z"/>
<path d="M5684 977 c-8 -21 15 -62 28 -49 13 13 6 54 -9 60 -7 2 -16 -3 -19
-11z"/>
<path d="M5545 758 c7 -194 12 -255 24 -263 16 -9 19 50 11 200 -10 173 -19
235 -32 235 -6 0 -7 -66 -3 -172z"/>
<path d="M5463 854 c-3 -8 -1 -20 5 -26 15 -15 43 8 35 28 -7 19 -32 18 -40
-2z"/>
<path d="M5630 745 c0 -76 13 -100 25 -45 8 35 -4 120 -16 120 -5 0 -9 -34 -9
-75z"/>
<path d="M5700 726 c0 -60 7 -89 21 -80 17 10 6 134 -12 134 -5 0 -9 -24 -9
-54z"/>
<path d="M5647 594 c-11 -11 -8 -142 2 -149 16 -9 23 14 23 77 0 57 -10 86
-25 72z"/>
<path d="M2667 198 c-10 -5 -15 -13 -12 -19 10 -15 55 -11 55 5 0 19 -22 26
-43 14z"/>
<path d="M1670 180 c0 -5 11 -10 25 -10 14 0 25 5 25 10 0 6 -11 10 -25 10
-14 0 -25 -4 -25 -10z"/>
<path d="M354 105 c-8 -31 3 -92 18 -101 25 -16 39 67 18 107 -15 26 -28 24
-36 -6z"/>
</g>
</svg>
