<?xml version="1.0" standalone="no"?>
<!DOCTYPE svg PUBLIC "-//W3C//DTD SVG 20010904//EN"
 "http://www.w3.org/TR/2001/REC-SVG-20010904/DTD/svg10.dtd">
<svg version="1.0" xmlns="http://www.w3.org/2000/svg"
 width="813.000000pt" height="1280.000000pt" viewBox="0 0 813.000000 1280.000000"
 preserveAspectRatio="xMidYMid meet">
<metadata>
Created by potrace 1.15, written by Peter Selinger 2001-2017
</metadata>
<g transform="translate(0.000000,1280.000000) scale(0.100000,-0.100000)"
fill="#ffffff" stroke="none">
<path d="M2765 12740 c-49 -33 -107 -65 -127 -71 -59 -16 -85 -80 -52 -128 16
-22 15 -24 -20 -56 -25 -23 -36 -41 -36 -61 0 -38 -42 -127 -90 -190 -85 -113
-111 -190 -140 -424 -15 -126 -26 -177 -45 -216 -35 -71 -33 -119 5 -152 27
-24 30 -33 30 -84 0 -47 4 -59 22 -72 12 -9 30 -16 39 -16 33 0 50 -37 68
-149 23 -133 44 -173 134 -258 77 -72 115 -89 147 -66 18 13 21 22 17 49 -3
19 -2 34 3 34 23 0 45 -90 34 -144 -4 -26 -16 -42 -45 -61 -98 -64 -343 -333
-385 -421 -20 -43 -39 -61 -118 -117 -197 -138 -252 -275 -282 -692 -16 -233
-27 -309 -79 -565 -103 -499 -128 -577 -252 -769 -100 -154 -135 -214 -186
-316 -67 -135 -171 -387 -214 -515 -46 -140 -132 -316 -177 -362 -49 -50 -86
-68 -161 -79 -69 -10 -223 -69 -395 -152 -281 -136 -441 -262 -457 -360 -10
-64 28 -96 73 -62 22 17 64 20 64 5 0 -6 -20 -32 -44 -58 -25 -26 -48 -60 -51
-75 -9 -34 17 -77 45 -77 17 0 19 -5 14 -25 -9 -37 19 -65 65 -65 57 0 165 59
282 152 58 46 119 90 136 97 69 28 101 -14 36 -48 -21 -10 -62 -40 -91 -65
-81 -70 -112 -89 -161 -102 -47 -11 -66 -38 -40 -55 33 -20 106 16 226 113
110 88 274 188 368 223 64 24 69 25 86 9 11 -9 19 -28 19 -41 0 -34 22 -82 59
-128 31 -38 32 -43 27 -105 -3 -36 -8 -126 -12 -200 -4 -93 -10 -140 -20 -151
-41 -46 -19 -149 41 -195 19 -14 43 -45 55 -69 13 -26 55 -74 105 -120 131
-118 151 -176 161 -465 6 -148 5 -158 -20 -233 -74 -222 -37 -527 70 -567 15
-6 27 -22 33 -47 40 -143 66 -678 48 -993 -6 -107 -11 -253 -12 -325 0 -128 1
-132 44 -260 l44 -130 5 -247 c5 -279 -7 -457 -43 -646 -32 -173 -44 -354 -45
-681 l-1 -274 54 -43 c93 -74 305 -168 482 -213 102 -26 410 -82 635 -116 272
-41 515 -48 1340 -41 979 8 1195 18 1430 68 110 23 158 41 294 110 132 66 182
101 194 137 6 17 14 85 18 151 9 151 -2 186 -85 262 -93 87 -238 149 -520 224
-75 20 -148 42 -163 50 -27 14 -28 17 -28 93 0 184 -97 431 -224 569 -114 123
-125 141 -140 223 -7 41 -23 93 -35 115 -12 23 -26 66 -32 95 -6 31 -14 369
-19 804 -5 436 -13 781 -19 825 -26 181 -46 255 -136 505 -62 172 -70 221 -57
357 6 62 14 170 18 240 4 73 11 128 16 128 6 0 66 -36 134 -79 167 -107 194
-115 353 -108 188 8 425 72 645 175 156 73 187 121 201 305 8 111 17 135 52
143 65 14 91 27 149 72 127 98 169 135 178 156 5 11 12 741 17 1631 6 1178 12
1656 22 1782 7 95 16 175 19 178 4 5 160 35 181 35 10 0 9 -774 -3 -1140 -13
-391 -19 -432 -67 -482 -33 -34 -35 -40 -30 -82 13 -92 123 -275 231 -382 83
-82 230 -183 310 -213 34 -13 80 -21 115 -21 50 0 66 5 107 33 87 58 90 69 84
312 -11 457 -4 807 20 1050 19 193 24 316 29 765 7 581 8 588 64 625 31 20
144 30 222 20 46 -5 63 -13 85 -37 15 -16 44 -33 65 -38 79 -18 216 44 223
101 8 72 16 90 67 149 63 73 78 119 49 151 -20 22 -21 39 -9 211 l8 116 -27
25 c-32 30 -32 32 -3 71 36 48 39 65 21 122 -25 80 -36 87 -111 62 -80 -26
-93 -21 -93 36 0 28 -7 52 -19 67 -17 21 -27 24 -80 22 -95 -2 -158 -36 -212
-114 -24 -34 -64 -78 -89 -97 -103 -77 -136 -110 -215 -216 -45 -61 -98 -125
-116 -142 -99 -90 -195 -143 -227 -125 -15 9 -15 10 6 11 29 0 28 14 -3 38
-44 35 -143 44 -431 40 -302 -3 -298 -3 -424 -88 -89 -60 -165 -93 -200 -86
-75 15 -457 181 -521 227 -21 15 -44 50 -70 107 -31 67 -54 99 -107 151 -109
107 -250 191 -322 191 -16 0 -74 23 -127 51 -73 38 -119 55 -178 65 -44 8
-104 23 -134 34 -36 14 -107 25 -225 35 -94 8 -188 20 -208 26 -30 10 -52 9
-107 -1 -127 -24 -278 5 -351 67 -35 29 -37 49 -15 173 36 200 55 345 65 490
14 205 27 283 54 323 33 48 46 93 46 158 0 90 -37 159 -86 159 -25 0 -49 24
-39 40 4 6 14 9 23 5 38 -14 43 60 7 99 -30 33 -31 47 -4 103 20 41 20 45 5
91 -32 95 -71 110 -283 111 -159 1 -261 16 -353 52 -41 16 -82 29 -90 29 -8 0
-55 -27 -105 -60z m162 -9 c62 -28 71 -88 12 -79 -15 2 -25 12 -29 28 -5 20
-13 26 -43 28 -40 3 -47 15 -19 31 23 14 31 13 79 -8z m351 -94 c-17 -36 -14
-49 29 -101 31 -37 24 -42 -18 -17 -19 12 -55 24 -80 27 -65 9 -71 15 -77 74
-6 64 5 61 44 -10 15 -28 30 -50 34 -50 4 0 13 21 20 48 13 54 38 88 54 72 7
-7 5 -21 -6 -43z m242 24 c0 -16 -55 -31 -107 -29 -66 3 -89 -14 -55 -42 12
-10 22 -21 22 -25 0 -13 -43 1 -54 18 -26 41 46 87 137 87 31 0 57 -4 57 -9z
m-750 -18 c-1 -5 -7 -19 -15 -33 -21 -37 -19 -42 18 -35 29 6 35 3 45 -19 19
-42 78 -29 131 28 14 14 30 26 36 26 17 0 105 -96 105 -114 0 -47 -64 -5 -74
48 -4 20 -11 38 -17 42 -14 8 -39 -15 -39 -37 0 -11 -10 -29 -21 -40 -17 -17
-29 -20 -63 -16 -50 7 -206 55 -223 69 -19 16 -4 37 46 63 47 25 71 31 71 18z
m314 -28 c18 -28 21 -45 6 -45 -8 0 -40 51 -40 65 0 14 19 3 34 -20z m359 -98
c18 -8 39 -22 47 -32 14 -17 13 -17 -10 -10 -41 12 -80 35 -80 45 0 13 4 13
43 -3z m-764 -71 c25 -29 -37 -86 -92 -86 -19 0 -18 3 11 20 18 11 35 27 37
35 3 8 7 22 10 30 6 19 19 19 34 1z m171 -5 c0 -12 -37 -21 -85 -21 -37 1 -39
2 -21 15 21 16 106 21 106 6z m290 -22 c0 -30 0 -30 52 -27 46 3 53 6 58 28 8
33 48 37 148 15 105 -24 132 -51 132 -133 0 -74 -12 -85 -98 -92 l-66 -5 41
-27 c30 -20 50 -44 71 -90 45 -93 47 -129 12 -173 -16 -20 -31 -54 -35 -76 -8
-49 1 -136 21 -191 22 -64 19 -76 -23 -84 -20 -4 -52 -3 -72 2 -31 8 -36 13
-33 36 4 37 -17 46 -40 18 -22 -27 -24 -83 -3 -100 16 -13 150 -9 203 6 l24 7
-4 -101 c-2 -86 -6 -104 -24 -124 -15 -16 -23 -40 -26 -81 -4 -45 -10 -63 -32
-86 -37 -38 -70 -43 -134 -21 l-53 19 3 -31 c4 -39 -14 -46 -121 -47 -47 -1
-71 -5 -65 -10 15 -16 139 -32 201 -26 l58 5 -34 -16 c-19 -8 -71 -22 -115
-30 -143 -27 -150 -32 -44 -33 121 -1 190 13 249 50 25 16 53 29 61 29 40 0
21 -94 -47 -238 -25 -52 -45 -97 -45 -100 0 -13 47 40 91 102 l49 69 0 -47 c0
-62 -31 -126 -98 -197 -80 -87 -156 -140 -320 -222 -223 -113 -216 -111 -252
-80 -62 52 -76 122 -40 201 33 72 44 55 36 -57 -6 -105 1 -129 28 -88 41 62
27 179 -53 449 -27 90 -61 213 -76 273 -14 61 -37 129 -50 153 l-24 42 28 0
c16 0 45 -11 65 -25 20 -13 36 -23 36 -21 0 2 -9 25 -21 51 -14 31 -19 58 -15
77 l6 30 -49 -7 c-49 -7 -81 8 -81 39 0 23 22 76 31 76 4 0 29 -14 53 -32 47
-33 95 -40 122 -17 29 24 12 63 -31 71 -16 2 -20 -2 -18 -25 3 -46 -23 -15
-37 45 -16 67 -7 154 20 191 12 16 19 31 16 34 -11 11 -37 -8 -54 -38 -26 -49
-49 -69 -79 -69 l-28 1 28 20 c34 26 35 49 3 49 -28 0 -42 15 -25 26 6 3 28 7
48 8 34 2 111 42 111 59 0 4 -14 7 -31 7 -43 0 -29 15 47 51 35 17 64 34 64
39 0 5 -16 21 -35 36 -19 14 -35 33 -35 40 0 21 12 17 50 -16 52 -44 72 -39
124 29 32 41 58 64 88 75 23 10 59 31 81 48 21 17 57 37 80 45 53 18 77 40 77
70 0 36 -30 58 -117 87 -67 22 -123 55 -123 71 0 14 36 35 61 35 26 0 29 -3
29 -31z m-256 -55 c19 -51 -2 -134 -35 -134 -19 0 -20 -4 -14 -50 9 -64 -5
-65 -41 -4 l-27 46 35 32 c27 25 37 43 42 79 7 47 28 63 40 31z m156 -39 l25
-14 -37 -1 c-45 0 -52 -25 -12 -40 33 -13 117 -71 111 -77 -7 -7 -119 52 -144
76 -26 24 -29 41 -11 59 16 16 37 15 68 -3z m170 -35 c0 -13 -34 -30 -59 -30
-24 0 -27 10 -9 28 14 14 68 16 68 2z m-652 -28 c6 -38 57 -40 147 -7 16 5 14
1 -8 -19 -71 -66 -167 -46 -167 34 0 28 24 21 28 -8z m1052 -61 c0 -11 -63
-42 -70 -35 -7 8 39 44 56 44 8 0 14 -4 14 -9z m-640 -123 c0 -5 -10 -8 -21
-6 -26 4 -55 42 -63 83 -6 29 -5 29 39 -18 25 -27 45 -53 45 -59z m55 92 c4
-6 -7 -10 -24 -10 -17 0 -31 5 -31 10 0 6 11 10 24 10 14 0 28 -4 31 -10z
m-524 -75 c-13 -57 -31 -66 -31 -16 0 43 21 94 33 82 7 -7 7 -27 -2 -66z m139
46 c0 -12 -23 -31 -37 -31 -17 0 -17 37 0 43 14 5 37 -2 37 -12z m1008 -18
c-2 -9 -8 -18 -15 -20 -14 -5 -37 33 -28 47 9 15 47 -9 43 -27z m-939 -54
c-22 -43 -34 -58 -37 -46 -4 17 56 122 65 113 2 -2 -10 -33 -28 -67z m-163
-31 c-9 -66 -31 -108 -56 -108 -19 0 -19 2 4 38 14 20 30 56 36 80 15 58 24
53 16 -10z m-127 -59 l-21 -31 33 -34 c18 -18 31 -35 28 -37 -7 -7 -47 -27
-53 -27 -3 0 -6 11 -6 24 0 13 -7 29 -15 36 -31 26 -5 100 36 100 20 0 20 -1
-2 -31z m290 -22 c16 -20 4 -27 -46 -27 -47 0 -55 11 -20 28 31 15 53 14 66
-1z m-115 -60 c12 -19 3 -32 -19 -24 -17 7 -21 51 -3 45 6 -2 16 -12 22 -21z
m-56 -64 c-3 -19 -56 -30 -86 -18 -15 6 -15 8 2 21 11 8 35 14 54 14 26 0 33
-4 30 -17z m-50 -124 c33 -48 8 -52 -35 -6 -40 44 -47 78 -10 55 12 -8 32 -30
45 -49z m1060 -21 c14 -14 15 -47 3 -67 -13 -20 -45 31 -36 59 7 23 16 25 33
8z m-1099 -72 c14 -14 22 -29 18 -32 -8 -9 -32 11 -59 49 -19 27 -20 29 -2 19
10 -6 30 -22 43 -36z m197 -12 c17 -7 36 -20 44 -28 19 -24 -9 -21 -75 8 -90
41 -62 59 31 20z m-96 -143 c0 -17 -4 -33 -10 -36 -6 -4 -10 8 -10 29 0 20 5
36 10 36 6 0 10 -13 10 -29z m20 -109 c0 -11 -46 -32 -70 -32 -31 0 -32 17 -3
28 35 13 73 15 73 4z m37 -65 c-5 -16 -47 -24 -82 -17 l-30 7 25 10 c53 22 95
22 87 0z m33 -85 c0 -9 -5 -24 -10 -32 -7 -11 -10 -5 -10 23 0 23 4 36 10 32
6 -3 10 -14 10 -23z m-62 -24 c-2 -15 -11 -24 -25 -26 -27 -4 -29 5 -6 30 22
24 35 23 31 -4z m-52 -72 c25 -25 44 -50 42 -56 -6 -19 -22 -14 -33 9 -6 13
-19 21 -36 21 -18 0 -29 8 -38 26 -11 26 -8 44 9 44 5 0 30 -20 56 -44z m117
-117 c21 -5 41 -17 44 -25 8 -23 -5 -60 -34 -94 -25 -30 -27 -31 -40 -14 -18
24 -16 44 5 60 16 13 16 15 -2 29 -11 8 -39 15 -62 15 -45 0 -66 16 -43 31 19
12 86 11 132 -2z m967 -116 c31 -25 32 -29 28 -89 -3 -46 -11 -72 -31 -103
-43 -65 -106 -82 -91 -24 4 14 12 19 23 16 37 -9 88 92 74 146 -6 23 -8 21
-23 -24 -9 -28 -21 -50 -26 -50 -10 0 -18 119 -10 141 8 20 21 17 56 -13z
m320 -22 c0 -17 -200 -161 -224 -161 -4 0 -2 9 4 19 14 27 13 41 -5 41 -21 0
-19 53 3 72 29 26 58 30 77 12 16 -16 20 -16 73 4 66 24 72 25 72 13z m275
-31 c4 -6 -20 -10 -64 -10 -41 0 -71 4 -71 10 0 6 28 10 64 10 36 0 68 -4 71
-10z m-285 -59 c0 -18 -225 -179 -235 -169 -9 9 206 176 228 178 4 0 7 -4 7
-9z m330 5 c0 -8 -145 -64 -182 -71 -46 -9 -51 7 -9 25 57 23 191 56 191 46z
m300 -8 c-14 -6 -63 -29 -109 -50 -46 -21 -85 -38 -88 -38 -2 0 -1 11 3 25 l6
25 -50 -15 c-202 -60 -261 -88 -427 -198 -118 -79 -218 -155 -350 -267 -122
-103 -221 -173 -312 -219 -34 -17 -97 -52 -140 -77 -83 -50 -135 -60 -182 -34
l-25 13 25 20 24 20 -41 -5 c-49 -7 -85 7 -159 62 -71 53 -96 51 -59 -4 l27
-40 -32 23 c-40 28 -52 20 -24 -17 16 -22 31 -28 74 -33 34 -4 81 -20 128 -45
65 -34 83 -39 140 -39 59 0 76 5 160 48 51 27 95 46 98 44 5 -6 -77 -68 -159
-121 l-57 -36 -98 20 c-173 36 -271 76 -317 131 -28 33 -81 129 -71 129 3 0
19 -10 35 -22 16 -12 33 -19 36 -15 4 3 -8 34 -26 69 l-33 63 37 -33 c20 -18
48 -32 62 -32 14 0 42 -9 62 -19 51 -26 152 -45 208 -38 83 9 83 41 1 64 -41
11 -39 11 45 12 60 1 99 7 130 20 24 10 144 85 268 168 210 140 433 279 507
317 52 26 61 18 19 -19 -22 -19 -36 -35 -32 -35 4 0 86 27 183 60 243 83 417
127 508 128 l30 1 -25 -11z m3277 -30 c25 -20 11 -51 -27 -61 -75 -19 -175 7
-149 39 30 36 142 50 176 22z m-3267 -28 c0 -5 -6 -10 -14 -10 -8 0 -67 -37
-132 -83 -66 -46 -132 -92 -149 -103 l-30 -19 34 43 c69 88 291 219 291 172z
m-961 -127 c-70 -74 -129 -127 -156 -142 -12 -6 -43 -11 -70 -11 -55 0 -107
-27 -118 -60 -11 -36 2 -35 45 4 37 34 70 47 70 28 0 -27 -108 -96 -134 -86
-11 4 -16 0 -16 -15 0 -26 -11 -26 -52 -1 -43 26 -69 25 -152 -5 -38 -14 -72
-23 -75 -20 -14 15 23 40 119 81 58 24 213 98 345 163 132 66 242 120 244 120
2 1 -20 -25 -50 -56z m641 39 c0 -27 -77 -100 -119 -113 -65 -21 -261 -149
-261 -170 0 -13 36 4 139 65 90 53 121 66 121 48 0 -14 -137 -177 -196 -233
-55 -52 -124 -98 -124 -83 0 3 16 24 35 47 55 64 43 75 -34 30 -58 -33 -123
-81 -284 -206 -70 -55 -131 -97 -134 -93 -9 9 16 84 42 126 37 59 120 127 178
146 62 20 123 50 156 75 33 26 14 24 -75 -11 -43 -16 -80 -27 -83 -24 -15 15
141 129 346 256 92 56 276 158 285 158 5 0 8 -8 8 -18z m709 5 c52 -18 49 -33
-7 -33 -40 0 -79 -15 -228 -86 -98 -47 -269 -118 -379 -157 -110 -40 -219 -79
-243 -88 -52 -19 -61 -13 -34 25 29 40 95 92 193 153 45 28 116 76 158 107
111 83 144 91 341 91 101 0 178 -5 199 -12z m2915 -3 c18 -46 -46 -84 -141
-84 -64 0 -70 -2 -96 -31 -18 -21 -33 -29 -43 -25 -40 15 -88 -30 -63 -60 6
-8 21 -14 34 -14 51 0 80 -85 52 -152 -10 -23 -31 -47 -56 -62 -22 -14 -45
-35 -51 -46 -9 -17 -21 -20 -75 -20 -71 0 -87 -17 -40 -38 42 -19 68 -14 140
29 59 36 71 40 88 29 17 -10 26 -5 76 44 31 31 60 56 65 56 5 0 28 18 51 39
61 56 139 93 198 95 38 1 52 -3 61 -17 17 -28 -25 -56 -148 -101 -117 -42
-221 -100 -251 -141 -18 -23 -20 -39 -17 -138 1 -62 5 -124 8 -139 l6 -28 -49
6 c-74 9 -138 32 -163 59 -32 34 -39 31 -29 -12 16 -70 12 -81 -33 -104 -23
-12 -130 -81 -238 -153 -205 -138 -329 -208 -445 -249 -85 -30 -306 -73 -329
-64 -57 22 -16 160 120 404 118 211 137 228 298 269 134 35 141 33 79 -25 -50
-45 -65 -71 -44 -71 13 0 115 86 161 135 19 20 80 74 136 120 115 95 146 129
194 215 47 84 158 188 250 234 78 39 124 45 193 24 37 -11 41 -10 55 10 17 26
37 29 46 6z m194 -22 c4 -27 -17 -53 -65 -83 -39 -24 -69 -18 -85 17 -9 19 -8
28 6 43 47 52 138 66 144 23z m-168 -87 c15 -18 6 -45 -13 -45 -8 0 -20 7 -27
15 -10 12 -10 18 0 30 16 19 24 19 40 0z m-2750 -23 c0 -10 25 -42 55 -72 51
-51 68 -80 45 -80 -16 0 -79 69 -100 110 -21 42 -26 75 -10 65 6 -3 10 -14 10
-23z m-164 -20 c32 -21 112 -84 177 -139 127 -109 204 -155 349 -207 175 -64
366 -144 387 -162 2 -1 -26 -49 -61 -106 -36 -57 -73 -127 -83 -157 -22 -67
-80 -135 -109 -127 -28 7 -258 89 -326 116 -30 12 -135 60 -233 107 -244 116
-296 134 -351 127 -37 -5 -56 -1 -110 24 -37 17 -69 39 -73 48 -9 25 39 62
182 142 124 69 171 105 160 123 -15 23 -300 -158 -392 -249 -32 -31 -87 -90
-122 -130 -35 -41 -74 -77 -87 -82 -27 -11 -60 -55 -129 -176 -64 -111 -143
-190 -238 -240 l-74 -38 -34 28 c-76 64 -381 352 -404 382 -55 72 -37 87 305
258 303 151 498 237 750 331 107 41 245 94 305 119 61 25 119 45 131 46 11 0
47 -17 80 -38z m2832 -49 c30 -14 50 -29 45 -33 -4 -4 -46 -33 -93 -64 l-85
-56 -3 47 c-6 95 18 150 62 138 11 -4 45 -18 74 -32z m-5276 -39 c20 -11 27
-19 20 -26 -12 -12 -63 10 -70 30 -5 16 13 15 50 -4z m210 -21 c38 -42 71 -93
59 -93 -10 0 -76 73 -92 103 -15 26 4 20 33 -10z m-153 -49 c-33 -35 -79 -67
-86 -60 -8 8 25 45 62 67 42 27 53 23 24 -7z m119 -23 c2 -12 -3 -24 -12 -27
-27 -11 -6 -24 37 -24 48 0 90 -18 95 -41 4 -22 -106 -44 -142 -28 -49 23 -69
113 -33 157 14 17 51 -7 55 -37z m412 -11 c0 -18 -48 -42 -77 -38 l-28 3 35
23 c37 23 70 29 70 12z m4904 -66 c20 -19 21 -78 2 -94 -21 -17 -114 -40 -163
-40 -46 0 -69 24 -58 60 9 28 129 84 192 89 6 1 19 -6 27 -15z m-4963 -5 c47
-15 41 -29 -12 -29 -38 0 -109 23 -109 34 0 10 82 6 121 -5z m-717 -45 c16
-43 -1 -123 -63 -294 -26 -73 -31 -99 -31 -181 0 -95 19 -265 41 -369 6 -30
31 -97 55 -148 25 -51 49 -116 55 -144 28 -128 -32 -362 -165 -643 -37 -77
-64 -120 -91 -144 -37 -32 -40 -33 -99 -27 l-61 7 30 -21 c21 -14 46 -20 83
-20 60 0 64 -8 26 -57 -26 -35 -25 -40 6 -23 27 14 71 98 128 240 62 156 73
180 83 180 10 0 -6 -64 -61 -245 -27 -88 -54 -191 -60 -230 -17 -107 -30 -147
-57 -184 l-26 -34 -12 29 c-11 29 -12 28 -40 -46 -85 -229 -147 -347 -275
-524 -115 -160 -168 -216 -210 -225 -23 -4 -36 -13 -39 -26 -3 -17 -1 -17 12
-6 24 19 38 5 26 -26 -15 -39 -88 -140 -115 -158 -13 -8 -34 -15 -46 -15 -27
0 -106 -66 -162 -134 -56 -69 -26 -56 66 30 45 41 84 71 86 64 9 -26 -126
-173 -205 -223 -48 -30 -67 -53 -60 -71 11 -28 -57 -71 -224 -140 -173 -71
-247 -87 -301 -67 -61 22 -78 22 -78 1 0 -31 -56 -61 -107 -58 -38 3 -43 1
-43 -17 0 -28 -50 -86 -118 -138 -76 -59 -101 -72 -115 -58 -16 16 12 51 154
196 144 146 158 163 159 186 0 18 35 52 65 64 11 5 104 11 206 14 185 6 186 6
223 35 21 15 35 30 33 32 -2 2 -57 -7 -122 -21 -65 -14 -124 -24 -132 -21 -8
3 -12 18 -11 38 3 29 0 33 -24 36 -30 4 -99 -14 -206 -53 -47 -17 -88 -25
-115 -23 l-42 3 40 18 c63 29 85 54 85 101 l0 41 48 1 c75 1 252 91 252 128 0
15 43 26 104 26 48 0 112 28 143 61 58 64 91 134 224 479 74 193 229 508 345
700 54 91 121 210 149 264 61 122 80 135 70 48 -7 -58 4 -88 22 -60 4 7 10
105 14 218 10 292 34 417 140 708 32 90 59 173 59 185 0 22 -1 21 -20 -3 -11
-14 -32 -55 -47 -92 -15 -37 -29 -65 -30 -64 -4 4 35 359 48 441 32 194 113
330 264 439 57 41 61 42 69 20z m4521 -14 l30 -20 -67 0 c-68 0 -79 5 -56 28
18 18 59 14 93 -8z m-190 -10 c4 -6 -23 -10 -74 -10 -47 0 -81 4 -81 10 0 6
31 10 74 10 41 0 78 -4 81 -10z m-331 -33 c-3 -8 -19 -24 -35 -37 -38 -27 -59
-15 -41 25 9 20 19 25 46 25 26 0 34 -4 30 -13z m1437 -14 c11 -30 -11 -58
-39 -49 -26 9 -46 41 -38 62 9 24 67 14 77 -13z m-1655 -38 c-51 -45 -70 -45
-26 0 19 19 41 35 49 35 10 -1 1 -14 -23 -35z m394 -32 c-69 -75 -136 -178
-207 -319 -32 -63 -61 -114 -64 -114 -15 0 16 111 50 186 73 154 156 264 226
295 22 10 41 16 44 14 2 -2 -20 -30 -49 -62z m148 -10 c-83 -86 -161 -199
-272 -397 l-74 -131 -17 -340 c-9 -187 -20 -387 -25 -445 -10 -113 -24 -547
-40 -1255 -13 -574 -20 -742 -32 -721 -11 20 -39 164 -36 185 2 11 -3 15 -19
13 -12 -2 -31 2 -42 8 -25 13 -67 83 -76 127 -7 33 7 72 22 63 14 -9 20 76 27
370 11 470 59 1410 87 1710 6 63 17 149 26 190 29 138 31 141 33 55 1 -44 5
-120 9 -170 l6 -90 13 80 c57 343 144 572 267 699 66 69 152 126 189 126 29 0
27 -2 -46 -77z m-269 35 c-7 -12 -27 -46 -46 -75 -95 -149 -124 -233 -198
-574 -46 -211 -45 -209 -57 -209 -24 0 17 253 67 418 52 171 130 340 196 423
33 42 57 53 38 17z m-207 -24 c-57 -49 -68 -70 -47 -94 24 -27 15 -54 -18 -58
-25 -3 -27 -1 -21 22 5 20 2 26 -9 26 -32 0 -143 -195 -348 -609 -116 -233
-212 -421 -215 -418 -9 9 56 190 92 255 51 93 44 138 -10 67 -15 -19 -55 -54
-89 -79 -147 -104 -337 -148 -421 -97 -83 52 -186 288 -186 428 0 88 27 127
60 88 11 -13 9 -19 -8 -36 -43 -39 -20 -160 25 -133 10 6 23 29 29 50 10 36
11 32 17 -66 7 -141 35 -228 89 -282 l41 -41 61 6 c94 9 169 41 225 97 26 26
124 151 217 276 306 415 405 535 494 600 60 45 76 43 22 -2z m-2828 -42 c-45
-71 -92 -116 -147 -143 -32 -17 -62 -28 -65 -24 -3 3 45 56 108 118 87 85 115
108 118 94 2 -10 -4 -30 -14 -45z m4551 47 c8 -12 -23 -49 -41 -49 -23 0 -25
19 -4 40 22 22 36 25 45 9z m136 1 c27 -15 24 -37 -8 -54 -38 -19 -90 -29 -97
-18 -10 17 7 53 33 67 32 17 46 18 72 5z m-5611 -36 c0 -96 303 -274 465 -274
55 0 118 -19 150 -45 24 -18 29 -29 27 -59 -2 -33 0 -36 23 -36 15 0 50 -16
79 -35 49 -33 267 -222 281 -245 10 -16 -202 -12 -250 5 -22 8 -53 30 -68 50
-16 19 -33 35 -38 35 -16 0 17 -53 53 -86 65 -59 63 -59 213 -64 134 -5 145
-7 201 -36 139 -71 691 -435 768 -505 52 -47 56 -54 56 -94 0 -24 -16 -105
-35 -180 -46 -178 -53 -236 -64 -510 -11 -291 -10 -288 -122 -342 -100 -49
-221 -93 -254 -93 -12 0 -25 6 -28 14 -6 15 -67 40 -67 27 0 -5 7 -14 15 -21
8 -7 24 -28 36 -46 l21 -35 -42 -70 c-23 -39 -39 -73 -37 -76 3 -3 43 31 89
74 106 101 132 119 220 149 40 13 90 36 112 50 29 20 41 23 46 13 26 -41 55
-589 31 -589 -4 0 -11 20 -14 43 -7 51 -85 257 -97 257 -15 0 23 -143 100
-370 76 -226 176 -728 202 -1010 8 -95 13 -319 13 -655 0 -445 -3 -541 -22
-755 -12 -135 -25 -306 -28 -380 -7 -149 -19 -212 -47 -252 -22 -32 -23 -44
-3 -52 12 -4 14 -14 9 -41 -3 -19 -2 -35 3 -35 19 0 33 26 33 62 0 20 10 56
22 79 19 37 22 65 29 228 8 209 6 191 18 191 17 0 124 -300 158 -440 23 -95
30 -787 12 -1135 -8 -143 -14 -300 -14 -350 0 -86 1 -90 23 -93 60 -9 -20 -55
-176 -101 l-104 -31 -55 28 c-55 27 -84 55 -71 68 4 3 36 -10 72 -30 35 -20
70 -36 76 -36 7 0 -8 22 -33 49 -55 58 -54 54 -62 361 -7 239 -14 311 -30 310
-6 0 -9 -40 -7 -105 2 -58 1 -105 -2 -105 -14 0 -51 96 -110 290 -36 117 -83
258 -105 314 -21 55 -45 135 -52 176 -15 91 -16 367 -1 382 8 8 19 6 37 -6 35
-23 44 -12 21 27 -78 131 -215 432 -202 444 10 10 159 -214 214 -323 46 -89
166 -194 193 -167 8 8 -2 21 -40 48 -64 46 -67 73 -14 127 l37 38 -65 -6 c-63
-6 -66 -5 -87 21 -35 44 -29 78 21 119 l42 36 -52 -6 c-106 -13 -145 29 -252
279 -34 80 -71 154 -82 166 -15 16 -21 39 -24 94 -4 69 -35 204 -56 236 -9 15
-8 -4 6 -119 7 -56 -4 -23 -140 397 -185 576 -189 591 -189 798 0 191 13 252
50 247 47 -6 74 65 78 210 7 202 18 231 161 388 167 183 181 245 17 73 -106
-111 -159 -153 -196 -153 -10 0 -34 9 -52 21 -45 28 -44 12 7 -73 22 -37 39
-73 37 -79 -2 -7 -20 -18 -39 -24 -42 -14 -48 -39 -17 -72 21 -22 23 -34 23
-116 0 -74 -3 -92 -15 -94 -8 -2 -49 24 -90 57 -101 81 -143 83 -77 4 74 -88
80 -109 48 -179 -24 -54 -47 -75 -81 -75 -20 0 -31 -6 -35 -20 -3 -11 -13 -20
-21 -20 -24 0 -91 47 -161 114 l-68 64 42 45 c64 70 73 132 18 133 -28 0 -30
2 -27 33 l4 33 -31 -33 c-29 -33 -30 -34 -45 -14 -14 19 -16 19 -32 4 -9 -10
-19 -38 -21 -63 -6 -47 4 -59 26 -32 7 8 28 22 47 31 27 13 38 14 49 5 22 -19
1 -50 -34 -50 -18 0 -34 -8 -42 -21 -30 -44 -76 18 -66 90 8 64 35 109 80 133
23 13 43 32 45 42 4 17 -1 18 -42 14 -56 -7 -66 6 -66 79 0 80 -1 80 151 58
206 -29 349 -25 349 10 0 31 -37 37 -90 14 -49 -21 -51 -21 -64 -4 -14 19 -49
23 -304 28 l-114 2 -75 78 c-41 43 -72 81 -70 84 3 3 51 -16 106 -40 55 -25
126 -51 157 -56 95 -18 491 -10 479 9 -2 4 -96 10 -207 13 -295 9 -391 37
-483 139 -73 81 -155 248 -190 388 -23 95 -35 120 -55 120 -29 0 -78 68 -91
126 -15 66 -1 149 49 299 l36 110 5 465 c4 256 10 471 14 478 5 6 24 12 44 12
20 0 88 11 152 25 64 14 126 28 139 30 12 3 22 13 22 21 0 9 22 53 49 98 64
106 84 146 73 146 -5 0 -28 -28 -52 -62 -56 -81 -87 -115 -131 -144 -72 -45
-239 -76 -302 -54 -39 12 -142 114 -132 130 4 6 -5 50 -19 99 -74 256 -57 531
38 626 29 28 56 33 56 9z m5356 -29 c27 -30 49 -45 66 -45 14 0 36 -13 54 -31
23 -24 29 -39 29 -74 0 -64 -26 -86 -104 -91 -34 -2 -61 -1 -61 2 0 3 34 21
75 41 41 19 75 36 75 38 0 1 -29 0 -64 -2 -90 -8 -113 0 -131 43 -24 58 -16
164 12 164 4 0 26 -20 49 -45z m-1798 -2 c-21 -20 -40 -34 -44 -30 -8 8 53 67
69 67 7 0 -5 -17 -25 -37z m-1370 -49 c51 -19 110 -34 131 -34 28 0 40 -5 43
-18 3 -11 23 -22 54 -30 27 -7 150 -58 274 -112 124 -54 278 -117 342 -139
130 -44 178 -66 178 -82 0 -20 -102 7 -347 92 -162 56 -345 132 -385 160 -15
11 -88 35 -163 54 -75 19 -161 45 -191 59 -93 43 -136 107 -61 90 18 -4 74
-22 125 -40z m-1977 -45 c11 -11 18 -23 16 -26 -6 -6 -64 23 -72 37 -12 19 35
10 56 -11z m1874 -54 c32 -9 74 -25 92 -36 42 -26 43 -53 8 -175 -45 -157 -80
-240 -118 -282 -18 -20 -19 -24 -7 -32 11 -7 15 -27 13 -79 -2 -69 -31 -251
-40 -251 -12 0 -426 252 -511 312 l-54 37 48 33 c77 53 132 107 202 198 128
165 157 200 170 200 8 0 12 -16 12 -44 0 -42 13 -66 28 -52 3 4 5 38 4 76 -4
108 27 127 153 95z m1640 -52 c-18 -42 -45 -76 -45 -55 0 20 39 92 50 92 6 0
3 -16 -5 -37z m-2845 -2 c14 -27 13 -34 -5 -27 -30 11 -13 -16 58 -91 169
-179 535 -453 605 -453 25 0 34 -10 22 -25 -15 -18 -1 -45 21 -45 22 0 25 19
7 40 -7 8 19 -15 57 -51 83 -78 124 -102 161 -93 18 5 25 3 24 -7 -4 -29 1
-38 35 -59 23 -14 47 -20 72 -18 32 2 38 0 43 -20 3 -12 16 -28 30 -35 21 -10
26 -21 28 -61 4 -59 -13 -82 -35 -48 -12 16 -25 22 -55 22 -35 0 -39 2 -33 20
6 17 3 19 -24 14 -25 -5 -34 -1 -63 32 -59 67 -188 139 -188 104 0 -25 -23 -6
-40 34 -10 25 -28 50 -40 56 -27 15 -35 8 -20 -19 6 -12 7 -21 2 -21 -14 0
-32 23 -32 41 0 20 -52 68 -114 104 -34 20 -53 25 -75 20 -24 -5 -42 3 -112
51 -107 73 -285 218 -306 251 -13 20 -14 29 -5 44 11 17 9 19 -16 19 -16 0
-46 13 -68 29 -46 34 -180 169 -173 174 6 7 160 34 196 36 23 1 35 -5 43 -18z
m2740 -51 c0 -13 -7 -13 -32 1 -20 11 -20 9 -14 -26 7 -33 5 -36 -12 -31 -17
6 -19 1 -19 -51 1 -41 -7 -76 -26 -121 -16 -36 -27 -77 -25 -97 1 -20 -5 -41
-15 -52 -21 -24 -125 -244 -167 -353 -17 -47 -40 -101 -50 -120 -27 -54 -109
-116 -170 -129 -48 -10 -288 -16 -279 -6 3 2 47 9 99 16 118 14 162 31 203 79
85 100 267 429 267 482 0 19 10 38 30 56 29 27 103 164 116 217 6 24 4 27 -10
22 -34 -13 -7 63 42 115 20 22 29 25 43 17 11 -5 19 -14 19 -19z m-2629 -53
c89 -74 353 -318 358 -331 5 -12 -45 26 -196 151 -131 109 -243 212 -243 224
0 18 17 8 81 -44z m1383 7 c4 -15 11 -97 16 -183 15 -246 56 -504 101 -630 35
-100 123 -210 216 -269 43 -27 54 -42 30 -42 -25 0 -102 57 -153 112 -107 118
-138 183 -178 379 -50 242 -85 627 -59 652 12 13 21 7 27 -19z m96 -32 c0 -9
-5 -24 -10 -32 -7 -11 -10 -5 -10 23 0 23 4 36 10 32 6 -3 10 -14 10 -23z
m2373 -64 c23 -191 14 -913 -12 -980 -19 -51 -26 66 -26 467 0 391 8 565 24
565 5 0 11 -24 14 -52z m-2067 -29 c100 -47 100 -49 69 -231 -38 -216 -64
-254 -130 -183 -43 45 -65 117 -65 212 0 66 3 75 25 95 14 12 25 28 25 35 0 7
-11 13 -25 13 -22 0 -25 4 -25 38 0 21 3 42 7 45 14 15 58 6 119 -24z m850
-45 c10 -82 -2 -720 -16 -854 -14 -128 -31 -196 -48 -193 -8 2 -12 -19 -12
-65 0 -38 -14 -147 -30 -243 -17 -96 -34 -227 -39 -291 -10 -120 -15 -143 -32
-133 -35 22 41 1096 84 1179 9 19 10 19 27 -2 24 -29 30 -28 30 4 0 16 -11 36
-25 50 -20 19 -25 33 -25 72 0 64 26 310 45 429 8 51 15 95 15 98 0 3 4 5 9 5
5 0 13 -25 17 -56z m1145 -385 c12 -449 7 -907 -9 -949 -10 -25 -12 -23 -105
71 -119 119 -122 127 -107 311 47 582 77 891 92 923 17 39 -4 -728 -28 -990
-6 -64 -5 -77 7 -73 31 10 49 187 84 816 16 277 25 346 45 326 6 -6 15 -190
21 -435z m-1686 344 c33 -14 63 -28 68 -32 10 -10 -118 -196 -176 -254 -40
-41 -52 -48 -80 -45 -39 4 -40 13 -8 182 22 119 40 170 63 179 19 8 66 -2 133
-30z m1485 -48 c0 -18 -21 -28 -46 -23 -17 3 -17 4 0 21 22 21 46 22 46 2z
m-100 -199 c0 -139 -17 -376 -30 -421 -6 -19 -8 73 -6 240 1 149 6 278 10 288
19 40 26 10 26 -107z m-2955 14 c13 -22 -16 -8 -63 30 -73 57 -75 69 -4 21 33
-22 64 -45 67 -51z m747 48 c-10 -22 -11 -21 -11 12 -1 26 2 31 11 22 8 -8 8
-17 0 -34z m2013 -170 c3 -79 10 -377 15 -663 7 -460 11 -546 34 -747 15 -125
35 -276 46 -335 11 -59 17 -110 14 -112 -6 -6 -47 41 -91 103 -27 38 -28 44
-26 153 2 90 0 113 -11 113 -22 0 -27 35 -33 238 -3 106 -7 191 -9 190 -9 -10
-36 -268 -36 -349 0 -109 -9 -136 -34 -104 -14 17 -15 43 -10 180 15 355 91
1349 113 1456 11 58 21 15 28 -123z m115 97 c0 -19 -4 -35 -10 -35 -11 0 -14
53 -3 63 11 12 13 8 13 -28z m149 -55 c-1 -72 -18 -77 -18 -5 -1 49 2 65 9 55
5 -8 9 -31 9 -50z m-2236 3 c9 -27 17 -54 17 -62 0 -25 -28 8 -35 42 -4 18 -9
40 -11 50 -11 39 13 14 29 -30z m-68 -249 c35 -153 84 -351 109 -438 26 -88
46 -168 46 -178 0 -77 -75 146 -139 413 -61 253 -106 507 -86 487 3 -3 34
-131 70 -284z m1219 153 c-74 -181 -144 -271 -270 -352 -90 -58 -112 -67 -134
-55 -38 21 -19 50 33 50 30 1 103 35 140 66 61 51 125 144 193 276 75 148 97
156 38 15z m-2027 57 c24 -14 41 -29 38 -35 -7 -11 -27 -1 -70 35 -39 33 -23
33 32 0z m1703 -6 c-1 -19 -39 -100 -56 -119 -11 -12 -26 -15 -57 -12 -48 5
-116 -16 -131 -40 -18 -28 1 -31 54 -8 39 17 54 19 71 11 32 -18 19 -43 -36
-69 -80 -38 -112 -34 -188 24 l-65 50 70 12 c80 13 211 73 278 126 49 39 60
44 60 25z m-557 -142 c77 -147 133 -224 196 -270 51 -37 124 -65 174 -67 30
-1 30 -1 7 -8 -37 -10 -125 6 -179 33 -56 29 -105 81 -167 177 -46 71 -96 181
-109 239 -12 56 10 26 78 -104z m1785 -703 c-2 -142 -6 -247 -10 -233 -4 14
-12 158 -19 320 -12 286 -4 540 19 643 8 37 14 -359 10 -730z m-2058 672 c11
-33 27 -102 36 -153 26 -166 94 -307 218 -454 52 -62 153 -148 188 -161 7 -2
10 -8 6 -12 -13 -14 -81 12 -166 64 -90 55 -109 48 -41 -14 46 -41 148 -93
202 -102 27 -4 39 -1 56 16 36 36 18 63 -94 136 -83 55 -99 75 -111 142 -4 21
-11 46 -16 56 -13 26 10 22 94 -18 40 -19 104 -42 142 -49 79 -17 84 -20 65
-42 -11 -14 -27 -16 -96 -11 -46 2 -85 1 -88 -3 -11 -18 29 -34 80 -33 58 2
111 22 189 71 27 18 51 30 54 28 13 -14 -149 -236 -221 -303 -61 -56 -89 -62
-145 -33 -60 32 -163 148 -201 225 -39 80 -91 253 -126 415 -14 69 -35 159
-46 201 -32 127 -19 149 21 34z m745 -100 c-47 -36 -206 -48 -255 -20 -23 14
-21 15 40 10 39 -3 89 0 125 8 33 8 71 15 85 15 24 1 24 1 5 -13z m-920 -62
c16 -53 55 -252 55 -277 0 -6 -3 -6 -9 0 -24 25 -86 334 -67 334 3 0 12 -26
21 -57z m2385 -18 c0 -11 -5 -27 -10 -35 -7 -11 -10 -1 -10 35 0 36 3 46 10
35 5 -8 10 -24 10 -35z m-2063 -75 c6 0 60 -39 120 -87 59 -47 132 -97 161
-110 55 -26 63 -48 12 -33 -37 11 -106 58 -199 137 -41 35 -78 63 -84 63 -19
0 4 -63 58 -154 57 -97 65 -117 40 -96 -31 26 -185 307 -185 338 0 3 15 -8 33
-26 18 -18 38 -32 44 -32z m-372 -22 c9 -24 37 -119 61 -212 47 -177 59 -210
74 -201 16 10 37 -36 105 -230 109 -316 173 -491 252 -688 119 -299 81 -275
-82 53 -101 202 -147 308 -196 449 -71 207 -228 741 -245 834 -9 51 10 48 31
-5z m1190 -75 c-15 -43 -61 -145 -103 -228 -63 -123 -88 -161 -138 -210 -33
-33 -77 -83 -97 -111 -63 -88 -139 -134 -223 -134 -46 0 -50 2 -128 83 -117
118 -185 222 -114 174 13 -8 54 -43 91 -76 112 -101 170 -120 245 -82 63 32
214 207 247 288 8 18 18 33 24 33 13 0 77 105 152 250 69 134 86 139 44 13z
m-1205 -110 c14 -73 7 -89 -21 -53 l-20 25 6 -65 c31 -299 390 -1254 529
-1407 37 -40 47 -45 101 -53 58 -7 214 2 234 14 23 15 86 209 256 789 132 453
185 609 185 544 0 -9 -20 -135 -44 -279 -25 -145 -63 -398 -86 -563 -70 -510
-164 -1058 -221 -1285 -21 -86 -121 -396 -160 -497 -50 -128 -81 -170 -158
-216 -34 -20 -64 -37 -67 -37 -3 0 -79 142 -93 175 -2 5 31 -22 75 -60 43 -39
71 -59 63 -45 -103 164 -179 296 -179 313 0 5 9 5 20 2 11 -3 20 -5 20 -3 0 6
-37 98 -105 258 -31 74 -63 169 -72 210 -8 41 -62 237 -119 435 -57 198 -104
367 -104 375 1 42 37 -44 96 -230 176 -553 225 -699 234 -705 6 -3 10 -3 10 2
-1 22 -44 176 -95 338 -105 331 -146 469 -143 484 6 29 172 -415 232 -619 38
-127 92 -260 107 -260 14 0 -88 320 -238 745 -161 455 -209 565 -324 746 -27
41 -55 95 -64 118 -14 41 -21 131 -10 131 3 0 20 -17 39 -37 l35 -38 10 28 c6
16 11 52 12 80 l1 52 33 -70 c33 -68 68 -169 80 -230 l6 -30 -21 24 c-11 13
-23 22 -26 19 -2 -3 12 -52 32 -109 20 -57 92 -268 161 -469 146 -427 249
-691 346 -885 38 -77 70 -153 71 -169 2 -36 28 -55 50 -37 24 20 20 47 -15
108 -23 40 -28 58 -20 66 17 17 15 23 -49 93 -55 60 -73 94 -52 94 5 0 21 -13
37 -30 16 -16 30 -28 33 -26 2 3 -28 74 -67 160 -39 85 -71 161 -71 169 0 7
-12 24 -26 38 -15 13 -48 69 -75 124 -45 95 -130 332 -144 403 -11 55 9 35 39
-41 16 -39 65 -148 109 -242 155 -333 248 -562 249 -617 1 -37 35 -38 69 -2
21 23 157 104 173 104 11 0 -4 -86 -30 -178 -28 -95 -48 -146 -147 -362 -59
-128 -72 -166 -75 -218 -7 -99 11 -94 40 11 14 51 53 151 86 222 150 328 251
789 272 1243 7 162 13 214 35 292 14 52 28 111 31 130 l5 35 -15 -26 c-23 -40
-94 -252 -131 -394 -30 -114 -39 -134 -68 -161 -56 -52 -156 -66 -262 -39 -85
22 -116 46 -172 128 -145 211 -268 499 -417 975 -119 381 -121 398 -65 529 24
56 32 49 49 -44z m1015 57 c14 -22 -61 -76 -136 -98 -118 -35 -135 -25 -29 17
30 12 75 37 100 56 49 38 56 40 65 25z m570 -97 c-3 -43 -10 -186 -15 -318
-12 -263 -24 -437 -41 -561 -17 -126 -40 -138 -55 -30 l-6 50 -17 -30 -16 -29
-3 60 c-5 102 36 378 114 759 19 93 34 170 34 172 0 2 2 4 5 4 3 0 3 -35 0
-77z m835 7 c0 -40 -4 -70 -10 -70 -6 0 -10 30 -10 70 0 40 4 70 10 70 6 0 10
-30 10 -70z m-1204 -21 c10 -16 -22 -43 -42 -35 -16 6 -16 8 1 26 20 23 31 25
41 9z m-1066 -39 c0 -16 -4 -32 -10 -35 -6 -4 -10 10 -10 35 0 25 4 39 10 35
6 -3 10 -19 10 -35z m-120 -70 c0 -16 -4 -30 -10 -30 -11 0 -14 43 -3 53 11
12 13 8 13 -23z m-2140 -66 c14 -83 12 -131 -6 -199 -28 -103 -33 -138 -44
-317 -13 -223 -26 -327 -57 -463 -44 -199 -123 -846 -123 -1014 0 -82 -6 -101
-31 -101 -23 0 -37 28 -79 155 -18 55 -46 132 -63 170 -16 39 -60 146 -98 239
-106 259 -123 283 -205 273 -24 -2 -44 -1 -44 3 0 4 32 45 71 91 73 86 318
448 403 595 71 123 122 248 172 427 67 237 85 261 104 141z m3278 36 c9 -24 8
-30 -3 -30 -36 0 -69 -115 -46 -159 10 -18 9 -21 -6 -21 -44 0 -106 -182 -107
-313 -1 -78 -3 -86 -15 -68 -18 27 -27 26 -35 -2 -3 -13 -40 -60 -82 -105 -42
-46 -74 -86 -70 -89 3 -3 44 20 92 51 60 40 84 52 80 39 -2 -10 -12 -49 -21
-88 -30 -127 -66 -239 -92 -283 -20 -35 -53 -62 -176 -142 l-151 -99 -22 33
c-65 96 -191 362 -274 581 -40 106 -80 233 -80 256 0 31 22 -15 90 -186 83
-207 204 -452 267 -537 37 -50 48 -59 71 -56 24 3 27 7 30 49 3 47 2 49 -144
447 -34 94 -32 115 8 62 12 -16 25 -30 29 -30 8 0 -38 123 -71 192 l-21 43 44
-48 c24 -27 72 -102 107 -168 34 -65 83 -145 108 -176 61 -78 122 -173 122
-190 0 -9 -13 -13 -39 -13 -66 0 -88 14 -121 80 -46 91 -72 74 -29 -20 37 -82
107 -131 161 -115 37 11 77 56 84 92 5 27 -2 46 -41 113 -28 48 -49 98 -53
126 -4 26 -13 49 -20 52 -6 2 -12 -1 -12 -7 0 -27 -33 -7 -50 32 -26 57 -25
75 8 128 38 59 45 79 28 79 -8 0 -32 -21 -55 -47 l-41 -48 -41 45 c-33 36
-178 245 -214 310 -5 8 38 -30 96 -84 133 -126 150 -137 197 -124 93 26 184
95 251 193 57 81 78 102 66 64 -16 -49 -126 -257 -184 -348 -57 -88 -74 -131
-52 -131 26 0 154 216 296 500 48 96 92 181 97 187 14 17 24 9 36 -27z m-1269
-32 c15 -46 25 -118 17 -118 -10 0 -33 59 -41 108 -8 50 8 58 24 10z m2700
-100 l120 -112 -50 -59 c-28 -33 -81 -112 -119 -176 -60 -102 -158 -221 -182
-221 -7 0 -5 91 7 324 5 90 16 119 40 110 19 -8 35 28 35 79 0 72 12 167 21
167 5 0 63 -50 128 -112z m-2530 14 c19 -79 21 -92 12 -92 -11 0 -41 91 -41
122 0 30 19 11 29 -30z m65 -199 c3 -13 9 -32 12 -43 3 -11 1 -20 -4 -20 -12
0 -42 73 -42 102 0 22 0 22 14 3 7 -11 16 -30 20 -42z m-264 11 c0 -8 9 -14
20 -14 11 0 20 -3 20 -7 0 -23 -22 -83 -31 -83 -17 0 -34 67 -30 118 1 18 21
5 21 -14z m2427 -91 c-2 -16 -4 -3 -4 27 0 30 2 43 4 28 2 -16 2 -40 0 -55z
m-987 -145 c0 -18 -7 -96 -15 -173 -16 -150 -19 -368 -5 -325 4 14 8 42 9 62
1 20 6 40 11 43 12 7 7 -171 -11 -435 -5 -80 -14 -217 -19 -305 -11 -186 -45
-1179 -45 -1306 l0 -87 48 -50 c26 -28 47 -56 47 -61 0 -28 -394 -198 -535
-232 -98 -23 -228 -25 -333 -4 -84 17 -220 78 -267 120 -36 31 -22 30 70 -9
104 -43 373 -62 407 -28 16 16 -18 22 -142 25 l-105 2 94 18 c52 10 119 31
152 47 70 36 171 128 238 218 86 117 189 332 237 492 41 139 90 577 75 665 -6
37 -7 38 -14 14 -3 -14 -16 -123 -27 -242 -22 -237 -42 -346 -90 -482 -66
-186 -146 -319 -91 -153 46 142 55 192 55 315 1 89 -3 126 -12 135 -30 29 -74
-67 -123 -263 -48 -194 -135 -371 -199 -404 -15 -8 -101 -24 -191 -35 -172
-22 -252 -21 -285 6 -17 14 -11 15 61 9 105 -7 165 9 318 88 l122 62 68 195
c127 360 187 599 326 1290 99 493 118 591 132 710 6 52 13 98 16 103 11 18 23
4 23 -25z m1319 -65 c6 -40 14 -133 18 -206 7 -146 -1 -181 -40 -175 -33 5
-40 55 -34 248 7 242 31 298 56 133z m105 -390 c-6 -96 -13 -119 -29 -92 -4 5
-1 124 6 262 l14 252 7 -160 c4 -88 5 -206 2 -262z m-590 149 c119 -177 222
-311 262 -337 14 -9 24 -13 22 -8 -46 94 -52 114 -56 183 l-4 75 57 -62 c57
-64 95 -83 161 -83 45 0 80 -32 104 -97 17 -45 18 -58 8 -65 -20 -14 -183 0
-226 18 -20 10 -41 16 -45 15 -5 -1 -36 13 -70 31 -86 45 -210 172 -266 271
-74 131 -113 266 -67 227 8 -6 62 -82 120 -168z m356 39 c0 -71 -3 -143 -6
-160 l-7 -32 -17 28 c-9 15 -40 53 -68 84 -29 31 -52 61 -52 66 0 15 121 143
136 143 11 0 14 -24 14 -129z m-4553 52 c31 -53 91 -200 100 -244 4 -24 2 -29
-13 -29 -25 0 -113 51 -142 82 -21 24 -22 28 -12 122 14 136 22 145 67 69z
m2047 -173 c37 -72 86 -193 86 -209 0 -6 -9 -11 -19 -11 -11 0 -21 -8 -23 -17
-7 -34 -41 49 -41 99 1 37 -3 47 -18 51 -11 3 -28 26 -40 51 -11 25 -24 46
-29 46 -12 0 26 -138 130 -470 92 -294 130 -428 130 -464 0 -61 -57 87 -140
365 -105 349 -150 541 -156 659 l-5 105 46 -70 c26 -38 61 -99 79 -135z m136
78 c6 -21 14 -46 17 -54 3 -8 0 -14 -6 -14 -16 0 -61 98 -61 130 l1 25 19 -23
c11 -13 25 -42 30 -64z m1312 13 c13 -11 35 -40 48 -65 21 -39 23 -49 13 -78
-7 -19 -9 -52 -6 -77 7 -54 -7 -49 -39 12 -16 30 -22 61 -23 109 -1 48 -6 73
-18 86 -32 35 -15 44 25 13z m-3473 -186 c60 -19 86 -33 107 -58 33 -39 74
-129 74 -163 0 -35 28 -86 99 -179 93 -122 112 -201 87 -355 -22 -137 -6 -180
65 -180 37 0 41 -4 86 -72 39 -60 60 -80 115 -113 37 -22 74 -49 81 -59 13
-18 15 -17 56 10 59 39 64 28 56 -132 -9 -208 -47 -504 -144 -1104 -16 -102
-42 -268 -56 -370 -27 -193 -66 -383 -134 -659 -28 -111 -41 -187 -41 -232 0
-186 52 -583 95 -734 21 -72 62 -161 70 -153 2 2 -10 57 -26 123 -95 388 -124
742 -73 909 l17 58 85 -223 84 -224 5 -875 c5 -941 3 -996 -41 -1059 -32 -45
-18 -52 34 -17 54 36 50 18 -8 -37 -56 -52 -100 -77 -137 -77 -29 0 -30 3 -12
31 11 18 8 24 -29 59 -23 21 -60 43 -82 49 -31 9 -44 19 -58 49 -19 40 -24
118 -10 171 8 33 8 34 -19 27 l-27 -7 6 46 c7 42 6 45 -15 45 -20 0 -21 3 -15
50 5 41 3 55 -13 77 -24 33 -47 184 -37 244 6 38 6 39 -19 33 -29 -7 -28 -10
-14 55 9 45 8 54 -10 79 -36 51 -114 380 -128 538 -5 65 -4 74 15 90 26 22 20
34 -18 34 -17 0 -30 7 -34 16 -9 22 -36 483 -36 604 0 153 25 156 53 6 8 -42
18 -80 21 -83 8 -8 -2 147 -15 240 -5 38 -20 95 -34 126 -14 34 -27 90 -31
137 -6 63 -12 82 -29 98 l-22 20 23 68 c26 74 30 103 14 113 -15 9 -38 -12
-43 -38 -3 -21 -4 -21 -12 -3 -5 12 -1 42 13 85 30 92 28 137 -14 292 -119
450 -160 807 -151 1323 5 305 11 365 57 588 12 59 20 113 18 120 -3 7 -18 -7
-34 -32 l-29 -44 -3 60 c-8 146 54 549 94 612 18 28 25 28 123 -3z m3411 -257
c-6 -44 -8 -36 -8 52 0 88 2 96 8 53 4 -29 4 -77 0 -105z m-540 76 c0 -54 -39
-88 -127 -108 -40 -9 -80 -16 -90 -16 -16 0 -16 2 3 18 191 158 214 169 214
106z m625 -27 c4 -28 2 -183 -4 -342 -13 -338 -13 -459 -2 -430 13 33 31 199
41 385 10 196 15 223 39 217 9 -2 14 -10 12 -18 -2 -8 -7 -95 -12 -194 -14
-278 -26 -404 -39 -419 -6 -8 -26 -18 -43 -21 -18 -4 -51 -18 -75 -32 -24 -14
-47 -22 -50 -18 -4 4 -6 93 -5 198 2 201 11 382 20 373 4 -4 41 -267 43 -300
0 -6 5 -5 11 1 6 6 14 124 19 304 9 290 14 349 30 349 5 0 12 -24 15 -53z
m-485 -49 c0 -66 -58 -368 -71 -368 -30 0 -11 198 32 328 21 62 39 81 39 40z
m-1052 -12 c5 -13 27 -79 47 -147 58 -194 133 -392 255 -674 61 -143 115 -267
118 -275 3 -8 -24 17 -60 55 -36 39 -69 67 -72 64 -18 -17 104 -285 155 -341
20 -21 29 -41 29 -64 0 -19 16 -72 35 -118 19 -47 35 -89 35 -95 0 -6 -19 -15
-42 -22 -62 -17 -205 2 -276 37 -75 37 -83 59 -80 227 l3 132 29 -115 c15 -63
37 -135 49 -160 40 -88 29 -5 -32 242 -115 463 -251 1278 -213 1278 5 0 14
-11 20 -24z m1854 -68 c-10 -22 -11 -21 -11 12 -1 26 2 31 11 22 8 -8 8 -17 0
-34z m-4564 -1 c6 -29 -45 -93 -129 -163 -42 -35 -121 -110 -175 -167 -103
-107 -148 -145 -158 -129 -15 25 193 232 347 346 75 55 97 80 84 93 -4 3 -18
-2 -31 -11 -43 -27 -49 -15 -15 28 25 32 72 33 77 3z m3240 -69 c57 -104 196
-392 232 -481 20 -52 21 -60 8 -73 -24 -24 -39 -1 -86 125 -23 61 -82 200
-132 310 -49 109 -90 201 -90 205 0 24 24 -7 68 -86z m-3196 -70 c-11 -24 -42
-74 -71 -112 -65 -87 -66 -99 -7 -76 15 5 32 24 40 44 17 40 83 116 101 116 7
0 16 -7 19 -16 13 -33 5 -67 -31 -134 -20 -39 -33 -73 -29 -77 3 -4 20 3 36
15 44 33 65 28 94 -21 33 -56 112 -238 130 -298 20 -66 9 -78 -79 -87 l-70 -7
110 -18 c61 -10 122 -20 136 -23 l26 -5 6 -387 c8 -462 18 -597 52 -701 13
-42 34 -139 45 -216 12 -77 30 -171 42 -210 15 -53 21 -107 24 -220 2 -85 12
-200 24 -265 26 -155 45 -372 66 -750 l16 -315 94 -475 c155 -792 156 -793
161 -945 7 -181 -8 -321 -44 -394 -35 -72 -175 -212 -281 -281 -63 -41 -93
-68 -123 -111 -21 -32 -48 -61 -60 -64 -30 -10 -167 4 -206 20 -43 18 -46 37
-41 208 5 163 13 189 97 302 195 263 186 439 -51 945 -150 321 -150 322 -159
530 -4 96 -8 198 -8 227 -1 33 -7 57 -17 68 -18 17 -33 70 -35 125 -1 30 -3
29 -9 -15 -5 -27 -9 -79 -9 -114 -1 -35 -3 -62 -6 -59 -3 3 -26 91 -51 194
-39 159 -45 197 -38 239 4 28 7 102 7 167 -1 103 -4 122 -27 173 -45 98 -31
137 42 116 19 -6 32 -6 32 -1 0 15 -70 80 -95 90 -21 8 -23 13 -15 41 13 45
28 58 72 65 21 4 37 9 35 13 -29 52 -60 137 -82 224 l-28 108 89 90 89 90 6
-104 c6 -98 19 -147 39 -147 14 0 12 50 -5 157 -15 92 -15 93 10 159 45 119
43 265 -5 402 -28 78 -49 97 -109 97 -82 0 -116 -49 -157 -219 l-24 -101 3
120 c4 124 10 148 70 290 26 60 44 175 28 175 -4 0 -16 -17 -25 -37 -9 -21
-25 -49 -35 -62 -18 -24 -18 -24 -9 34 10 67 20 89 59 130 34 37 49 73 39 100
-6 17 -16 10 -75 -53 -90 -94 -161 -128 -220 -106 -14 6 -14 8 4 20 22 16 20
28 -22 159 -30 91 -38 156 -20 162 6 2 28 -26 48 -62 70 -125 104 -147 173
-111 41 21 170 161 174 188 2 17 11 24 33 28 38 7 44 33 10 48 -26 12 -145 17
-145 6 0 -3 16 -24 35 -47 19 -22 33 -42 31 -44 -2 -2 -15 1 -29 6 -32 12 -39
5 -31 -36 5 -26 3 -33 -9 -33 -23 0 -47 39 -47 75 0 54 -41 75 -62 30 -9 -20
-7 -36 11 -83 27 -74 27 -102 2 -102 -23 0 -78 61 -97 106 -31 73 -11 112 78
154 l60 28 -49 8 c-26 3 -64 15 -83 24 -37 19 -80 60 -63 60 6 0 16 -7 23 -15
17 -21 40 -19 40 3 0 26 -20 42 -52 42 -41 0 -51 -33 -32 -105 27 -104 -4
-109 -68 -11 l-39 61 7 -106 c7 -112 0 -134 -32 -102 -15 15 -16 33 -11 141 6
138 16 161 71 163 17 1 42 5 56 9 24 8 24 8 -6 9 -36 1 -81 32 -71 49 4 5 24
13 45 17 42 7 58 18 90 59 24 31 29 82 10 89 -10 4 -10 7 0 18 24 25 11 31
-58 27 -73 -4 -108 -21 -80 -38 8 -5 30 -10 48 -10 46 0 40 -13 -17 -34 -75
-27 -95 -20 -99 31 -2 32 2 46 19 62 13 12 30 21 38 21 25 0 116 74 257 207
71 67 149 137 174 155 29 22 53 52 70 87 l25 53 3 -36 c2 -20 -5 -54 -16 -78z
m3592 64 c2 -4 -4 -48 -14 -97 -11 -50 -19 -103 -20 -120 l0 -29 16 22 c8 12
19 22 23 22 4 0 11 -35 15 -77 3 -43 9 -97 12 -120 14 -91 -44 -39 -220 199
-64 86 -116 159 -116 162 0 2 48 -25 108 -61 59 -36 100 -57 91 -47 -8 11 -29
36 -47 57 -18 21 -32 43 -32 50 0 19 173 56 184 39z m756 -237 c-6 -42 -8 -34
-8 45 1 74 2 85 8 50 4 -25 4 -67 0 -95z m59 13 c0 -42 -2 -48 -9 -30 -8 20
-3 82 6 82 2 0 4 -24 3 -52z m-5844 -78 c0 -40 -3 -46 -30 -59 -16 -8 -72 -43
-123 -78 -87 -59 -122 -75 -122 -54 0 15 72 97 135 153 116 104 140 111 140
38z m5938 -67 c4 -49 10 -247 13 -440 5 -264 4 -353 -4 -353 -7 0 -12 5 -12
11 0 19 -65 37 -167 44 -57 4 -103 9 -103 12 0 2 4 12 10 22 15 30 64 44 123
37 l52 -7 -61 30 c-34 16 -64 36 -67 46 -4 9 -6 78 -6 153 l2 137 9 -95 c11
-104 29 -160 52 -160 32 0 40 43 46 250 3 113 8 198 12 190 3 -8 18 -127 32
-265 15 -137 28 -250 29 -251 1 -1 2 149 2 334 0 319 4 392 24 392 4 0 11 -39
14 -87z m-967 -100 c16 -61 -31 -32 -79 48 -20 35 -37 70 -37 79 1 21 109 -98
116 -127z m856 100 c-11 -16 -36 -46 -56 -68 l-35 -40 -1 33 c0 45 15 71 53
87 51 22 61 19 39 -12z m-5697 -43 c14 -44 -47 -93 -117 -93 -34 0 -38 -2 -38
-26 0 -29 -35 -84 -73 -114 -60 -48 -137 -72 -137 -43 0 35 207 241 285 284
33 19 73 15 80 -8z m-258 -104 c-7 -17 -42 -22 -52 -7 -8 14 37 43 48 32 5 -5
7 -17 4 -25z m5792 -251 c15 -58 14 -198 -1 -213 -15 -15 -41 -1 -100 56 -33
31 -48 54 -48 72 0 31 52 123 82 144 20 14 24 14 39 0 9 -8 22 -35 28 -59z
m123 24 c-1 -22 -3 -44 -6 -47 -3 -3 -6 19 -6 48 0 29 3 51 6 47 4 -3 6 -25 6
-48z m-4956 -294 c-5 -14 -9 -15 -21 -5 -16 13 -20 61 -8 74 11 11 37 -50 29
-69z m4349 -30 c-8 -44 -26 -118 -40 -165 -53 -180 -66 -232 -60 -238 4 -4 15
3 25 16 24 29 32 28 18 -3 -8 -18 -37 -38 -96 -65 -47 -22 -86 -40 -89 -40 -2
0 9 19 24 43 42 67 80 157 143 341 72 211 71 209 81 199 4 -4 1 -44 -6 -88z
m426 -20 c53 -151 102 -231 134 -219 14 6 28 43 38 104 2 14 5 -4 5 -40 2 -71
-2 -81 -35 -99 -31 -16 -53 -14 -53 5 0 14 -8 16 -55 10 -47 -5 -56 -4 -65 13
-9 19 -15 330 -5 320 2 -3 18 -45 36 -94z m-2541 -23 c16 -39 114 -331 219
-649 275 -838 318 -972 335 -1054 9 -41 23 -186 31 -324 16 -275 21 -304 94
-492 95 -251 220 -658 236 -770 6 -45 3 -60 -19 -107 -19 -41 -26 -71 -26
-117 0 -152 63 -409 141 -576 22 -48 49 -109 60 -136 l19 -48 -51 -167 -51
-168 -212 -12 c-116 -7 -267 -22 -336 -33 -165 -29 -380 -32 -427 -6 -68 37
-126 189 -143 380 -12 130 -30 1064 -30 1540 l0 328 -69 178 c-38 98 -78 207
-87 242 -29 102 -23 231 19 454 35 188 44 239 111 695 20 129 55 368 80 530
24 162 48 319 51 348 9 65 16 60 55 -36z m-2104 -78 c17 -40 15 -105 -2 -111
-26 -9 -44 28 -44 88 0 70 22 81 46 23z m4541 -184 c-4 -142 -10 -180 -28
-180 -12 0 -11 131 2 248 20 187 34 153 26 -68z m-4309 -106 c3 -22 -21 -39
-39 -28 -11 6 -12 38 -2 48 13 13 38 1 41 -20z m3136 10 c19 -18 21 -44 4 -44
-16 0 -48 31 -48 47 0 18 25 17 44 -3z m22 -94 c149 -52 266 -62 359 -30 134
46 125 13 -15 -58 l-105 -54 75 6 c96 7 181 35 298 98 52 27 96 48 98 45 7 -7
-152 -154 -185 -171 -60 -32 -194 -57 -332 -63 -154 -7 -179 0 -179 46 0 19
-14 46 -40 77 -42 51 -56 84 -46 109 7 19 1 19 72 -5z m1208 -6 c10 -25 7 -49
-8 -69 -12 -16 -16 -17 -30 -6 -20 17 -20 40 0 69 18 26 30 28 38 6z m-1258
-141 c15 -20 18 -53 6 -53 -9 0 -32 44 -32 60 0 15 11 12 26 -7z m-2883 -31
c24 -25 67 -123 67 -152 0 -6 -10 -10 -21 -8 -56 8 -48 -79 8 -97 18 -6 35
-14 38 -17 13 -13 -57 -125 -136 -218 -45 -52 -88 -111 -96 -130 -9 -19 -22
-88 -29 -154 -15 -130 -30 -166 -70 -166 -22 0 -25 4 -24 28 3 44 1 52 -15 52
-33 0 -31 132 5 236 10 30 31 70 46 89 23 30 25 37 13 52 -13 15 -11 16 13 10
41 -11 75 8 98 52 24 49 27 103 5 95 -20 -8 -19 15 4 74 30 75 45 166 32 188
-9 16 -10 14 -11 -16 0 -39 -28 -102 -47 -108 -35 -11 4 150 47 196 27 29 41
28 73 -6z m-68 -2232 c8 -16 37 -91 64 -167 61 -173 123 -317 212 -494 97
-195 117 -259 128 -421 15 -201 -3 -358 -51 -451 -45 -89 -163 -187 -225 -187
-76 0 -59 68 50 203 103 128 117 158 117 256 0 156 -65 379 -145 497 -39 57
-187 354 -183 366 6 16 125 -168 133 -203 5 -22 12 -29 30 -29 17 0 28 -10 42
-37 18 -37 72 -78 94 -71 6 2 -19 44 -55 93 -128 175 -183 263 -210 333 -15
40 -32 72 -37 72 -10 0 -13 239 -3 264 8 20 20 12 39 -24z m3075 -696 c0 -32
-18 -66 -31 -59 -13 9 -11 59 3 73 19 19 28 14 28 -14z m-3000 -67 c0 -18 -5
-39 -10 -47 -7 -11 -10 0 -10 38 0 33 4 51 10 47 6 -3 10 -21 10 -38z m2670 8
c31 -16 40 -35 17 -35 -17 0 -57 29 -57 41 0 12 6 12 40 -6z m232 -37 c37 -40
82 -128 71 -139 -4 -4 -27 -11 -50 -15 -48 -7 -57 3 -79 97 -22 93 2 116 58
57z m-197 -49 c30 -11 55 -22 55 -24 0 -2 -5 -15 -12 -29 -23 -51 -70 -39
-104 26 -28 54 -20 58 61 27z m-2626 -79 c25 -48 34 -80 23 -80 -10 0 -55 90
-66 130 -7 24 -7 25 9 5 9 -11 25 -36 34 -55z m2721 -18 c0 -19 -113 -102
-139 -102 -20 0 22 43 78 81 46 30 61 35 61 21z m-2763 -44 c19 -21 63 -100
63 -113 0 -3 -11 -5 -25 -5 -31 0 -70 39 -85 86 -18 55 9 73 47 32z m2938 -15
c-3 -16 -10 -31 -13 -35 -10 -10 -180 -25 -194 -17 -23 14 54 49 104 47 29 -1
56 5 70 15 33 23 41 21 33 -10z m101 -28 c25 -60 20 -69 -31 -62 -44 7 -45 6
-39 -18 5 -20 3 -24 -9 -19 -25 9 -71 -32 -137 -122 -33 -45 -67 -87 -75 -94
-13 -11 -14 -8 -8 20 4 25 2 35 -10 42 -22 12 -22 46 0 70 20 22 48 24 39 3
-21 -51 -21 -51 4 -30 12 11 52 57 87 102 66 85 128 143 151 143 7 0 20 -16
28 -35z m-2706 -29 c0 -14 -4 -28 -10 -31 -6 -4 -10 7 -10 24 0 17 5 31 10 31
6 0 10 -11 10 -24z m2432 -67 c-15 -5 -36 -6 -55 0 -29 8 -27 9 23 9 44 1 50
-1 32 -9z m-2725 -34 c13 -14 31 -25 40 -23 37 6 26 -178 -13 -217 -49 -48
-139 14 -157 110 -11 59 7 62 62 10 56 -53 86 -56 75 -8 -9 41 -36 76 -72 92
-36 17 -47 38 -30 58 17 21 68 9 95 -22z m3049 -11 c80 -48 204 -142 204 -155
0 -5 -17 2 -37 16 -36 24 -63 32 -63 19 0 -4 26 -34 58 -68 59 -64 98 -128 87
-146 -9 -15 -42 6 -50 30 -8 25 -35 26 -35 2 0 -11 18 -47 41 -82 49 -76 62
-107 49 -115 -6 -4 -19 14 -29 38 -20 47 -63 87 -70 66 -2 -6 13 -44 32 -83
69 -135 58 -169 -20 -62 -33 46 -57 69 -84 80 -36 14 -39 19 -39 53 0 21 7 79
15 128 8 50 15 113 15 142 0 47 -3 54 -33 77 -29 22 -96 56 -112 56 -2 0 4
-15 15 -32 22 -36 26 -88 10 -119 -24 -44 -70 -6 -70 58 0 31 -4 43 -15 43
-17 0 -35 -30 -35 -59 0 -25 -8 -26 -32 -4 -28 25 -22 48 23 86 36 31 94 66
110 67 3 0 32 -16 65 -36z m-176 -195 c0 -40 91 -52 152 -19 34 18 38 18 46 3
10 -16 4 -52 -18 -111 -8 -21 -10 -57 -7 -93 3 -32 2 -59 -2 -59 -10 0 -153
149 -177 185 -11 17 -27 45 -34 64 -12 30 -12 35 5 47 22 16 35 10 35 -17z
m-2907 -118 c16 -15 -5 -41 -33 -41 -30 0 -40 -18 -40 -76 0 -17 -6 -37 -14
-43 -21 -18 -48 27 -54 88 -4 40 -1 52 17 70 19 19 29 21 69 15 26 -3 51 -10
55 -13z m1081 -17 c9 -8 16 -22 16 -30 0 -22 -75 -98 -88 -90 -16 9 -15 109 0
124 17 17 54 15 72 -4z m1792 -36 c64 -43 79 -58 79 -78 0 -35 -37 -38 -78 -7
-31 24 -104 137 -88 137 4 0 43 -24 87 -52z m-1450 -32 c8 -20 -13 -56 -32
-56 -20 0 -28 24 -14 49 12 24 38 28 46 7z m1364 -177 c28 -63 50 -121 50
-128 0 -28 -165 104 -180 145 -9 23 11 100 41 155 12 23 12 23 26 -16 7 -22
36 -92 63 -156z m-1510 81 c47 -37 74 -47 149 -56 33 -3 59 -10 56 -14 -2 -3
-36 -17 -75 -31 l-71 -24 -39 22 c-36 19 -39 20 -30 3 13 -24 58 -55 92 -64
l27 -6 -25 -25 c-13 -13 -24 -33 -24 -43 0 -44 -49 -50 -71 -10 -9 16 -7 20
10 25 12 3 21 12 21 19 0 23 -31 29 -62 11 -33 -19 -34 -17 -9 24 23 38 18 62
-21 94 -46 39 -75 32 -43 -11 34 -45 4 -74 -34 -32 -28 29 -36 59 -20 69 8 5
14 16 14 26 1 19 5 20 44 8 21 -7 23 -5 18 17 -4 14 -3 28 0 32 12 12 55 -4
93 -34z m1740 14 c0 -17 -24 -46 -50 -59 -56 -29 -65 -15 -24 34 16 19 35 31
50 31 13 0 24 -3 24 -6z m-1591 -13 c9 -6 10 -11 2 -15 -15 -10 -53 3 -46 15
8 11 26 11 44 0z m1764 -30 c42 -47 61 -100 52 -148 -6 -34 -5 -35 18 -29 29
7 57 -18 40 -35 -38 -38 -202 178 -180 236 10 25 33 17 70 -24z m-3318 -7 c8
-4 22 -19 30 -35 36 -68 -1 -160 -58 -145 -33 8 -36 35 -7 61 24 22 25 38 4
70 -25 39 -9 64 31 49z m3187 -36 c9 -7 23 -25 33 -40 l17 -28 -37 -21 c-35
-21 -36 -23 -19 -36 12 -9 37 -13 68 -11 57 3 74 -16 29 -33 -32 -12 -88 -6
-110 12 -70 58 -51 212 19 157z m-2004 -10 c18 -18 15 -38 -6 -38 -28 0 -135
-56 -162 -85 -19 -20 -22 -30 -14 -43 11 -17 20 -20 102 -42 48 -12 55 -34 15
-45 l-28 -7 24 -17 c36 -27 22 -51 -30 -51 l-42 0 7 -47 6 -48 -26 28 c-33 36
-52 32 -144 -29 -82 -54 -140 -115 -140 -148 0 -19 -8 -26 -46 -36 -32 -9 -52
-10 -62 -3 -24 14 -26 32 -5 39 53 17 72 27 77 41 5 13 0 15 -34 9 -30 -5 -40
-3 -40 7 0 29 82 89 250 182 118 66 163 95 157 101 -2 3 -42 -9 -88 -26 -113
-41 -119 -40 -119 14 0 49 12 63 74 86 36 14 41 20 47 54 8 47 21 56 83 56 38
0 47 3 42 15 -13 35 72 63 102 33z m-973 -52 c16 -11 19 -33 25 -157 6 -148
14 -180 51 -200 12 -6 64 -13 116 -16 l95 -6 -97 -64 c-113 -73 -137 -77 -240
-38 -127 48 -227 134 -204 177 11 20 81 43 163 53 31 4 56 11 56 16 0 5 -5 9
-11 9 -6 0 -9 20 -7 53 3 52 3 52 -27 52 -30 0 -30 -1 -28 -50 l2 -50 -19 35
c-24 44 -24 74 -1 126 30 66 83 92 126 60z m1415 1 c0 -7 -7 -23 -16 -35 -13
-18 -19 -21 -30 -11 -19 16 -18 36 4 48 24 14 42 13 42 -2z m767 -52 c37 -11
64 -28 94 -60 41 -43 69 -57 69 -34 0 18 68 39 130 39 119 0 210 -26 450 -129
76 -32 107 -40 155 -40 118 -1 172 24 213 97 34 60 50 67 140 52 191 -31 389
-98 526 -179 134 -79 170 -145 106 -191 -75 -53 -281 -111 -551 -154 -274 -44
-498 -60 -1061 -77 -483 -14 -800 -6 -1220 30 -183 17 -373 33 -423 37 l-90 7
165 81 c174 85 303 134 433 161 88 19 139 54 156 108 6 18 15 74 20 126 7 73
13 98 27 109 25 18 86 10 120 -17 42 -33 90 -38 126 -11 25 19 47 23 135 28
75 3 106 9 110 18 7 19 105 18 170 -1z m707 -47 c-9 -13 -30 10 -38 42 l-7 25
26 -28 c14 -16 22 -33 19 -39z m-1750 -33 c67 -43 127 -69 177 -79 39 -7 67
-30 51 -40 -21 -13 -187 25 -244 56 -62 33 -104 79 -94 103 7 19 33 9 110 -40z
m-255 36 c7 -5 9 -11 4 -14 -14 -9 -54 4 -47 14 7 11 25 11 43 0z m2135 -103
c22 -31 13 -34 -28 -8 -43 26 -44 30 -12 30 14 0 32 -10 40 -22z m-1947 -13
c44 -27 58 -51 23 -41 -11 3 -30 9 -42 12 -29 8 -59 34 -52 45 8 14 25 11 71
-16z m-94 -86 c-11 -42 -102 -126 -180 -167 -101 -52 -147 -62 -162 -33 -15
26 9 76 40 86 31 10 32 2 3 -36 -25 -34 -25 -34 -4 -37 12 -2 32 4 46 12 19
13 24 25 24 55 0 22 3 46 6 55 10 25 33 19 40 -11 3 -16 7 -34 10 -40 8 -29
43 -9 109 62 38 41 71 75 72 75 0 0 -1 -9 -4 -21z m-529 -5 c20 -8 20 -33 0
-55 -8 -9 -28 -41 -43 -71 -19 -36 -35 -54 -49 -56 -33 -5 -27 17 19 73 44 53
63 91 53 106 -6 11 -2 11 20 3z m-662 -171 c35 -34 35 -43 0 -43 -34 0 -52 16
-52 47 0 30 18 29 52 -4z m4310 -95 c9 -57 -3 -116 -28 -142 -74 -73 -329
-162 -594 -205 -253 -42 -661 -54 -1628 -48 -843 5 -824 4 -1212 68 -326 53
-449 87 -464 124 -9 25 -7 158 3 174 8 12 18 13 65 2 34 -8 56 -18 56 -26 0
-18 18 -22 115 -30 95 -8 255 -27 495 -60 96 -13 231 -26 300 -29 626 -30
1564 -36 1840 -12 462 42 853 118 982 191 56 32 65 31 70 -7z m-4330 -5 c17
-15 25 -53 11 -53 -14 0 -43 34 -43 52 0 22 8 23 32 1z m360 -130 c-9 -36 -10
-34 -10 32 0 62 1 66 10 38 7 -21 7 -44 0 -70z m-52 25 c0 -52 -14 -78 -31
-61 -9 9 -9 22 1 57 16 58 30 59 30 4z"/>
<path d="M3360 12370 c-12 -7 -12 -12 -2 -22 6 -6 12 -31 12 -55 0 -40 2 -42
34 -49 49 -9 90 7 94 36 5 28 -20 50 -57 50 l-26 1 22 18 c12 10 19 21 16 25
-10 9 -76 7 -93 -4z"/>
<path d="M3175 11943 c-29 -7 -176 -75 -171 -80 2 -2 29 3 60 12 31 9 61 15
67 13 6 -2 -14 -23 -46 -47 -56 -42 -60 -55 -20 -63 11 -2 28 -19 38 -41 14
-31 22 -37 49 -37 l31 0 -22 24 -22 23 57 5 c71 6 87 24 81 91 -5 52 2 57 40
27 54 -42 60 -5 9 46 -30 30 -40 34 -82 33 -27 -1 -58 -3 -69 -6z"/>
<path d="M3393 11478 c12 -33 18 -58 14 -58 -3 0 -17 6 -31 14 -34 17 -55 12
-95 -24 -31 -29 -42 -70 -18 -70 7 0 38 9 70 20 92 32 140 24 77 -13 -20 -12
-30 -26 -30 -43 0 -37 27 -30 76 20 52 51 56 81 17 118 -44 40 -90 61 -80 36z"/>
<path d="M2875 11130 c-7 -12 31 -47 66 -59 41 -14 45 4 7 32 -40 30 -66 39
-73 27z"/>
<path d="M3300 10855 c-12 -19 -20 -45 -18 -57 l3 -23 23 23 c14 14 22 34 22
57 0 19 -2 35 -4 35 -2 0 -14 -16 -26 -35z"/>
<path d="M3160 10718 c-19 -5 -41 -16 -49 -23 -23 -23 11 -29 86 -17 73 12 78
15 70 37 -7 17 -52 19 -107 3z"/>
<path d="M3127 10606 c-57 -21 -107 -63 -107 -92 0 -38 35 -31 64 14 17 28 34
40 62 47 23 6 39 16 39 24 0 20 -15 22 -58 7z"/>
<path d="M3736 10785 c-3 -9 1 -18 9 -21 16 -6 45 12 45 27 0 16 -48 10 -54
-6z"/>
<path d="M3799 10552 c-15 -9 -51 -37 -80 -61 -30 -24 -78 -55 -106 -67 -42
-19 -53 -29 -53 -47 0 -20 -5 -23 -35 -23 -43 0 -83 -29 -110 -80 -17 -33 -38
-48 -145 -104 -143 -76 -300 -175 -300 -190 0 -33 145 36 322 153 140 93 199
143 191 162 -4 11 2 15 20 15 30 0 143 74 244 160 91 77 125 131 52 82z"/>
<path d="M4540 10515 c0 -58 17 -59 64 -3 36 44 41 64 8 35 -23 -21 -41 -22
-48 -2 -12 30 -24 14 -24 -30z"/>
<path d="M4432 10507 c-35 -36 -48 -95 -14 -64 23 21 66 97 55 97 -5 0 -23
-15 -41 -33z"/>
<path d="M7390 9985 c-22 -26 4 -43 30 -20 20 18 18 35 -4 35 -8 0 -19 -7 -26
-15z"/>
<path d="M7330 9887 c0 -25 -5 -58 -10 -73 -6 -15 -9 -29 -7 -31 11 -10 58 23
63 44 7 26 -10 76 -32 94 -12 9 -14 4 -14 -34z"/>
<path d="M7038 9651 c-55 -40 -95 -87 -83 -99 3 -3 38 26 78 66 39 40 69 72
66 72 -3 0 -31 -18 -61 -39z"/>
<path d="M6812 9479 c-91 -43 -162 -59 -295 -68 -132 -8 -158 -20 -117 -53 22
-17 34 -19 87 -14 125 13 338 89 403 144 23 20 23 21 5 21 -11 0 -48 -14 -83
-30z"/>
<path d="M4435 10261 c64 -29 95 -34 95 -17 0 23 -33 36 -87 35 l-48 0 40 -18z"/>
<path d="M4965 10269 c67 -20 186 -32 198 -20 22 22 -15 31 -123 30 -78 -1
-97 -3 -75 -10z"/>
<path d="M3898 9600 c-40 -43 -47 -60 -23 -60 19 0 85 66 85 85 0 26 -22 17
-62 -25z"/>
<path d="M1876 7944 c-3 -60 -13 -138 -21 -173 -9 -35 -14 -66 -11 -68 9 -9
76 142 76 173 0 45 14 50 55 18 20 -15 38 -24 42 -21 8 9 -34 71 -89 131 l-45
50 -7 -110z"/>
<path d="M1674 7456 c-9 -24 4 -48 23 -44 12 2 18 12 18 28 0 29 -32 41 -41
16z"/>
<path d="M1433 7125 c-28 -20 -146 -176 -138 -183 8 -9 91 76 132 136 39 55
40 71 6 47z"/>
<path d="M1452 6898 c-19 -19 -14 -30 10 -26 13 2 24 11 26 21 4 20 -18 23
-36 5z"/>
<path d="M1236 6868 c-20 -28 -21 -58 -2 -58 18 0 33 19 41 53 9 34 -16 38
-39 5z"/>
<path d="M645 6421 c-3 -5 2 -17 11 -25 31 -31 109 -11 83 21 -13 15 -85 18
-94 4z"/>
<path d="M6180 9064 c0 -21 4 -33 10 -29 6 3 10 19 10 36 0 16 -4 29 -10 29
-5 0 -10 -16 -10 -36z"/>
<path d="M6180 8864 c0 -21 4 -33 10 -29 6 3 10 19 10 36 0 16 -4 29 -10 29
-5 0 -10 -16 -10 -36z"/>
<path d="M6180 8465 c0 -22 4 -34 10 -30 6 3 10 17 10 30 0 13 -4 27 -10 30
-6 4 -10 -8 -10 -30z"/>
<path d="M6094 7027 c-8 -23 2 -47 20 -47 26 0 29 21 8 43 -19 19 -22 19 -28
4z"/>
<path d="M3179 9175 c-60 -32 -85 -165 -74 -390 6 -137 20 -215 37 -215 4 0 8
69 8 154 0 84 3 168 7 186 4 21 24 49 55 78 26 26 48 50 48 54 0 16 -25 7 -52
-19 -27 -26 -28 -26 -49 -7 -43 39 1 121 84 153 l52 20 -45 0 c-25 0 -57 -6
-71 -14z"/>
<path d="M2965 9135 c60 -37 100 -31 57 8 -11 10 -35 17 -58 17 l-39 -1 40
-24z"/>
<path d="M3405 9141 c95 -34 95 -34 95 -13 0 26 -19 32 -88 31 l-57 0 50 -18z"/>
<path d="M3310 9044 c0 -7 45 -44 74 -61 29 -17 83 -16 89 1 8 21 -12 33 -68
41 -27 4 -60 12 -72 16 -13 5 -23 6 -23 3z"/>
<path d="M2654 8979 c-30 -48 -54 -102 -54 -121 1 -17 46 54 71 111 26 58 17
63 -17 10z"/>
<path d="M3525 8950 c-4 -6 10 -10 34 -10 23 0 41 5 41 10 0 6 -15 10 -34 10
-19 0 -38 -4 -41 -10z"/>
<path d="M2883 8938 c-46 -15 -41 -28 10 -28 47 0 73 12 63 29 -8 13 -29 13
-73 -1z"/>
<path d="M3630 8888 c0 -41 47 -168 62 -168 17 0 -1 84 -33 153 -13 28 -29 36
-29 15z"/>
<path d="M2717 8843 c-11 -18 -27 -131 -27 -195 0 -45 -5 -77 -15 -92 -20 -30
-40 -311 -30 -406 12 -100 21 -52 50 265 14 154 30 305 35 335 15 87 16 93 3
97 -6 2 -13 0 -16 -4z"/>
<path d="M2530 8664 c0 -21 4 -33 10 -29 6 3 10 19 10 36 0 16 -4 29 -10 29
-5 0 -10 -16 -10 -36z"/>
<path d="M3880 8684 c0 -24 19 -54 35 -54 21 0 19 34 -3 53 -23 21 -32 21 -32
1z"/>
<path d="M3736 8542 c-3 -5 -1 -26 5 -46 7 -27 15 -36 27 -34 23 4 27 34 8 63
-17 26 -31 31 -40 17z"/>
<path d="M3135 8478 c-4 -15 -3 -32 1 -39 11 -19 26 29 15 49 -8 14 -10 13
-16 -10z"/>
<path d="M3796 8387 l-29 -23 36 4 c33 4 37 1 54 -33 27 -56 47 -65 114 -51
31 7 69 21 85 31 27 19 28 20 7 23 -11 2 -46 -3 -76 -11 -71 -19 -100 -7 -107
43 -4 28 -10 36 -30 38 -15 1 -37 -7 -54 -21z"/>
<path d="M3139 8363 c-23 -59 14 -176 41 -133 21 32 4 160 -21 160 -5 0 -14
-12 -20 -27z"/>
<path d="M3710 8343 c0 -28 3 -34 10 -23 13 20 13 60 0 60 -5 0 -10 -17 -10
-37z"/>
<path d="M2545 8350 c-6 -10 29 -85 44 -94 20 -12 23 17 6 54 -18 39 -40 57
-50 40z"/>
<path d="M3697 8225 c-18 -39 -23 -100 -8 -110 19 -11 41 39 41 92 0 29 -4 53
-8 53 -5 0 -16 -16 -25 -35z"/>
<path d="M3145 8160 c-17 -18 -17 -20 -1 -26 20 -8 52 19 42 35 -10 16 -21 14
-41 -9z"/>
<path d="M2611 7948 c-92 -286 -62 -529 86 -688 104 -113 153 -128 428 -135
190 -5 230 6 70 19 -325 27 -399 49 -484 141 -75 81 -121 212 -121 343 0 46
11 126 30 209 17 73 30 143 30 153 0 40 -19 19 -39 -42z"/>
<path d="M3834 7986 c-8 -35 -1 -89 13 -94 18 -5 35 47 28 85 -7 39 -32 44
-41 9z"/>
<path d="M3710 7896 c0 -74 20 -277 33 -336 13 -56 37 -80 37 -37 0 14 -11
110 -26 213 -25 187 -44 256 -44 160z"/>
<path d="M3111 7874 c-21 -9 -31 -20 -31 -34 0 -18 5 -20 38 -18 49 4 51 -22
2 -35 -43 -11 -55 -28 -33 -44 19 -15 81 -17 102 -4 17 11 18 105 2 125 -18
21 -45 25 -80 10z"/>
<path d="M2960 7791 c0 -24 15 -35 37 -27 14 6 14 9 -2 26 -23 25 -35 25 -35
1z"/>
<path d="M3853 7758 c-26 -34 -44 -138 -24 -138 9 0 45 139 38 147 -2 2 -9 -2
-14 -9z"/>
<path d="M3116 7611 c-16 -17 -16 -19 0 -25 19 -7 44 10 44 30 0 20 -24 17
-44 -5z"/>
<path d="M3110 7445 c0 -49 6 -89 17 -113 12 -29 17 -33 20 -18 5 19 -25 206
-33 206 -2 0 -4 -34 -4 -75z"/>
<path d="M3722 7378 c-35 -71 -98 -136 -175 -182 -39 -22 -67 -31 -159 -51
-16 -3 -28 -9 -28 -15 0 -51 233 26 308 103 48 49 95 145 90 184 -3 25 -7 20
-36 -39z"/>
<path d="M3940 7183 c-16 -26 -27 -49 -24 -52 8 -8 74 69 74 86 0 26 -21 12
-50 -34z"/>
<path d="M3710 7104 c-41 -41 -105 -96 -142 -120 -68 -46 -88 -71 -45 -59 40
12 126 74 187 135 56 56 100 120 83 120 -5 0 -42 -34 -83 -76z"/>
<path d="M3826 6785 c-9 -24 -8 -45 3 -45 12 0 20 35 11 50 -5 8 -9 7 -14 -5z"/>
<path d="M2960 6749 c-36 -15 -8 -29 60 -29 57 0 91 12 71 24 -20 13 -106 16
-131 5z"/>
<path d="M3397 6743 c-13 -12 -7 -41 10 -47 9 -4 23 0 31 8 13 12 13 18 2 30
-13 17 -32 21 -43 9z"/>
<path d="M3316 6721 c-16 -17 -16 -19 0 -25 19 -7 44 10 44 30 0 20 -24 17
-44 -5z"/>
<path d="M3197 6703 c-3 -4 -8 -48 -12 -98 -8 -100 -32 -166 -90 -245 -19 -26
-35 -50 -35 -53 0 -3 21 2 46 11 44 16 46 16 59 -2 8 -11 13 -39 12 -66 -2
-48 6 -70 21 -56 4 4 9 44 12 89 l5 82 28 -3 c23 -3 27 0 27 21 0 13 -9 50
-20 83 -27 78 -28 114 -2 156 29 46 29 68 1 61 -14 -4 -26 0 -35 11 -6 9 -14
14 -17 9z"/>
<path d="M3827 6673 c-29 -45 -88 -728 -86 -993 1 -161 15 -85 34 183 8 128
22 273 30 322 29 188 45 523 22 488z"/>
<path d="M3350 6594 c0 -22 42 -84 65 -97 34 -19 3 52 -39 92 -24 23 -26 23
-26 5z"/>
<path d="M3771 5519 c-2 -41 138 -406 147 -380 2 6 -15 67 -38 134 -44 129
-108 273 -109 246z"/>
<path d="M3724 5225 c0 -71 1 -99 3 -62 2 37 2 96 0 130 -2 34 -3 4 -3 -68z"/>
<path d="M4400 4295 c0 -25 5 -45 10 -45 6 0 10 20 10 45 0 25 -4 45 -10 45
-5 0 -10 -20 -10 -45z"/>
<path d="M4240 3774 c0 -18 62 -84 79 -84 22 0 10 33 -23 66 -37 37 -56 43
-56 18z"/>
<path d="M4140 3738 c1 -31 33 -146 84 -299 31 -91 56 -177 56 -191 0 -33 9
-58 21 -58 35 0 -54 373 -126 524 -17 36 -35 48 -35 24z"/>
<path d="M4346 3622 c-8 -13 17 -134 38 -184 20 -47 38 -50 30 -5 -20 115 -54
211 -68 189z"/>
<path d="M4406 3351 c-5 -8 6 -82 23 -155 3 -16 13 -32 20 -34 12 -4 13 11 8
88 -4 60 -11 96 -19 101 -17 11 -26 11 -32 0z"/>
<path d="M4455 9601 c-7 -24 11 -64 28 -58 15 5 11 48 -7 66 -12 11 -15 10
-21 -8z"/>
<path d="M4370 9540 c0 -22 5 -40 10 -40 6 0 10 18 10 40 0 22 -4 40 -10 40
-5 0 -10 -18 -10 -40z"/>
<path d="M4487 9444 c-10 -11 -8 -63 3 -85 16 -29 30 -23 30 14 -1 35 -22 82
-33 71z"/>
<path d="M4130 9339 c1 -58 57 -158 80 -144 5 3 -1 21 -14 40 -13 18 -26 51
-30 73 -3 22 -13 45 -21 52 -13 11 -15 8 -15 -21z"/>
<path d="M4287 9292 c-19 -21 -22 -73 -7 -103 17 -31 26 -22 22 20 -3 26 2 48
12 63 9 12 16 26 16 30 0 15 -27 8 -43 -10z"/>
<path d="M4325 9126 c-24 -17 -13 -49 16 -44 31 4 49 35 29 48 -20 13 -23 12
-45 -4z"/>
<path d="M3160 9695 c0 -28 50 -85 74 -85 14 0 4 31 -20 59 -22 27 -54 42 -54
26z"/>
<path d="M3419 9441 c25 -34 40 -46 48 -37 8 7 -25 44 -51 58 -17 9 -17 7 3
-21z"/>
<path d="M6010 8779 c0 -17 4 -28 10 -24 6 3 10 17 10 31 0 13 -4 24 -10 24
-5 0 -10 -14 -10 -31z"/>
<path d="M5991 8700 c-19 -11 -9 -45 14 -45 13 0 21 8 23 21 3 23 -17 37 -37
24z"/>
<path d="M5986 8604 c-3 -9 -6 -41 -6 -72 0 -77 22 -55 28 28 4 57 -8 81 -22
44z"/>
<path d="M4466 7683 c7 -54 6 -56 -14 -51 -16 5 -22 2 -22 -11 0 -27 21 -81
31 -81 15 0 39 58 39 95 0 34 -23 105 -35 105 -3 0 -2 -25 1 -57z"/>
<path d="M5242 6165 c-20 -19 -32 -35 -26 -35 16 0 77 43 82 58 7 22 -18 12
-56 -23z"/>
<path d="M4886 6043 c-9 -22 20 -51 35 -36 8 8 8 17 0 32 -14 25 -27 27 -35 4z"/>
<path d="M5000 5976 c0 -16 36 -63 43 -56 3 3 -1 20 -8 38 -14 32 -35 44 -35
18z"/>
<path d="M4930 5923 c1 -27 53 -119 65 -113 14 7 7 39 -21 88 -26 44 -44 54
-44 25z"/>
<path d="M5060 5846 c0 -37 15 -55 32 -38 8 8 7 20 -2 41 -17 41 -30 39 -30
-3z"/>
<path d="M4950 5706 c0 -24 34 -76 51 -76 15 0 10 33 -11 68 -23 38 -40 41
-40 8z"/>
<path d="M5757 6990 c-11 -64 -27 -257 -26 -310 0 -34 2 -40 9 -25 13 34 32
235 28 310 -3 69 -3 69 -11 25z"/>
<path d="M5667 6799 c-3 -12 -2 -31 3 -42 7 -18 9 -14 9 21 1 46 -4 54 -12 21z"/>
<path d="M5628 6523 c-7 -17 -12 -110 -14 -238 -3 -210 -3 -210 11 -125 16 95
32 390 21 390 -3 0 -12 -12 -18 -27z"/>
<path d="M5707 6522 c-20 -22 -22 -48 -4 -55 29 -11 53 31 33 58 -11 15 -13
15 -29 -3z"/>
<path d="M5610 5408 c-50 -164 -113 -287 -199 -386 -39 -46 -71 -88 -71 -93 0
-42 112 73 178 184 53 87 99 205 117 294 25 126 14 127 -25 1z"/>
<path d="M5950 7315 c0 -22 4 -34 10 -30 6 3 10 17 10 30 0 13 -4 27 -10 30
-6 4 -10 -8 -10 -30z"/>
<path d="M2346 6754 c-17 -16 -22 -54 -8 -54 14 0 42 35 42 53 0 21 -14 22
-34 1z"/>
<path d="M2974 5710 c8 -62 33 -117 47 -103 6 6 2 35 -11 76 -27 86 -46 100
-36 27z"/>
<path d="M3020 5509 c0 -24 4 -38 10 -34 6 3 10 22 10 41 0 19 -4 34 -10 34
-5 0 -10 -18 -10 -41z"/>
<path d="M3067 5347 c-9 -23 -7 -541 2 -582 7 -29 7 -29 14 13 4 24 7 146 7
270 -1 232 -9 333 -23 299z"/>
<path d="M2996 4548 c-2 -7 -9 -47 -15 -88 -14 -96 -63 -195 -111 -228 -46
-30 -52 -47 -14 -38 87 22 174 205 165 349 -1 20 -20 23 -25 5z"/>
<path d="M2684 4419 c-3 -6 10 -27 29 -47 20 -21 41 -50 46 -65 12 -31 38 -32
33 -1 -14 75 -85 150 -108 113z"/>
<path d="M2711 4208 c7 -13 25 -38 40 -56 36 -40 36 -58 3 -93 -21 -22 -27
-40 -33 -107 -7 -63 -15 -91 -38 -129 -65 -105 -49 -130 19 -30 50 74 78 149
71 192 -3 20 3 50 18 84 22 53 22 53 4 88 -21 38 -60 73 -82 73 -11 0 -11 -4
-2 -22z"/>
<path d="M2740 3738 c-23 -51 -27 -118 -7 -118 17 0 37 41 47 94 15 75 -10 89
-40 24z"/>
<path d="M2510 3375 c-16 -19 -6 -45 19 -45 25 0 34 26 15 45 -19 18 -19 18
-34 0z"/>
<path d="M2507 3293 c-13 -12 -7 -41 10 -47 9 -4 23 0 31 8 13 12 13 18 2 30
-13 17 -32 21 -43 9z"/>
<path d="M2530 3170 c0 -16 5 -30 10 -30 6 0 10 14 10 30 0 17 -4 30 -10 30
-5 0 -10 -13 -10 -30z"/>
<path d="M2530 3040 c0 -22 5 -40 10 -40 6 0 10 18 10 40 0 22 -4 40 -10 40
-5 0 -10 -18 -10 -40z"/>
<path d="M2980 2491 c0 -16 5 -42 12 -58 l11 -28 7 30 c7 36 -1 77 -18 83 -8
2 -12 -8 -12 -27z"/>
<path d="M2994 2275 c-8 -20 4 -35 27 -35 14 0 19 7 19 25 0 18 -5 25 -20 25
-11 0 -23 -7 -26 -15z"/>
<path d="M3027 2114 c-12 -12 -8 -42 6 -47 21 -8 39 8 35 29 -3 19 -29 30 -41
18z"/>
<path d="M3068 1929 c-26 -15 -23 -41 5 -37 14 2 23 11 25 26 4 24 -4 27 -30
11z"/>
<path d="M4534 6315 c9 -63 32 -147 111 -410 35 -115 73 -247 84 -292 20 -86
27 -103 41 -103 30 0 12 84 -85 412 -109 364 -167 516 -151 393z"/>
<path d="M1844 6476 c-6 -17 12 -83 26 -91 12 -7 22 34 18 71 -3 32 -34 46
-44 20z"/>
<path d="M1504 6396 c-21 -19 -36 -37 -33 -40 7 -8 99 51 99 64 0 19 -27 10
-66 -24z"/>
<path d="M1544 6234 c-83 -55 -133 -120 -83 -107 20 6 21 3 14 -60 -7 -66 -7
-67 27 -101 46 -46 82 -55 112 -27 12 11 31 21 42 21 11 0 48 29 85 68 121
124 143 162 95 162 -33 0 -76 -48 -116 -130 -19 -38 -37 -70 -40 -70 -7 0 -50
86 -50 101 0 7 11 4 26 -6 31 -20 39 -15 30 19 -9 38 -58 59 -123 54 -29 -3
-53 -1 -53 3 0 4 17 22 38 40 68 59 65 79 -4 33z m18 -149 c-2 -18 5 -36 19
-51 27 -29 21 -38 -20 -29 -60 13 -79 57 -40 96 26 26 45 19 41 -16z"/>
<path d="M2073 5334 c-9 -23 5 -105 23 -132 13 -19 18 -21 31 -11 18 16 13 69
-12 123 -19 39 -32 45 -42 20z"/>
<path d="M2093 4968 c-35 -17 -27 -30 14 -26 27 2 39 8 41 21 4 20 -20 22 -55
5z"/>
<path d="M2142 4901 c-10 -6 -7 -10 13 -15 16 -4 32 -3 38 3 8 8 8 11 0 11 -6
0 -17 2 -25 5 -7 3 -19 1 -26 -4z"/>
<path d="M2153 4828 c-28 -13 -29 -24 -5 -30 25 -7 64 10 60 24 -6 17 -28 19
-55 6z"/>
<path d="M2134 4666 c-9 -24 4 -48 23 -44 12 2 18 12 18 28 0 29 -32 41 -41
16z"/>
<path d="M2083 4553 c-21 -8 -16 -43 6 -43 18 0 91 37 91 46 0 6 -82 3 -97 -3z"/>
<path d="M2084 4466 c-9 -25 0 -71 15 -71 19 0 30 35 20 63 -9 25 -27 29 -35
8z"/>
<path d="M1785 4260 c-9 -15 13 -114 31 -136 14 -18 15 -17 10 12 -3 18 -8 44
-12 59 l-7 28 48 -36 c52 -40 65 -45 65 -23 0 30 -122 117 -135 96z"/>
<path d="M1655 4009 c-8 -13 23 -49 42 -49 19 0 27 28 13 45 -14 17 -46 20
-55 4z"/>
<path d="M1870 3972 c0 -30 5 -54 14 -61 20 -17 28 13 16 60 -16 57 -30 58
-30 1z"/>
<path d="M1855 3861 c-3 -5 2 -44 12 -86 12 -58 22 -81 39 -92 37 -24 47 -6
19 31 -32 42 -34 70 -4 61 19 -6 20 -5 8 17 -34 65 -60 90 -74 69z"/>
<path d="M1640 3786 c0 -16 21 -26 56 -26 29 0 31 15 5 30 -28 14 -61 12 -61
-4z"/>
<path d="M1766 3491 c-7 -10 33 -23 47 -14 10 6 -11 23 -30 23 -6 0 -14 -4
-17 -9z"/>
<path d="M1984 3486 c-4 -11 0 -24 10 -34 12 -13 18 -14 28 -4 10 10 8 17 -9
34 -21 20 -23 20 -29 4z"/>
<path d="M2012 3388 c2 -15 11 -24 26 -26 25 -4 27 1 12 29 -15 27 -42 25 -38
-3z"/>
<path d="M2056 3321 c-8 -13 3 -38 19 -45 18 -6 28 23 14 40 -13 16 -25 18
-33 5z"/>
<path d="M1943 2833 c-20 -8 -15 -41 7 -48 20 -6 60 9 60 23 0 24 -37 38 -67
25z"/>
<path d="M1907 2743 c-13 -13 -7 -42 11 -52 14 -7 30 -5 60 11 45 22 51 32 26
42 -21 8 -89 8 -97 -1z"/>
<path d="M1850 2630 c0 -18 20 -50 31 -50 18 0 5 55 -13 58 -10 2 -18 -2 -18
-8z"/>
<path d="M2277 2373 c-13 -12 -7 -41 10 -47 9 -4 23 0 31 8 13 12 13 18 2 30
-13 17 -32 21 -43 9z"/>
<path d="M2367 2173 c-10 -9 -9 -43 1 -43 18 0 45 28 38 38 -8 13 -29 16 -39
5z"/>
<path d="M2392 2077 c-6 -7 -8 -18 -3 -25 5 -9 12 -8 29 4 12 8 22 19 22 25 0
14 -36 11 -48 -4z"/>
<path d="M2394 1985 c-8 -20 4 -83 17 -91 6 -3 20 2 31 13 18 19 19 22 4 57
-15 37 -42 48 -52 21z"/>
<path d="M2383 1808 c-35 -17 -27 -30 15 -26 25 2 37 8 37 18 0 19 -23 22 -52
8z"/>
<path d="M2386 1629 c-19 -15 -26 -29 -24 -47 4 -32 19 -37 47 -15 23 19 33
73 15 80 -6 2 -23 -6 -38 -18z"/>
<path d="M2341 1510 c-19 -11 -9 -45 14 -45 13 0 21 8 23 21 3 23 -17 37 -37
24z"/>
<path d="M2330 1335 c0 -9 82 -46 93 -42 15 5 -52 47 -75 47 -10 0 -18 -2 -18
-5z"/>
<path d="M2472 1288 c2 -15 11 -24 26 -26 25 -4 27 1 12 29 -15 27 -42 25 -38
-3z"/>
<path d="M2103 1125 c-3 -9 -2 -19 1 -23 8 -8 38 10 44 26 6 18 -38 14 -45 -3z"/>
<path d="M5902 5954 c4 -23 32 -39 53 -30 17 6 17 7 0 26 -22 25 -58 27 -53 4z"/>
<path d="M1870 2092 c0 -11 9 -27 20 -37 18 -16 20 -16 26 -1 4 10 -1 25 -11
36 -23 25 -35 25 -35 2z"/>
<path d="M1950 2035 c-14 -37 -13 -46 8 -43 9 2 16 -1 16 -7 -1 -5 -5 -28 -8
-50 l-7 -40 20 25 c16 20 21 22 35 11 22 -18 20 -40 -6 -68 -26 -28 -17 -41
17 -25 20 9 25 19 25 49 0 40 -57 164 -78 171 -7 2 -16 -8 -22 -23z"/>
<path d="M3000 1158 c0 -16 19 -38 33 -38 4 0 7 10 5 22 -3 25 -38 39 -38 16z"/>
<path d="M2082 331 c-20 -12 -10 -46 13 -46 14 0 20 7 20 24 0 27 -13 35 -33
22z"/>
</g>
</svg>
